<svg xmlns="http://www.w3.org/2000/svg" xmlns:xlink="http://www.w3.org/1999/xlink" width="500" zoomAndPan="magnify" viewBox="0 0 375 374.999991" height="500" preserveAspectRatio="xMidYMid meet" version="1.0"><defs><g/><clipPath id="5c69c7682f"><path d="M 192 108 L 212.96875 108 L 212.96875 111 L 192 111 Z M 192 108 " clip-rule="nonzero"/></clipPath><clipPath id="ae36def8b9"><path d="M 103 40.003906 L 192 40.003906 L 192 132 L 103 132 Z M 103 40.003906 " clip-rule="nonzero"/></clipPath><clipPath id="fa8f7d3e9d"><path d="M 29 96 L 103 96 L 103 337.753906 L 29 337.753906 Z M 29 96 " clip-rule="nonzero"/></clipPath></defs><rect x="-37.5" width="450" fill="#ffffff" y="-37.499999" height="449.999989" fill-opacity="1"/><rect x="-37.5" width="450" fill="#ffffff" y="-37.499999" height="449.999989" fill-opacity="1"/><rect x="-37.5" width="450" fill="#ffffff" y="-37.499999" height="449.999989" fill-opacity="1"/><g clip-path="url(#5c69c7682f)"><path fill="#7e55f2" d="M 192.28125 108.859375 L 213.121094 110.773438 L 192.28125 110.625 Z M 192.28125 108.859375 " fill-opacity="1" fill-rule="nonzero"/></g><path fill="#7e55f2" d="M 181.617188 107.980469 L 181.617188 110.648438 L 113.738281 110.234375 L 113.785156 101.753906 Z M 181.617188 107.980469 " fill-opacity="1" fill-rule="nonzero"/><g clip-path="url(#ae36def8b9)"><path fill="#7e55f2" d="M 105.886719 123.191406 C 105.910156 113.050781 106.03125 78.921875 105.886719 75.171875 C 105.789062 72.722656 107.230469 61.675781 115.964844 52.585938 C 123.496094 44.746094 134.066406 40.777344 147.371094 40.777344 C 187.265625 40.777344 189.175781 77.402344 189.175781 77.84375 L 189.175781 123.167969 C 190.371094 123.953125 191.179688 125.324219 191.179688 126.867188 C 191.179688 129.316406 189.199219 131.300781 186.753906 131.300781 C 184.304688 131.300781 182.324219 129.316406 182.324219 126.867188 C 182.324219 125.078125 183.375 123.5625 184.917969 122.851562 L 184.917969 77.917969 C 184.867188 76.570312 183.207031 45.015625 147.347656 45.015625 C 135.238281 45.015625 125.699219 48.542969 118.996094 55.523438 C 111.929688 62.875 110.019531 72.378906 110.117188 75 C 110.265625 78.824219 110.167969 112.242188 110.140625 122.851562 C 111.660156 123.5625 112.734375 125.078125 112.734375 126.867188 C 112.734375 129.316406 110.753906 131.300781 108.308594 131.300781 C 105.863281 131.300781 103.878906 129.316406 103.878906 126.867188 C 103.878906 125.324219 104.6875 123.976562 105.886719 123.191406 Z M 105.886719 123.191406 " fill-opacity="1" fill-rule="nonzero"/></g><g clip-path="url(#fa8f7d3e9d)"><path fill="#7e55f2" d="M 48.332031 101.855469 L 51.191406 96.121094 L 52.367188 96.21875 L 76.507812 98.421875 L 102.386719 100.800781 L 102.316406 110.160156 L 69 109.964844 C 11.199219 207.277344 75.382812 334.261719 76.777344 337.003906 C 9.121094 241.378906 28.394531 134.5625 48.332031 101.855469 Z M 48.332031 101.855469 " fill-opacity="1" fill-rule="nonzero"/></g><g fill="#7e55f2" fill-opacity="1"><g transform="translate(68.946122, 283.93279)"><g><path d="M 122.441406 -115.597656 C 122.628906 -115.972656 122.628906 -116.160156 122.347656 -116.160156 C 122.253906 -116.160156 122.066406 -116.628906 121.972656 -117.097656 C 121.691406 -118.410156 120.941406 -120.472656 120.378906 -121.503906 C 117.472656 -126.191406 112.035156 -131.816406 110.253906 -132.003906 C 109.972656 -132.097656 109.222656 -132.472656 108.472656 -132.847656 C 106.785156 -133.785156 100.785156 -136.222656 99.191406 -136.691406 C 94.128906 -137.816406 84.847656 -138.753906 80.066406 -138.472656 C 70.972656 -138.003906 57.9375 -135.566406 49.40625 -132.753906 C 47.8125 -132.191406 45.46875 -131.441406 44.0625 -130.972656 C 42.75 -130.597656 41.25 -130.128906 40.6875 -129.941406 C 40.21875 -129.753906 38.90625 -129.285156 37.875 -128.910156 C 33.5625 -127.410156 19.875 -121.597656 15.9375 -119.535156 C 14.4375 -118.785156 13.03125 -118.316406 12.84375 -118.410156 C 12.65625 -118.503906 12.28125 -118.222656 12.09375 -118.035156 C 11.90625 -117.753906 10.875 -116.910156 9.75 -116.347656 C 5.90625 -114.285156 2.8125 -111.753906 1.21875 -109.503906 C 0.375 -108.378906 -0.28125 -107.160156 -0.375 -106.785156 C -0.46875 -106.316406 -0.75 -105.847656 -0.9375 -105.472656 C -1.40625 -104.722656 -1.125 -102.472656 -0.28125 -100.878906 C 0.375 -99.566406 2.53125 -96.660156 3.65625 -95.441406 C 4.125 -94.972656 4.6875 -94.410156 4.78125 -94.222656 C 5.0625 -93.753906 7.875 -91.878906 9.75 -90.847656 C 11.15625 -90.003906 14.34375 -88.691406 15.28125 -88.503906 C 15.5625 -88.503906 16.5 -88.128906 17.4375 -87.847656 C 18.28125 -87.660156 19.78125 -87.097656 20.8125 -86.722656 C 21.84375 -86.347656 23.8125 -85.503906 25.40625 -84.847656 C 26.90625 -84.285156 28.78125 -83.441406 29.53125 -83.066406 C 31.3125 -82.316406 32.625 -81.378906 33.9375 -79.597656 C 34.59375 -78.941406 35.34375 -78.097656 35.625 -77.910156 C 36.09375 -77.722656 36.375 -77.441406 36.28125 -77.160156 C 36.1875 -76.972656 36.65625 -76.410156 37.125 -76.035156 C 37.96875 -75.378906 39.75 -72.097656 40.59375 -69.753906 C 41.0625 -68.441406 41.0625 -68.441406 39.75 -64.59375 C 39.65625 -64.03125 39.1875 -62.4375 38.71875 -60.9375 C 38.34375 -59.4375 37.96875 -58.03125 37.78125 -57.75 C 37.59375 -57.28125 37.6875 -57.1875 38.0625 -57.09375 C 38.53125 -57.09375 38.53125 -57 37.96875 -56.625 C 37.40625 -56.25 36.9375 -55.125 36.09375 -51.65625 C 35.90625 -50.71875 35.53125 -49.875 35.53125 -49.875 C 35.4375 -49.96875 35.25 -48.84375 34.96875 -47.53125 C 34.78125 -46.21875 34.40625 -44.8125 34.3125 -44.625 C 33.375 -43.125 32.53125 -40.5 33 -40.125 C 33.1875 -39.84375 33.1875 -39.75 32.90625 -39.5625 C 32.4375 -39.28125 31.78125 -36.5625 31.125 -32.25 C 30.84375 -30.75 30.46875 -29.34375 30.28125 -29.15625 C 30.09375 -28.875 30 -28.59375 30.09375 -28.5 C 30.46875 -28.21875 30.375 -27.09375 30 -27.28125 C 29.625 -27.65625 29.25 -25.5 29.625 -25.03125 C 29.8125 -24.65625 29.8125 -24.5625 29.53125 -24.65625 C 29.34375 -24.65625 29.15625 -24.375 29.0625 -24 C 28.96875 -23.71875 29.0625 -23.34375 29.25 -23.34375 C 29.34375 -23.34375 29.4375 -23.0625 29.34375 -22.875 C 29.34375 -22.59375 29.15625 -22.40625 28.96875 -22.40625 C 28.40625 -22.5 27.28125 -13.96875 27.84375 -13.40625 C 27.9375 -13.21875 27.9375 -13.03125 27.5625 -12.65625 C 27.1875 -12.28125 27.1875 -12.28125 27.5625 -12.09375 C 27.84375 -11.90625 27.84375 -11.625 27.5625 -11.0625 C 27.1875 -10.40625 27 -7.78125 27.375 -7.40625 C 27.375 -7.3125 27.5625 -6.75 27.5625 -6.1875 C 27.65625 -5.71875 27.84375 -4.875 28.125 -4.40625 C 28.5 -3.46875 30.09375 -1.96875 30.46875 -2.15625 C 30.65625 -2.25 31.125 -1.96875 31.40625 -1.40625 C 31.875 -0.9375 32.34375 -0.5625 32.53125 -0.5625 C 32.71875 -0.46875 33 -0.28125 33.1875 -0.1875 C 33.1875 0.09375 33.75 0.46875 34.3125 0.75 C 35.625 1.40625 35.4375 1.40625 36.5625 1.125 C 37.125 0.9375 37.59375 0.5625 37.6875 0.28125 C 37.6875 0.09375 38.0625 -0.5625 38.625 -1.03125 C 39.09375 -1.5 39.5625 -2.15625 39.65625 -2.34375 C 39.65625 -2.625 40.125 -3.375 40.5 -3.9375 C 41.4375 -5.25 44.625 -11.25 45.84375 -13.78125 C 47.625 -17.625 48.9375 -21.65625 49.78125 -25.78125 C 52.03125 -36.5625 51.9375 -48.28125 49.59375 -56.4375 C 49.03125 -58.5 48.75 -61.21875 49.125 -61.3125 C 49.3125 -61.3125 49.5 -61.59375 49.5 -61.78125 C 49.59375 -62.15625 49.875 -62.625 50.15625 -63 C 50.53125 -63.375 50.53125 -63.5625 50.25 -63.75 C 50.0625 -63.84375 50.34375 -64.40625 51.1875 -65.53125 C 52.03125 -66.75 52.3125 -67.21875 52.03125 -67.5 C 51.84375 -67.78125 51.9375 -67.875 52.3125 -67.875 C 52.59375 -67.875 52.6875 -67.96875 52.6875 -68.347656 C 52.5 -69.191406 53.0625 -71.160156 53.34375 -71.535156 C 53.53125 -71.816406 53.90625 -72.097656 54.1875 -72.378906 C 54.84375 -72.941406 54.75 -73.128906 54.1875 -72.941406 C 53.8125 -72.847656 53.71875 -73.503906 54.1875 -73.972656 C 54.375 -74.066406 54.5625 -74.722656 54.75 -75.472656 C 54.84375 -76.128906 55.21875 -76.785156 55.40625 -76.972656 C 55.59375 -76.972656 55.96875 -77.722656 56.15625 -78.378906 C 56.34375 -79.035156 56.53125 -79.785156 56.71875 -79.878906 C 57 -80.253906 59.15625 -85.503906 59.625 -87.003906 C 59.8125 -87.660156 60.28125 -88.503906 60.5625 -88.878906 C 60.9375 -89.253906 61.5 -90.566406 61.875 -91.691406 C 63.09375 -95.347656 71.160156 -110.441406 73.316406 -112.878906 C 74.160156 -113.816406 75.378906 -116.066406 75.566406 -116.910156 C 75.753906 -117.753906 74.347656 -120.472656 73.878906 -120.285156 C 73.597656 -120.285156 72.847656 -120.566406 72.191406 -120.941406 C 71.535156 -121.410156 70.035156 -121.878906 68.910156 -122.066406 C 67.03125 -122.441406 66.65625 -122.347656 66.1875 -121.878906 C 65.8125 -121.597656 65.25 -121.316406 64.78125 -121.035156 C 64.03125 -120.753906 63.5625 -120.003906 61.03125 -115.972656 C 60.1875 -114.566406 58.3125 -111.003906 56.90625 -107.910156 C 56.25 -106.410156 55.21875 -104.441406 54.84375 -103.597656 C 54.46875 -102.753906 53.4375 -100.316406 52.59375 -98.253906 C 51.84375 -96.285156 51 -94.222656 50.90625 -93.753906 C 50.625 -93.378906 50.34375 -92.441406 50.15625 -91.691406 C 49.78125 -90.566406 48.75 -87.753906 46.59375 -82.691406 C 46.21875 -81.660156 45.1875 -79.222656 44.4375 -77.160156 C 43.6875 -75.097656 42.9375 -73.503906 42.84375 -73.503906 C 42.84375 -73.503906 42 -74.535156 41.25 -75.753906 C 38.625 -79.785156 34.875 -83.535156 31.6875 -85.316406 C 30.84375 -85.785156 29.34375 -86.628906 28.40625 -87.191406 C 27.5625 -87.660156 24.375 -89.066406 21.375 -90.285156 C 7.125 -96.003906 4.3125 -97.785156 4.875 -100.785156 C 5.4375 -103.503906 8.71875 -106.128906 17.15625 -110.722656 C 18.375 -111.472656 19.78125 -112.222656 20.25 -112.503906 C 20.71875 -112.785156 21.375 -113.066406 21.5625 -113.160156 C 21.84375 -113.253906 22.3125 -113.441406 22.5 -113.535156 C 22.78125 -113.722656 23.8125 -114.191406 24.65625 -114.472656 C 25.59375 -114.847656 26.625 -115.316406 26.90625 -115.410156 C 28.875 -116.628906 33 -118.128906 33.9375 -118.035156 C 34.21875 -118.035156 34.6875 -118.316406 35.0625 -118.597656 C 36 -119.535156 37.3125 -120.003906 37.59375 -119.628906 C 37.78125 -119.347656 37.875 -119.347656 37.96875 -119.628906 C 38.0625 -120.191406 40.03125 -121.128906 40.875 -121.035156 C 41.34375 -121.035156 42 -121.222656 42.375 -121.410156 C 42.75 -121.691406 43.21875 -121.785156 43.40625 -121.597656 C 43.6875 -121.410156 45.5625 -122.160156 45.9375 -122.722656 C 46.125 -122.910156 46.78125 -123.097656 47.34375 -123.285156 C 47.90625 -123.285156 48.75 -123.566406 49.21875 -123.941406 C 49.78125 -124.503906 50.4375 -124.597656 51.9375 -124.503906 C 54.09375 -124.410156 54.5625 -124.597656 54.46875 -125.253906 C 54.375 -125.722656 55.3125 -126.285156 56.0625 -126.097656 C 56.4375 -126.097656 56.90625 -126.191406 57.1875 -126.285156 C 57.5625 -126.378906 57.65625 -126.285156 57.5625 -126.097656 C 57.46875 -125.816406 57.5625 -125.628906 57.65625 -125.628906 C 58.03125 -125.535156 60.375 -126.566406 60.65625 -126.847656 C 61.03125 -127.222656 62.71875 -127.597656 63.75 -127.503906 C 64.21875 -127.503906 64.78125 -127.597656 64.96875 -127.785156 C 65.25 -128.066406 65.4375 -127.972656 65.90625 -127.691406 C 66.09375 -127.503906 66.5625 -127.410156 66.65625 -127.410156 C 67.125 -127.691406 71.535156 -128.441406 71.628906 -128.347656 C 71.722656 -128.347656 72.097656 -128.253906 72.660156 -128.441406 C 73.128906 -128.628906 73.691406 -128.722656 73.878906 -128.722656 C 74.066406 -128.722656 74.535156 -128.910156 75.003906 -129.097656 C 75.472656 -129.285156 76.035156 -129.378906 76.222656 -129.378906 C 76.410156 -129.378906 76.691406 -129.472656 76.972656 -129.753906 C 77.441406 -130.035156 78.285156 -130.035156 82.128906 -129.566406 C 83.253906 -129.378906 84.566406 -129.378906 85.128906 -129.566406 C 85.597656 -129.847656 87.472656 -129.941406 89.160156 -129.753906 C 90.847656 -129.660156 92.441406 -129.660156 92.628906 -129.753906 C 92.816406 -129.847656 93.191406 -129.753906 93.472656 -129.472656 C 93.847656 -129.191406 95.253906 -128.910156 97.597656 -128.722656 C 100.597656 -128.441406 101.160156 -128.347656 101.347656 -127.878906 C 101.628906 -127.316406 105.285156 -126.191406 105.847656 -126.472656 C 106.316406 -126.660156 107.441406 -126.097656 107.253906 -125.722656 C 107.066406 -125.628906 107.347656 -125.628906 107.816406 -125.628906 C 108.378906 -125.722656 108.472656 -125.628906 108.378906 -125.160156 C 108.285156 -124.878906 108.378906 -124.785156 108.566406 -124.972656 C 108.941406 -125.628906 109.316406 -125.441406 109.128906 -124.691406 C 109.035156 -124.035156 109.222656 -123.941406 110.160156 -123.941406 C 110.441406 -123.941406 110.910156 -123.566406 111.097656 -123.097656 C 111.472656 -122.628906 111.847656 -122.253906 112.035156 -122.253906 C 112.128906 -122.160156 112.878906 -121.785156 113.535156 -121.128906 C 114.191406 -120.472656 114.941406 -120.097656 115.222656 -120.191406 C 115.785156 -120.378906 116.347656 -119.910156 116.066406 -119.441406 C 115.972656 -119.253906 115.972656 -118.972656 116.160156 -118.972656 C 116.347656 -118.972656 116.441406 -119.066406 116.535156 -119.347656 C 116.628906 -120.003906 117.472656 -118.410156 117.472656 -117.566406 C 117.378906 -117.003906 117.566406 -116.628906 117.660156 -116.628906 C 117.753906 -116.535156 117.847656 -116.347656 117.847656 -115.972656 C 117.753906 -115.691406 117.847656 -114.753906 117.941406 -114.003906 C 118.691406 -110.066406 116.910156 -103.503906 114.191406 -100.597656 C 113.253906 -99.566406 113.066406 -99.003906 113.535156 -98.910156 C 113.722656 -98.910156 114.097656 -98.816406 114.285156 -98.628906 C 114.566406 -98.441406 114.941406 -98.816406 115.597656 -99.847656 C 116.160156 -100.597656 116.628906 -101.160156 116.628906 -101.066406 C 116.722656 -100.972656 116.535156 -100.597656 116.253906 -100.128906 C 115.878906 -99.566406 115.785156 -99.097656 115.785156 -98.722656 C 115.972656 -98.066406 116.066406 -98.066406 116.722656 -98.441406 C 117.097656 -98.628906 117.847656 -99.753906 118.410156 -100.691406 C 119.441406 -102.660156 120.003906 -102.660156 119.347656 -100.878906 C 119.160156 -100.410156 119.160156 -100.035156 119.253906 -100.035156 C 119.722656 -99.941406 120.191406 -100.972656 120.097656 -101.628906 C 120.097656 -101.910156 120.378906 -102.378906 120.941406 -102.753906 C 121.691406 -103.410156 121.785156 -103.785156 122.347656 -106.410156 C 122.910156 -108.941406 122.910156 -109.691406 122.722656 -111.097656 C 122.253906 -112.972656 122.253906 -114.753906 122.441406 -115.597656 Z M 61.125 -107.066406 C 61.125 -107.253906 61.3125 -107.441406 61.40625 -107.441406 C 61.59375 -107.347656 61.6875 -107.253906 61.6875 -107.253906 C 61.6875 -107.160156 61.5 -106.972656 61.3125 -106.878906 C 61.21875 -106.878906 61.03125 -106.878906 61.125 -107.066406 Z M 60.84375 -98.722656 C 60.9375 -99.566406 61.5 -100.597656 61.78125 -100.597656 C 61.875 -100.597656 61.78125 -100.128906 61.5 -99.566406 C 61.03125 -98.535156 60.65625 -98.160156 60.84375 -98.722656 Z M 60.28125 -97.691406 C 60.65625 -98.160156 60.5625 -98.160156 60.46875 -97.222656 C 60.375 -96.660156 60.09375 -96.191406 60 -96.191406 C 59.625 -96.285156 59.71875 -96.847656 60.28125 -97.691406 Z M 38.90625 -59.625 C 38.90625 -59.8125 39.09375 -59.90625 39.28125 -59.90625 C 39.375 -59.90625 39.46875 -59.71875 39.46875 -59.625 C 39.46875 -59.4375 39.28125 -59.25 39.09375 -59.25 C 39 -59.34375 38.90625 -59.4375 38.90625 -59.625 Z M 36.46875 -50.90625 C 36.65625 -51 36.65625 -50.53125 36.46875 -49.96875 C 36.28125 -49.40625 36 -48.9375 36 -48.9375 C 35.8125 -48.9375 36.28125 -50.8125 36.46875 -50.90625 Z M 39.5625 -17.53125 C 39 -16.5 38.53125 -15.5625 38.53125 -15.5625 C 38.53125 -15.46875 38.53125 -16.40625 38.625 -17.4375 C 38.71875 -18.46875 38.71875 -19.40625 38.625 -19.5 C 38.4375 -19.59375 38.53125 -19.96875 38.8125 -20.34375 C 39.1875 -20.71875 39.28125 -21 39.09375 -21.375 C 38.71875 -21.75 38.90625 -22.875 39.28125 -22.875 C 39.75 -22.78125 40.03125 -23.90625 39.65625 -24.84375 C 39.5625 -25.5 39.5625 -25.78125 39.84375 -25.96875 C 40.125 -26.0625 40.21875 -26.625 40.3125 -27.75 C 40.21875 -28.6875 40.59375 -30.1875 40.875 -31.21875 C 41.34375 -32.90625 41.34375 -33.09375 40.78125 -33 C 40.3125 -32.8125 40.21875 -33 40.40625 -33.65625 C 40.40625 -34.03125 40.59375 -34.21875 40.78125 -34.125 C 41.15625 -33.75 41.90625 -34.59375 42 -35.625 C 42.28125 -36.84375 41.8125 -37.03125 41.25 -36 L 40.78125 -35.15625 L 40.875 -36.375 C 41.15625 -37.3125 41.25 -37.40625 41.53125 -37.21875 C 41.8125 -37.125 42 -37.3125 42.28125 -37.6875 C 42.375 -38.0625 42.65625 -38.25 42.75 -38.15625 C 43.125 -37.875 43.125 -38.90625 42.84375 -39.28125 C 42.5625 -39.65625 42.5625 -39.84375 43.03125 -40.125 C 43.40625 -40.40625 43.59375 -40.5 43.3125 -40.96875 C 43.03125 -41.53125 43.21875 -42.09375 43.875 -42.65625 C 44.0625 -42.9375 44.4375 -43.6875 44.71875 -44.4375 L 45.1875 -45.75 L 45.28125 -44.71875 C 45.375 -40.96875 44.34375 -30.65625 43.40625 -27 C 42.65625 -24.09375 41.25 -20.53125 39.5625 -17.53125 Z M 43.21875 -44.90625 C 43.3125 -45.1875 43.5 -45.375 43.59375 -45.375 C 43.78125 -45.375 43.875 -45.1875 43.875 -45 C 43.78125 -44.90625 43.59375 -44.625 43.5 -44.625 C 43.3125 -44.53125 43.21875 -44.625 43.21875 -44.90625 Z M 44.71875 -49.03125 C 44.25 -47.71875 43.6875 -47.25 43.96875 -48.375 C 44.15625 -49.3125 44.625 -50.15625 44.90625 -50.0625 C 45 -50.0625 45 -49.59375 44.71875 -49.03125 Z M 45.28125 -46.40625 C 45.1875 -46.125 44.90625 -45.9375 44.71875 -45.9375 C 44.53125 -45.9375 44.34375 -46.21875 44.4375 -46.40625 C 44.4375 -46.6875 44.71875 -46.875 44.90625 -46.875 C 45.09375 -46.875 45.28125 -46.59375 45.28125 -46.40625 Z M 42 -16.875 C 41.4375 -15.84375 41.15625 -15.5625 41.34375 -16.3125 C 41.34375 -16.59375 41.71875 -16.96875 42 -17.34375 C 42.46875 -17.8125 42.46875 -17.8125 42 -16.875 Z M 43.5 -19.78125 C 43.3125 -19.59375 43.03125 -19.21875 43.03125 -18.9375 C 42.9375 -18.65625 42.75 -18.28125 42.5625 -18.1875 C 42.1875 -18 42.375 -18.84375 42.9375 -19.875 C 43.21875 -20.34375 43.6875 -21.375 43.875 -22.125 C 44.0625 -22.875 44.34375 -23.625 44.53125 -23.90625 C 44.90625 -24.28125 44.90625 -24.1875 46.125 -29.8125 C 46.875 -33.46875 47.25 -34.59375 47.25 -33.9375 C 47.4375 -31.6875 44.4375 -20.625 43.5 -19.78125 Z M 45.46875 -58.40625 C 45.46875 -58.59375 45.5625 -58.78125 45.65625 -58.78125 C 45.75 -58.78125 45.84375 -58.59375 45.84375 -58.40625 C 45.9375 -58.21875 45.84375 -58.125 45.65625 -58.125 C 45.5625 -58.125 45.46875 -58.3125 45.46875 -58.40625 Z M 47.34375 -48.65625 C 47.15625 -48.28125 47.0625 -48.5625 47.0625 -49.3125 C 46.875 -50.53125 47.0625 -51 47.34375 -49.875 C 47.4375 -49.5 47.4375 -49.03125 47.34375 -48.65625 Z M 47.53125 -46.03125 C 47.53125 -44.625 47.25 -44.53125 47.0625 -45.75 C 46.96875 -47.0625 46.96875 -47.0625 47.34375 -46.96875 C 47.53125 -46.96875 47.625 -46.5 47.53125 -46.03125 Z M 47.0625 -51.28125 C 46.875 -51.1875 46.6875 -52.125 46.78125 -52.59375 C 46.875 -52.875 46.96875 -52.6875 46.96875 -52.21875 C 47.0625 -51.75 47.0625 -51.375 47.0625 -51.28125 Z M 47.71875 -39.1875 C 47.625 -36.84375 47.4375 -35.53125 47.25 -35.34375 C 46.96875 -35.0625 46.875 -37.3125 47.15625 -38.34375 C 47.25 -38.53125 47.34375 -39.84375 47.4375 -41.0625 C 47.4375 -42.375 47.53125 -43.6875 47.53125 -43.875 C 47.8125 -44.71875 47.8125 -42.5625 47.71875 -39.1875 Z M 59.15625 -94.222656 C 58.96875 -93.472656 58.5 -92.347656 58.03125 -91.597656 C 57.65625 -90.753906 57.09375 -89.535156 56.8125 -88.785156 C 56.4375 -88.035156 55.96875 -86.816406 55.6875 -86.160156 C 55.3125 -85.222656 55.21875 -84.753906 55.40625 -84.472656 C 55.5 -84.097656 55.40625 -84.003906 55.125 -84.097656 C 54.65625 -84.097656 54.46875 -83.535156 54.84375 -83.347656 C 55.125 -83.160156 54.9375 -82.785156 54.28125 -81.847656 C 53.53125 -80.816406 53.34375 -80.535156 53.71875 -80.347656 C 53.90625 -80.066406 53.90625 -79.972656 53.625 -79.972656 C 53.4375 -80.066406 53.25 -79.691406 53.15625 -79.316406 C 52.875 -78.097656 52.6875 -77.535156 52.5 -77.722656 C 52.40625 -77.816406 52.125 -76.972656 51.9375 -75.941406 C 51.75 -74.816406 51.375 -73.785156 51.1875 -73.691406 C 50.90625 -73.503906 50.71875 -72.847656 50.53125 -72.285156 C 50.4375 -71.722656 50.0625 -70.691406 49.6875 -70.128906 C 49.3125 -69.472656 48.84375 -67.875 48.375 -66.375 C 47.90625 -64.03125 47.8125 -63.75 47.34375 -63.75 C 47.0625 -63.75 46.875 -63.84375 46.875 -63.9375 C 47.0625 -64.78125 49.3125 -71.253906 49.875 -72.566406 C 50.34375 -73.503906 50.90625 -75.285156 51.28125 -76.597656 C 51.65625 -77.910156 52.21875 -79.503906 52.59375 -80.066406 C 52.96875 -80.722656 53.4375 -81.753906 53.625 -82.222656 C 53.71875 -82.878906 54 -83.628906 54.09375 -83.816406 C 54.28125 -84.097656 54.75 -85.128906 55.21875 -86.160156 C 55.6875 -87.191406 56.34375 -88.878906 56.90625 -90.003906 C 57.375 -91.035156 57.75 -91.972656 57.65625 -92.160156 C 57.65625 -92.347656 58.03125 -93.097656 58.5 -93.941406 L 59.53125 -95.441406 Z M 54.375 -96.566406 C 54.5625 -96.660156 54.84375 -97.503906 55.125 -98.160156 C 55.21875 -98.910156 55.5 -99.472656 55.6875 -99.472656 C 55.6875 -99.472656 55.96875 -99.941406 56.25 -100.503906 C 56.53125 -101.253906 56.625 -101.347656 56.625 -100.972656 C 56.625 -100.503906 56.25 -99.566406 55.78125 -98.628906 C 54.65625 -96.003906 54.375 -95.628906 54.1875 -95.910156 C 54.09375 -96.097656 54.1875 -96.285156 54.375 -96.566406 Z M 51.9375 -90.941406 C 52.125 -91.503906 52.40625 -92.160156 52.59375 -92.535156 C 53.15625 -93.753906 53.90625 -95.160156 54.09375 -95.160156 C 54.1875 -95.066406 53.71875 -93.660156 53.0625 -91.972656 C 52.40625 -90.285156 51.75 -88.878906 51.65625 -88.878906 C 51.375 -88.878906 51.375 -89.910156 51.9375 -90.941406 Z M 44.8125 -72.472656 C 45.5625 -75.003906 45.75 -75.285156 45.9375 -75.847656 C 46.125 -76.035156 46.5 -76.785156 46.6875 -77.535156 C 47.25 -79.128906 49.875 -85.597656 50.53125 -87.097656 C 51.09375 -88.316406 51.65625 -88.597656 51.46875 -87.660156 C 51.375 -87.378906 51.09375 -86.816406 50.8125 -86.347656 C 50.53125 -85.878906 50.25 -85.128906 50.25 -84.472656 L 50.25 -83.347656 L 50.71875 -84.566406 C 51.46875 -86.160156 53.0625 -90.003906 53.4375 -91.035156 C 53.53125 -91.503906 53.71875 -91.972656 53.90625 -92.253906 C 54.09375 -92.441406 54.65625 -93.753906 55.21875 -95.160156 C 56.90625 -99.191406 58.5 -102.472656 58.78125 -102.472656 C 59.0625 -102.472656 58.875 -101.347656 58.40625 -100.972656 C 58.21875 -100.785156 57.9375 -100.410156 57.84375 -100.128906 C 57.65625 -99.753906 57.5625 -99.472656 57.5625 -99.472656 C 57.5625 -99.472656 57.46875 -99.285156 57.28125 -99.003906 C 57.1875 -98.816406 56.90625 -97.972656 56.53125 -97.128906 C 56.25 -96.378906 55.6875 -95.160156 55.40625 -94.410156 C 55.125 -93.660156 54.75 -93.003906 54.65625 -92.816406 C 54.5625 -92.722656 54.09375 -91.691406 53.71875 -90.660156 C 53.34375 -89.535156 52.6875 -87.941406 52.40625 -87.003906 C 52.03125 -86.160156 51.75 -85.128906 51.5625 -84.660156 C 51.375 -84.285156 50.8125 -82.878906 50.34375 -81.753906 C 48.28125 -76.410156 46.3125 -71.347656 45.9375 -70.035156 C 45.375 -68.160156 45.28125 -68.160156 45.09375 -69.378906 C 45 -69.941406 44.8125 -70.410156 44.625 -70.410156 C 44.25 -70.503906 44.34375 -70.878906 44.8125 -72.472656 Z M 44.34375 -55.96875 C 44.53125 -55.96875 44.625 -55.59375 44.53125 -55.3125 C 44.4375 -54.9375 44.25 -54.65625 44.0625 -54.65625 C 43.78125 -54.75 43.78125 -54.65625 43.96875 -54.46875 C 44.4375 -54 43.96875 -51.46875 43.40625 -50.625 C 43.125 -50.34375 42.5625 -48.5625 42.1875 -46.78125 C 41.8125 -45 41.34375 -43.3125 41.15625 -43.125 C 41.0625 -43.03125 40.875 -42.5625 40.78125 -42.09375 C 40.6875 -41.625 40.3125 -40.6875 40.125 -40.03125 C 39.75 -39.09375 39.84375 -38.90625 40.125 -39.1875 C 40.40625 -39.5625 40.40625 -39.46875 40.3125 -38.8125 C 40.21875 -38.34375 39.9375 -37.875 39.84375 -37.78125 C 39.65625 -37.6875 39.375 -36.65625 39.1875 -35.25 C 39 -34.03125 38.625 -32.90625 38.53125 -32.90625 C 38.34375 -32.90625 38.25 -32.4375 38.0625 -31.78125 C 37.96875 -31.125 38.0625 -30.65625 38.25 -30.65625 C 38.53125 -30.65625 38.53125 -30.375 38.34375 -29.90625 C 38.15625 -29.53125 37.875 -29.15625 37.78125 -29.0625 C 37.5 -28.875 35.625 -19.5 35.71875 -19.03125 C 35.8125 -18.84375 35.625 -17.625 35.25 -16.3125 C 34.96875 -15.09375 34.5 -12.84375 34.40625 -11.34375 C 34.21875 -9.75 34.03125 -8.53125 33.84375 -8.34375 C 33.09375 -7.78125 34.125 -15.9375 35.53125 -22.96875 C 37.40625 -31.59375 39.9375 -42.375 40.21875 -43.125 C 40.3125 -43.59375 40.78125 -45 41.15625 -46.40625 C 43.21875 -54 43.78125 -55.96875 44.34375 -55.96875 Z M 42.28125 -64.96875 C 42.65625 -65.25 42.65625 -64.78125 42.375 -63.9375 C 42.28125 -63.65625 42.375 -63.5625 42.65625 -63.46875 C 43.125 -63.46875 43.40625 -61.3125 42.9375 -60.84375 C 42.65625 -60.5625 40.5 -53.625 40.125 -51.75 C 39.9375 -51.375 39.46875 -49.5 38.90625 -47.71875 C 38.4375 -45.84375 37.21875 -40.78125 36.28125 -36.375 C 35.15625 -30.75 34.5 -28.3125 34.125 -28.03125 C 33.84375 -27.75 33.84375 -27.46875 33.9375 -27.28125 C 34.3125 -27.09375 32.90625 -20.15625 32.34375 -19.59375 C 32.0625 -19.40625 31.96875 -19.125 32.15625 -18.84375 C 32.53125 -18.1875 31.875 -13.59375 31.40625 -12.9375 C 31.03125 -12.46875 30.9375 -12.5625 31.125 -13.5 C 31.21875 -15.84375 31.875 -19.875 32.90625 -24.65625 C 33.65625 -28.40625 33.75 -29.4375 33.375 -29.0625 C 32.625 -28.03125 30.46875 -15.65625 30.09375 -10.59375 C 30.09375 -10.03125 30 -9.46875 30 -9.46875 C 29.71875 -9.46875 29.625 -9.84375 29.8125 -10.21875 C 30 -10.5 29.90625 -10.6875 29.71875 -10.875 C 29.625 -10.96875 29.625 -11.4375 29.90625 -11.90625 C 30.09375 -12.375 30.09375 -12.84375 30 -12.9375 C 29.8125 -13.125 29.8125 -14.25 29.90625 -15.375 C 30.09375 -18.1875 32.90625 -32.0625 33.375 -33.09375 C 33.65625 -33.46875 33.75 -34.3125 33.84375 -34.875 C 33.9375 -35.53125 34.40625 -37.875 34.875 -39.9375 C 35.4375 -42.1875 36.375 -45.9375 37.03125 -48.375 C 37.59375 -50.8125 38.53125 -53.8125 39 -55.125 C 39.46875 -56.34375 39.84375 -57.5625 39.75 -57.65625 C 39.65625 -58.03125 41.90625 -64.59375 42.28125 -64.96875 Z M 60.65625 -135.003906 C 60.9375 -135.285156 66.75 -136.316406 67.3125 -136.222656 C 67.59375 -136.222656 66.28125 -135.847656 64.5 -135.472656 C 61.21875 -134.816406 60.28125 -134.722656 60.65625 -135.003906 Z M 7.21875 -112.878906 C 6.9375 -112.878906 7.5 -113.628906 8.0625 -113.910156 C 8.34375 -114.097656 8.8125 -114.378906 9.09375 -114.566406 C 9.75 -115.128906 13.40625 -117.191406 14.4375 -117.753906 C 15 -118.035156 16.96875 -118.972656 18.84375 -120.003906 C 25.3125 -123.191406 36.84375 -127.878906 45.09375 -130.691406 C 51.1875 -132.753906 57.84375 -134.628906 59.25 -134.722656 C 60.75 -134.910156 59.90625 -134.628906 56.53125 -133.785156 C 55.03125 -133.410156 53.4375 -132.941406 52.875 -132.753906 C 52.40625 -132.566406 50.34375 -131.816406 48.1875 -131.253906 C 46.21875 -130.597656 42.1875 -129.191406 39.28125 -128.160156 C 32.25 -125.628906 17.15625 -118.972656 15.09375 -117.566406 C 14.625 -117.285156 13.6875 -116.722656 12.9375 -116.253906 C 12.1875 -115.972656 10.59375 -114.941406 9.46875 -114.191406 C 8.25 -113.535156 7.3125 -112.878906 7.21875 -112.878906 Z M 45 -129.285156 C 44.4375 -128.910156 42.5625 -128.347656 42.9375 -128.722656 C 43.125 -128.910156 43.78125 -129.191406 44.34375 -129.285156 C 45.28125 -129.660156 45.375 -129.660156 45 -129.285156 Z M 42.375 -128.347656 C 42.28125 -128.160156 41.625 -127.878906 41.0625 -127.785156 C 40.5 -127.597656 39.84375 -127.410156 39.65625 -127.222656 C 39.1875 -126.941406 36.28125 -126.191406 36.5625 -126.472656 C 37.125 -126.941406 42.65625 -128.722656 42.375 -128.347656 Z M 34.6875 -125.441406 C 33.9375 -125.160156 33.28125 -124.878906 33.09375 -124.878906 C 32.8125 -124.972656 34.78125 -126.003906 35.53125 -126.191406 C 36.65625 -126.378906 36.1875 -126.003906 34.6875 -125.441406 Z M 32.15625 -124.597656 C 31.59375 -124.128906 29.34375 -123.191406 29.34375 -123.472656 C 29.34375 -123.566406 30.09375 -123.847656 31.03125 -124.316406 C 31.96875 -124.691406 32.4375 -124.785156 32.15625 -124.597656 Z M 28.5 -122.910156 C 28.21875 -122.628906 27.84375 -122.441406 27.5625 -122.441406 C 27.46875 -122.441406 27.65625 -122.722656 27.9375 -122.910156 C 28.3125 -123.097656 28.6875 -123.378906 28.875 -123.285156 C 29.0625 -123.285156 28.96875 -123.097656 28.5 -122.910156 Z M 25.59375 -121.785156 C 25.59375 -121.785156 25.3125 -121.503906 24.9375 -121.410156 C 24.65625 -121.222656 24.375 -121.222656 24.375 -121.316406 C 24.375 -121.316406 24.75 -121.597656 25.03125 -121.691406 C 25.3125 -121.878906 25.6875 -121.878906 25.59375 -121.785156 Z M 19.03125 -118.785156 C 19.03125 -118.785156 18.84375 -118.597656 18.75 -118.503906 C 18.5625 -118.503906 18.46875 -118.503906 18.46875 -118.691406 C 18.5625 -118.878906 18.65625 -118.972656 18.84375 -118.972656 C 18.9375 -118.972656 19.125 -118.878906 19.03125 -118.785156 Z M 43.78125 -126.003906 C 42 -125.253906 39.9375 -124.316406 39.375 -123.847656 C 38.53125 -123.285156 37.6875 -122.910156 36.84375 -122.816406 C 36.09375 -122.722656 35.4375 -122.628906 35.34375 -122.441406 C 35.34375 -122.347656 34.5 -121.785156 33.375 -121.316406 C 32.34375 -120.941406 31.125 -120.285156 30.65625 -120.097656 C 30.28125 -119.910156 28.78125 -119.347656 27.375 -118.785156 C 24.9375 -117.847656 24.65625 -117.753906 21.375 -116.160156 C 20.4375 -115.691406 18.84375 -114.941406 17.8125 -114.566406 C 16.875 -114.097656 15.46875 -113.441406 14.8125 -113.066406 C 13.6875 -112.410156 12.65625 -112.222656 12.65625 -112.597656 C 12.75 -112.785156 21.75 -118.128906 22.21875 -118.035156 C 22.21875 -118.035156 23.34375 -118.597656 24.65625 -119.253906 C 25.875 -119.910156 27.375 -120.660156 27.9375 -120.847656 C 28.59375 -121.035156 30.75 -121.972656 32.90625 -122.910156 C 35.0625 -123.847656 36.9375 -124.597656 37.125 -124.597656 C 37.40625 -124.597656 37.5 -124.691406 37.59375 -124.878906 C 37.59375 -124.972656 38.0625 -125.253906 38.71875 -125.441406 C 39.28125 -125.628906 39.9375 -125.910156 40.125 -126.191406 C 40.3125 -126.472656 40.5 -126.566406 40.40625 -126.285156 C 40.40625 -126.097656 40.6875 -126.097656 41.53125 -126.378906 C 42.28125 -126.566406 42.84375 -126.566406 43.03125 -126.472656 C 43.21875 -126.285156 43.59375 -126.566406 43.96875 -126.941406 C 44.71875 -127.597656 45.75 -127.878906 46.59375 -127.597656 C 46.78125 -127.503906 45.75 -126.941406 43.78125 -126.003906 Z M 47.15625 -130.316406 C 47.4375 -130.597656 47.90625 -130.785156 48.1875 -130.785156 C 48.46875 -130.691406 49.6875 -131.066406 50.71875 -131.347656 C 54.375 -132.566406 55.78125 -132.941406 56.625 -133.128906 C 57.9375 -133.222656 56.90625 -132.847656 54.46875 -132.191406 C 53.34375 -131.816406 52.03125 -131.441406 51.46875 -131.253906 C 50.90625 -131.066406 49.78125 -130.691406 48.84375 -130.410156 C 46.96875 -129.753906 46.59375 -129.753906 47.15625 -130.316406 Z M 58.96875 -129.660156 C 58.59375 -129.566406 58.59375 -129.660156 58.875 -129.941406 C 59.15625 -130.035156 59.34375 -130.128906 59.4375 -130.035156 C 59.53125 -129.941406 59.34375 -129.847656 58.96875 -129.660156 Z M 63.5625 -130.785156 C 63.46875 -130.597656 63.09375 -130.503906 62.90625 -130.503906 C 62.34375 -130.503906 62.53125 -130.785156 63.1875 -130.878906 C 63.46875 -130.972656 63.65625 -130.878906 63.5625 -130.785156 Z M 63.75 -132.191406 C 62.8125 -131.816406 61.875 -131.535156 61.59375 -131.535156 C 60.9375 -131.628906 58.96875 -131.066406 56.90625 -130.222656 C 56.0625 -129.847656 55.03125 -129.472656 54.5625 -129.285156 C 53.90625 -129.003906 53.90625 -129.003906 54.75 -129.097656 C 55.3125 -129.097656 55.59375 -129.003906 55.5 -128.816406 C 55.40625 -128.722656 55.03125 -128.535156 54.84375 -128.628906 C 54.5625 -128.628906 53.53125 -128.253906 52.6875 -127.972656 C 50.8125 -127.128906 49.59375 -127.035156 51 -127.878906 C 51.46875 -128.160156 51.84375 -128.441406 51.9375 -128.628906 C 52.03125 -129.003906 51.1875 -128.910156 49.40625 -128.253906 C 46.59375 -127.128906 46.875 -127.597656 49.875 -128.816406 C 51.375 -129.472656 52.6875 -130.035156 52.875 -130.035156 C 52.96875 -130.035156 53.71875 -130.316406 54.46875 -130.503906 C 55.21875 -130.785156 57.28125 -131.441406 59.15625 -131.722656 C 61.03125 -132.191406 63.09375 -132.660156 63.84375 -132.847656 C 65.0625 -133.222656 66.9375 -133.222656 65.8125 -132.941406 C 65.625 -132.847656 64.6875 -132.472656 63.75 -132.191406 Z M 67.03125 -131.253906 C 66.75 -131.066406 66.28125 -130.878906 66 -130.878906 C 65.4375 -130.878906 65.71875 -131.160156 66.75 -131.441406 C 67.59375 -131.722656 67.59375 -131.628906 67.03125 -131.253906 Z M 70.785156 -132.003906 C 70.316406 -131.722656 68.910156 -131.628906 69.191406 -131.910156 C 69.285156 -132.097656 69.753906 -132.191406 70.128906 -132.191406 C 70.503906 -132.097656 70.785156 -132.003906 70.785156 -132.003906 Z M 71.535156 -132.378906 C 71.628906 -132.472656 72.003906 -132.660156 72.378906 -132.566406 C 72.847656 -132.566406 72.847656 -132.472656 72.472656 -132.285156 C 71.816406 -131.910156 71.253906 -132.003906 71.535156 -132.378906 Z M 75.378906 -132.660156 C 75.191406 -132.566406 74.535156 -132.378906 74.066406 -132.472656 C 73.035156 -132.566406 73.316406 -132.660156 74.722656 -132.847656 C 75.566406 -132.941406 75.753906 -132.847656 75.378906 -132.660156 Z M 74.910156 -137.066406 C 73.878906 -136.878906 72.285156 -136.691406 71.347656 -136.597656 C 68.910156 -136.222656 68.722656 -136.410156 71.160156 -136.878906 C 72.378906 -137.160156 74.160156 -137.347656 75.097656 -137.347656 L 76.785156 -137.347656 Z M 77.535156 -132.941406 C 77.066406 -132.941406 76.878906 -133.035156 77.160156 -133.128906 C 77.347656 -133.128906 77.722656 -133.128906 77.910156 -133.035156 C 78.191406 -132.941406 78.097656 -132.847656 77.535156 -132.941406 Z M 57.28125 -59.90625 C 57.28125 -59.53125 57.28125 -59.4375 57.46875 -59.625 C 57.5625 -59.90625 57.65625 -60.1875 57.5625 -60.28125 C 57.46875 -60.375 57.375 -60.1875 57.28125 -59.90625 Z M 53.15625 -67.03125 C 53.0625 -66.5625 53.0625 -66.5625 53.25 -66.75 C 53.4375 -66.9375 53.4375 -67.3125 53.34375 -67.40625 C 53.25 -67.5 53.15625 -67.3125 53.15625 -67.03125 Z M 53.15625 -67.03125 "/></g></g></g><g fill="#7e55f2" fill-opacity="1"><g transform="translate(135.969436, 283.93279)"><g><path d="M 0.9375 -17.8125 C 1.59375 -17.71875 2.15625 -17.71875 2.34375 -17.71875 C 2.4375 -17.71875 2.34375 -17.90625 2.15625 -18.28125 C 1.96875 -18.65625 2.0625 -19.03125 2.15625 -19.125 C 2.34375 -19.3125 2.53125 -19.875 2.4375 -20.53125 C 2.34375 -21.65625 5.15625 -29.53125 7.3125 -34.03125 C 8.15625 -35.8125 9.375 -38.4375 10.125 -39.9375 C 12.5625 -45.28125 21.28125 -59.15625 25.21875 -64.03125 C 25.96875 -64.96875 27.5625 -66.9375 28.59375 -68.347656 C 31.40625 -72.097656 33.65625 -74.066406 34.03125 -73.503906 C 34.21875 -73.035156 34.3125 -73.128906 34.21875 -73.597656 C 34.3125 -74.066406 34.5 -74.441406 34.875 -74.441406 C 35.25 -74.535156 35.71875 -73.878906 36.09375 -71.910156 C 37.21875 -66.5625 38.15625 -64.03125 39.75 -61.6875 C 41.15625 -59.25 43.78125 -57.09375 44.90625 -57.1875 C 45.28125 -57.28125 45.375 -57.09375 45.28125 -56.90625 C 45.1875 -56.8125 45.9375 -56.625 46.6875 -56.625 C 48.09375 -56.71875 48.28125 -56.71875 48.375 -58.3125 C 48.46875 -59.71875 48.28125 -60.1875 47.53125 -60.65625 C 45.9375 -61.875 45.375 -63.1875 45.09375 -66.46875 C 44.53125 -70.691406 42.65625 -75.285156 40.40625 -77.160156 C 37.78125 -79.410156 33.46875 -80.253906 30.65625 -79.128906 C 28.40625 -78.285156 25.78125 -75.847656 26.15625 -75.191406 C 26.34375 -74.910156 26.25 -74.628906 26.0625 -74.722656 C 25.59375 -75.003906 20.25 -69.191406 20.25 -68.347656 C 20.34375 -68.160156 21 -68.816406 21.9375 -69.753906 C 24.28125 -72.753906 23.90625 -71.722656 21.28125 -68.347656 C 19.59375 -66.1875 19.03125 -65.71875 19.3125 -66.5625 C 19.40625 -67.6875 19.40625 -67.6875 18.84375 -66.9375 C 18.375 -66.5625 18.1875 -65.8125 18.1875 -65.25 C 18.09375 -64.59375 18 -64.125 17.71875 -64.125 C 17.4375 -64.125 16.5 -63.1875 15.65625 -62.15625 C 13.5 -59.15625 13.5 -58.59375 15.5625 -61.40625 C 16.59375 -62.625 17.53125 -63.5625 17.625 -63.1875 C 17.625 -62.4375 24.375 -71.253906 24.28125 -72.097656 C 24.1875 -72.472656 24.375 -72.753906 24.65625 -72.753906 C 25.03125 -72.660156 26.0625 -73.597656 27 -74.628906 C 29.0625 -76.785156 30.75 -78.191406 31.3125 -78.191406 C 31.96875 -78.285156 31.59375 -77.441406 30.84375 -77.066406 C 30.28125 -76.878906 30 -76.410156 30 -76.035156 C 30.09375 -75.660156 29.8125 -75.472656 29.625 -75.566406 C 29.15625 -75.847656 24.5625 -70.878906 24.65625 -70.128906 C 24.65625 -69.941406 23.625 -68.347656 22.40625 -66.65625 C 18.65625 -61.96875 15.28125 -57 14.4375 -55.5 C 14.0625 -54.75 13.5 -54.1875 13.125 -54.09375 C 12.75 -54.09375 12.5625 -54 12.84375 -53.625 C 12.9375 -53.4375 12.65625 -52.59375 12.1875 -51.84375 C 11.625 -51.09375 10.59375 -49.40625 9.9375 -48.09375 C 9.28125 -46.78125 8.71875 -46.21875 8.71875 -46.5 C 8.71875 -46.96875 8.71875 -47.4375 9 -47.625 C 9.1875 -47.71875 9.5625 -48.75 9.75 -49.96875 C 9.84375 -51.09375 10.40625 -52.40625 10.875 -52.875 C 11.25 -53.34375 11.53125 -53.90625 11.34375 -54.09375 C 11.15625 -54.28125 12.84375 -59.25 15.09375 -65.15625 C 17.4375 -71.160156 19.3125 -76.785156 19.59375 -78.003906 C 19.96875 -79.972656 19.96875 -79.972656 18.46875 -81.191406 C 17.625 -81.753906 16.3125 -82.316406 15.75 -82.316406 C 13.21875 -82.316406 11.4375 -81.753906 10.96875 -80.910156 C 10.125 -79.597656 3.65625 -62.25 3.1875 -59.53125 C 2.90625 -58.6875 2.4375 -57.1875 1.875 -55.3125 C 1.40625 -54.28125 0.65625 -51.65625 0.09375 -49.78125 C -0.46875 -47.8125 -1.125 -45.9375 -1.3125 -45.5625 C -1.875 -44.15625 -4.6875 -33.65625 -4.78125 -32.25 C -4.875 -31.40625 -5.0625 -30.65625 -5.25 -30.28125 C -5.53125 -30 -5.625 -29.34375 -5.625 -28.875 C -5.71875 -28.40625 -5.8125 -27.75 -6 -27.28125 C -6.1875 -26.90625 -6.28125 -25.5 -6.1875 -24.28125 C -5.90625 -22.21875 -5.71875 -21.84375 -3.84375 -20.25 C -2.625 -19.21875 -1.59375 -18.75 -1.125 -18.9375 C -0.75 -19.125 -0.46875 -19.03125 -0.375 -18.5625 C -0.375 -18.1875 0.09375 -17.8125 0.9375 -17.8125 Z M -0.28125 -36.5625 C -1.03125 -33.28125 -2.71875 -28.59375 -2.8125 -29.15625 C -3 -30 -2.15625 -33.375 -0.75 -38.71875 C 1.21875 -45.46875 1.21875 -45.5625 2.0625 -48.1875 C 2.53125 -49.3125 2.90625 -51 3 -51.9375 C 3.09375 -52.6875 3.375 -53.71875 3.65625 -54.09375 C 3.84375 -54.5625 4.3125 -55.6875 4.59375 -56.53125 C 5.34375 -59.34375 9.28125 -69.378906 9.46875 -69.191406 C 9.65625 -69.097656 8.71875 -66.28125 7.59375 -62.8125 C 6.46875 -59.4375 5.4375 -55.96875 5.25 -55.3125 C 5.25 -54.65625 4.875 -53.71875 4.59375 -53.0625 C 4.3125 -52.59375 3.5625 -50.15625 2.90625 -47.71875 C 2.25 -45.375 1.40625 -42.375 1.03125 -41.34375 C 0.65625 -40.3125 0 -38.15625 -0.28125 -36.5625 Z M 3.09375 -35.8125 C 2.71875 -34.875 2.34375 -33.9375 2.0625 -33.9375 C 1.78125 -33.9375 1.6875 -34.21875 1.78125 -34.5 C 1.875 -34.875 2.625 -37.21875 3.28125 -39.5625 C 3.9375 -42 5.0625 -45.46875 5.71875 -47.25 C 6.46875 -49.125 6.9375 -50.8125 6.9375 -51 C 6.84375 -51.75 9 -57.46875 9.28125 -57.28125 C 9.375 -57.28125 8.53125 -54.28125 7.3125 -50.625 C 5.25 -44.15625 4.40625 -41.53125 4.03125 -39 C 3.84375 -38.34375 3.375 -36.9375 3.09375 -35.8125 Z M 6.5625 -35.8125 C 6.28125 -35.625 5.71875 -35.34375 5.53125 -35.25 C 5.25 -35.25 5.25 -35.34375 5.625 -35.53125 C 5.8125 -35.625 6.09375 -36.28125 6 -36.9375 C 6 -37.5 6.09375 -38.0625 6.375 -38.25 C 6.5625 -38.4375 7.125 -39.75 7.6875 -41.15625 C 8.0625 -42.5625 8.90625 -43.96875 9.28125 -44.0625 C 10.59375 -44.8125 11.25 -45.375 10.5 -45.84375 C 9.75 -46.21875 11.53125 -49.125 12.46875 -48.84375 C 12.9375 -48.65625 13.03125 -48.75 12.75 -49.40625 C 12.65625 -49.96875 12.75 -50.8125 13.5 -51.65625 C 13.96875 -52.5 14.34375 -52.875 14.53125 -52.59375 C 14.53125 -52.21875 14.71875 -52.125 15 -52.3125 C 15.1875 -52.5 15.1875 -52.875 15 -53.15625 C 14.625 -53.90625 16.21875 -56.71875 17.0625 -56.8125 C 17.34375 -56.8125 17.71875 -57.46875 17.8125 -57.84375 C 18 -59.25 25.3125 -69.191406 29.15625 -73.316406 C 30.65625 -75.097656 32.34375 -76.503906 32.8125 -76.503906 C 33.375 -76.597656 33.65625 -76.503906 33.375 -76.222656 C 33.09375 -76.035156 33 -75.847656 31.78125 -75.660156 C 31.5 -75.566406 31.40625 -75.378906 31.6875 -75.097656 C 31.875 -74.816406 31.6875 -74.441406 31.21875 -74.347656 C 29.625 -73.503906 27 -70.503906 26.625 -68.910156 C 26.34375 -68.0625 25.96875 -67.21875 25.59375 -67.21875 C 25.40625 -67.125 24.65625 -66.5625 24.1875 -65.71875 C 23.625 -64.6875 22.59375 -63.28125 21.9375 -62.25 C 20.4375 -60.46875 16.875 -54.46875 14.8125 -50.8125 C 14.0625 -49.59375 12.46875 -46.78125 11.34375 -44.71875 C 10.125 -42.5625 8.71875 -39.9375 8.25 -38.71875 C 7.6875 -37.59375 7.03125 -36.28125 6.5625 -35.8125 Z M 13.125 -50.25 C 13.03125 -49.59375 13.125 -49.59375 13.59375 -50.0625 C 14.34375 -50.8125 14.34375 -51.09375 13.78125 -51 C 13.5 -51 13.21875 -50.71875 13.125 -50.25 Z M 11.625 -54.46875 C 11.71875 -53.8125 12 -54 12.46875 -55.125 C 12.9375 -56.15625 12.84375 -56.15625 12.1875 -55.5 C 11.90625 -55.125 11.625 -54.65625 11.625 -54.46875 Z M 11.625 -54.46875 "/></g></g></g><g fill="#7e55f2" fill-opacity="1"><g transform="translate(192.119039, 283.93279)"><g><path d="M 62.625 -47.8125 C 61.3125 -46.5 59.90625 -45.1875 58.96875 -44.34375 C 55.78125 -41.15625 51.9375 -37.6875 51.75 -37.78125 C 51.5625 -38.0625 53.4375 -40.125 54 -40.3125 C 54.46875 -40.5 56.15625 -42.46875 55.875 -42.46875 C 55.78125 -42.46875 54.5625 -41.4375 53.15625 -40.125 C 51.84375 -38.90625 50.34375 -37.5 49.78125 -37.125 C 49.21875 -36.75 48.65625 -36.1875 48.375 -36 C 47.4375 -34.96875 43.5 -32.625 43.03125 -32.625 C 42.28125 -32.8125 42.09375 -34.5 42.1875 -42.5625 C 42.375 -58.21875 42.375 -59.53125 41.90625 -60.375 C 41.71875 -60.84375 41.34375 -61.5 41.25 -61.96875 C 40.59375 -63.28125 39.75 -63.9375 38.53125 -63.9375 C 37.59375 -63.9375 37.3125 -64.03125 37.3125 -64.3125 C 37.3125 -64.78125 37.21875 -64.78125 36.46875 -64.59375 C 35.71875 -64.5 35.625 -64.5 35.90625 -64.875 C 36.28125 -65.25 36.375 -65.25 37.21875 -64.875 C 38.15625 -64.5 40.21875 -64.3125 40.5 -64.59375 C 40.875 -64.96875 40.125 -69.285156 39.375 -71.347656 C 38.625 -73.128906 38.25 -73.785156 36.5625 -75.472656 C 35.4375 -76.503906 34.40625 -77.441406 34.21875 -77.441406 C 34.125 -77.441406 33.375 -77.816406 32.71875 -78.378906 C 31.96875 -78.753906 30.75 -79.410156 30.09375 -79.597656 C 28.3125 -80.160156 25.21875 -80.160156 24.1875 -79.597656 C 23.71875 -79.410156 22.78125 -78.941406 21.9375 -78.566406 C 19.875 -77.628906 16.6875 -74.441406 14.4375 -70.972656 C 13.40625 -69.472656 12.46875 -67.96875 12.28125 -67.59375 C 12.09375 -67.3125 11.625 -67.03125 11.34375 -67.03125 C 10.3125 -67.03125 9.84375 -66.46875 8.8125 -64.21875 C 8.34375 -63.09375 7.78125 -62.25 7.6875 -62.25 C 7.5 -62.25 7.125 -61.5 6.75 -60.5625 C 6.28125 -59.625 5.71875 -58.6875 5.4375 -58.40625 C 4.6875 -57.5625 2.0625 -52.5 2.0625 -51.84375 C 2.0625 -51.46875 1.96875 -51.1875 1.875 -51.09375 C 1.59375 -51.09375 -1.03125 -45.46875 -1.03125 -44.90625 C -1.03125 -44.71875 -1.125 -44.4375 -1.21875 -44.34375 C -1.96875 -43.40625 -5.8125 -30.65625 -5.8125 -28.96875 C -5.8125 -28.40625 -4.875 -26.8125 -4.3125 -26.34375 C -4.21875 -26.34375 -3.9375 -25.78125 -3.65625 -25.21875 C -3.46875 -24.5625 -3 -24 -2.71875 -23.90625 C -2.34375 -23.8125 -2.15625 -23.625 -2.15625 -23.53125 C -2.15625 -23.25 0.09375 -22.125 0.5625 -22.125 C 0.65625 -22.125 1.125 -21.84375 1.40625 -21.5625 C 2.15625 -21 2.90625 -21 5.0625 -21.46875 C 5.8125 -21.5625 9 -24.5625 8.8125 -24.9375 C 8.625 -25.03125 8.8125 -25.5 9.09375 -25.875 C 9.46875 -26.25 10.40625 -27.46875 11.15625 -28.5 C 13.125 -31.125 14.4375 -32.625 14.8125 -32.625 C 14.90625 -32.625 15.09375 -32.625 15.09375 -32.8125 C 15.09375 -32.90625 15.65625 -33.65625 16.40625 -34.40625 C 19.3125 -37.5 20.15625 -38.53125 20.15625 -38.625 C 20.15625 -38.90625 22.59375 -41.90625 24.1875 -43.6875 C 24.9375 -44.4375 25.5 -45.1875 25.5 -45.375 C 25.5 -45.5625 26.0625 -46.3125 26.625 -46.96875 C 27.28125 -47.71875 27.75 -48.375 27.75 -48.5625 C 27.75 -48.75 28.03125 -49.03125 28.3125 -49.21875 C 28.59375 -49.40625 28.96875 -49.875 29.15625 -50.34375 C 29.34375 -50.8125 29.625 -51.1875 29.8125 -51.28125 C 30.09375 -51.375 30.65625 -52.125 31.125 -53.0625 C 31.59375 -53.90625 32.4375 -55.125 33 -55.59375 L 33.9375 -56.625 L 33.9375 -47.34375 C 33.9375 -41.8125 34.03125 -37.78125 34.21875 -37.40625 C 34.40625 -36.9375 34.6875 -36.09375 34.875 -35.4375 C 35.0625 -34.78125 35.625 -33.84375 36.1875 -33.375 C 36.75 -32.8125 37.78125 -31.78125 38.53125 -30.9375 C 39.28125 -30.09375 40.40625 -29.0625 41.0625 -28.6875 C 43.21875 -27.46875 45.46875 -26.34375 45.9375 -26.34375 C 46.59375 -26.34375 49.875 -27.5625 50.625 -28.03125 C 51.65625 -28.6875 53.0625 -30.1875 53.25 -30.84375 C 53.34375 -31.125 53.71875 -31.5 54.1875 -31.78125 C 55.125 -32.15625 58.875 -35.625 59.34375 -36.46875 C 59.90625 -37.5 59.4375 -37.5 58.3125 -36.5625 C 56.0625 -34.59375 55.125 -33.84375 54.28125 -33.65625 C 53.90625 -33.46875 53.53125 -33.5625 53.4375 -33.75 C 53.34375 -34.21875 52.875 -34.03125 52.875 -33.46875 C 52.875 -33.09375 52.875 -33.09375 52.59375 -33.46875 C 52.3125 -33.75 52.03125 -33.75 50.53125 -32.90625 C 49.5 -32.4375 48.65625 -32.15625 48.65625 -32.34375 C 48.65625 -32.34375 49.03125 -32.625 49.5 -32.90625 C 50.8125 -33.375 54 -35.8125 54.5625 -36.5625 C 54.84375 -37.125 54.84375 -37.125 54.28125 -36.9375 C 54 -36.65625 53.625 -36.375 53.34375 -36 C 53.0625 -35.71875 52.6875 -35.4375 52.59375 -35.4375 C 52.40625 -35.4375 51.75 -35.0625 51.09375 -34.59375 C 50.4375 -34.125 49.875 -33.75 49.78125 -33.84375 C 49.78125 -33.9375 50.90625 -35.15625 52.59375 -36.75 C 54.09375 -38.25 56.625 -40.6875 58.03125 -42.09375 C 59.53125 -43.5 60.84375 -44.71875 61.03125 -44.71875 C 61.21875 -44.71875 61.40625 -44.90625 61.5 -45.1875 C 61.6875 -45.75 62.625 -46.6875 63.375 -47.15625 C 63.09375 -47.34375 62.90625 -47.625 62.625 -47.8125 Z M 5.25 -54.375 C 8.53125 -60.28125 9.84375 -62.34375 11.8125 -64.3125 C 12.84375 -65.34375 13.6875 -66.09375 13.59375 -65.90625 C 13.3125 -65.53125 12.75 -64.5 9.375 -59.34375 C 8.8125 -58.5 8.25 -57.46875 8.15625 -57.09375 C 8.0625 -56.625 7.875 -56.25 7.6875 -56.25 C 7.59375 -56.25 7.40625 -56.0625 7.40625 -55.875 C 7.40625 -55.5 7.3125 -55.40625 7.03125 -55.59375 C 6.65625 -55.6875 6.5625 -55.59375 6.75 -55.21875 C 6.9375 -54.5625 5.25 -51.5625 4.875 -52.03125 C 4.78125 -52.21875 4.59375 -52.3125 4.59375 -52.21875 C 4.59375 -52.03125 4.40625 -51.5625 4.03125 -51.1875 C 3 -49.875 3.5625 -51.28125 5.25 -54.375 Z M 4.3125 -50.0625 C 4.3125 -49.96875 4.21875 -49.78125 4.03125 -49.78125 C 3.65625 -49.78125 3.65625 -49.96875 4.03125 -50.25 C 4.21875 -50.25 4.3125 -50.25 4.3125 -50.0625 Z M -2.8125 -33.1875 L -3.28125 -32.4375 L -3.09375 -33.28125 C -3 -33.75 -2.8125 -34.3125 -2.625 -34.59375 C -2.53125 -34.875 -2.4375 -34.875 -2.4375 -34.40625 C -2.4375 -34.125 -2.625 -33.46875 -2.8125 -33.1875 Z M -1.40625 -28.78125 C -1.6875 -28.3125 -1.875 -28.21875 -1.875 -28.6875 C -1.875 -28.78125 -1.6875 -28.96875 -1.59375 -29.0625 C -1.40625 -29.15625 -1.40625 -29.0625 -1.40625 -28.78125 Z M -0.5625 -39.28125 C -0.46875 -40.03125 -0.46875 -39.9375 -0.84375 -39.1875 C -1.3125 -38.0625 -1.40625 -37.21875 -1.03125 -37.5 C -0.84375 -37.59375 -0.9375 -37.21875 -1.125 -36.65625 C -1.3125 -36 -1.40625 -35.8125 -1.5 -36.1875 C -1.59375 -36.5625 -1.6875 -36.46875 -1.96875 -35.8125 C -2.71875 -34.125 -2.34375 -35.71875 -1.21875 -39.1875 C 0.84375 -45.375 3.09375 -50.625 3.375 -50.25 C 3.5625 -50.15625 3.375 -49.6875 3.09375 -49.125 C 2.53125 -47.8125 1.5 -45.5625 1.5 -45.1875 C 1.5 -45.09375 1.6875 -45.09375 1.78125 -45.1875 C 2.25 -45.46875 2.15625 -44.90625 1.5 -43.40625 C 1.125 -42.75 0.75 -42.09375 0.5625 -42 C 0.28125 -41.90625 0.09375 -41.71875 0.09375 -41.53125 C 0.09375 -41.4375 0.28125 -41.4375 0.375 -41.4375 C 0.5625 -41.53125 0.5625 -41.34375 0.375 -40.875 C -0.1875 -38.71875 -0.84375 -37.6875 -0.5625 -39.28125 Z M 2.90625 -47.25 C 2.90625 -47.0625 2.71875 -46.5 2.53125 -46.125 L 2.0625 -45.46875 L 2.25 -46.125 C 2.34375 -46.5 2.53125 -47.0625 2.71875 -47.25 C 2.90625 -47.625 2.90625 -47.625 2.90625 -47.25 Z M 2.90625 -41.71875 C 2.8125 -41.0625 2.53125 -40.03125 2.25 -39.75 C 2.0625 -39.28125 1.5 -37.78125 1.03125 -36.28125 C -0.09375 -32.90625 -0.46875 -32.34375 -0.375 -33.75 C -0.28125 -34.3125 -0.28125 -34.875 -0.09375 -34.875 C 0.09375 -34.875 0.46875 -35.90625 0.5625 -37.125 C 0.65625 -37.6875 0.84375 -38.15625 0.9375 -38.15625 C 1.125 -38.25 1.21875 -38.53125 1.21875 -38.90625 C 1.21875 -39.65625 2.0625 -41.90625 2.4375 -41.90625 C 2.53125 -41.90625 2.53125 -42 2.53125 -42.28125 C 2.34375 -42.65625 3.9375 -46.21875 4.21875 -45.9375 C 4.21875 -45.84375 4.21875 -46.03125 4.21875 -46.3125 C 4.125 -46.59375 4.40625 -47.25 4.875 -48 C 5.4375 -48.5625 5.71875 -49.125 5.8125 -49.21875 C 5.90625 -50.0625 6.09375 -50.8125 6.46875 -51.28125 C 6.75 -51.65625 6.84375 -51.75 6.84375 -51.65625 C 6.84375 -51.46875 7.03125 -51.5625 7.125 -51.75 C 7.3125 -51.9375 7.40625 -52.5 7.3125 -52.78125 C 7.125 -53.0625 7.21875 -53.25 7.40625 -53.15625 C 7.59375 -52.875 8.34375 -54.375 8.4375 -55.125 C 8.4375 -55.40625 8.625 -55.59375 8.8125 -55.5 C 9 -55.40625 9.09375 -55.6875 9 -55.96875 C 8.8125 -56.25 8.90625 -56.25 9.09375 -56.15625 C 9.28125 -56.0625 9.375 -56.15625 9.375 -56.25 C 9.375 -56.53125 9.65625 -56.90625 9.9375 -57.375 C 10.3125 -57.65625 10.5 -58.21875 10.5 -58.59375 C 10.5 -58.875 10.78125 -59.0625 10.96875 -59.0625 C 11.34375 -59.0625 11.8125 -59.90625 11.53125 -60.1875 C 11.4375 -60.375 11.625 -60.46875 11.90625 -60.46875 C 12.09375 -60.46875 12.1875 -60.65625 12.1875 -60.84375 C 12.09375 -61.03125 12.1875 -61.3125 12.46875 -61.3125 C 12.9375 -61.3125 12.84375 -61.125 12.28125 -60.1875 C 10.40625 -57.1875 5.71875 -48.1875 5.0625 -46.3125 C 4.875 -45.75 4.3125 -44.90625 3.9375 -44.25 C 3.5625 -43.59375 3.09375 -42.46875 2.90625 -41.71875 Z M 7.5 -32.8125 C 7.3125 -32.53125 7.03125 -32.34375 6.84375 -32.34375 C 6.46875 -32.34375 6.5625 -32.625 7.21875 -32.90625 C 7.78125 -33.1875 7.875 -33.1875 7.5 -32.8125 Z M 8.71875 -34.3125 C 8.4375 -34.6875 8.8125 -34.96875 9.1875 -34.59375 C 9.375 -34.40625 9.375 -34.3125 9.1875 -34.125 C 9.09375 -34.03125 8.8125 -34.125 8.71875 -34.3125 Z M 32.90625 -58.3125 C 32.4375 -57.9375 31.6875 -56.8125 31.125 -55.96875 C 30.65625 -55.03125 30 -54 29.71875 -53.8125 C 29.53125 -53.53125 28.96875 -52.875 28.6875 -52.3125 C 28.125 -51.375 27.09375 -50.15625 26.15625 -49.125 C 25.3125 -48.1875 22.3125 -44.25 21.5625 -42.84375 C 20.8125 -41.625 16.3125 -36.65625 12.65625 -33.09375 C 8.25 -28.6875 7.5 -28.6875 11.8125 -33.1875 C 13.40625 -34.78125 15.65625 -37.21875 16.875 -38.625 C 18.9375 -41.0625 25.125 -49.03125 26.0625 -50.53125 C 27.28125 -52.21875 33.28125 -60.1875 33.46875 -60.1875 C 34.03125 -60.1875 33.65625 -59.0625 32.90625 -58.3125 Z M 33.9375 -66.46875 C 33.65625 -65.90625 33.28125 -65.625 33.09375 -65.625 C 33 -65.625 32.8125 -65.25 32.8125 -64.875 C 32.8125 -64.5 32.4375 -63.75 31.875 -63.1875 C 31.3125 -62.625 30.84375 -61.96875 30.84375 -61.78125 C 30.84375 -61.6875 30.65625 -61.125 30.375 -60.84375 C 30.09375 -60.46875 29.53125 -59.90625 29.25 -59.53125 C 28.96875 -59.15625 28.6875 -58.875 28.5 -59.0625 C 28.40625 -59.0625 28.3125 -59.0625 28.40625 -58.78125 C 28.59375 -58.21875 27.84375 -56.8125 27.46875 -57 C 27.28125 -57.09375 27 -56.625 26.71875 -55.96875 C 26.4375 -55.40625 26.0625 -54.84375 25.78125 -54.75 C 25.5 -54.65625 25.21875 -54.28125 25.21875 -54.09375 C 25.21875 -53.8125 25.03125 -53.4375 24.65625 -53.25 C 24.375 -53.0625 24.09375 -52.78125 24.09375 -52.59375 C 24.09375 -52.40625 23.8125 -52.03125 23.34375 -51.65625 C 23.0625 -51.375 22.78125 -51.09375 22.875 -50.8125 C 22.96875 -50.71875 22.78125 -50.34375 22.5 -50.0625 C 22.125 -49.78125 21.84375 -49.40625 21.84375 -49.125 C 21.84375 -48.9375 21.65625 -48.65625 21.375 -48.5625 C 21.1875 -48.46875 21 -48.1875 21 -48 C 21 -47.71875 20.8125 -47.53125 20.53125 -47.53125 C 20.34375 -47.53125 20.15625 -47.25 20.15625 -46.875 C 20.15625 -46.03125 20.15625 -46.03125 21.28125 -47.15625 C 21.9375 -47.8125 22.40625 -48.375 22.40625 -48.5625 C 22.40625 -48.5625 22.78125 -49.125 23.15625 -49.78125 C 23.53125 -50.34375 23.8125 -51 23.625 -51.1875 C 23.625 -51.375 23.71875 -51.46875 24.09375 -51.46875 C 24.375 -51.46875 24.84375 -51.84375 25.03125 -52.21875 C 25.78125 -53.34375 29.53125 -58.3125 29.90625 -58.78125 C 30.09375 -58.96875 30.28125 -59.25 30.28125 -59.34375 C 30.28125 -59.625 30.84375 -60.28125 31.59375 -61.03125 C 32.25 -61.6875 32.8125 -62.53125 32.8125 -62.71875 C 32.8125 -62.90625 33 -63.09375 33.09375 -63.09375 C 33.46875 -63.09375 33.75 -62.25 33.5625 -61.875 C 33.28125 -61.40625 29.8125 -56.8125 28.78125 -55.59375 C 28.40625 -55.125 27.5625 -54 27 -53.0625 C 24.46875 -49.5 23.8125 -48.5625 22.96875 -47.71875 C 22.5 -47.25 22.125 -46.78125 22.125 -46.6875 C 22.125 -46.59375 21.46875 -45.75 20.71875 -44.625 C 19.875 -43.6875 19.125 -42.5625 18.84375 -42.28125 C 17.71875 -40.875 12.75 -35.4375 10.96875 -33.65625 C 9.5625 -32.34375 9 -31.875 8.90625 -32.25 C 8.8125 -32.4375 9 -32.8125 9.28125 -32.90625 C 9.46875 -33.09375 9.65625 -33.375 9.65625 -33.5625 C 9.65625 -33.75 10.03125 -34.21875 10.5 -34.5 C 10.875 -34.78125 11.34375 -35.15625 11.53125 -35.4375 C 11.625 -35.625 12 -36.09375 12.375 -36.375 C 13.59375 -37.59375 15.375 -39.9375 15.375 -40.21875 C 15.375 -40.3125 15.75 -40.78125 16.21875 -41.15625 C 16.6875 -41.4375 17.0625 -41.90625 17.0625 -42 C 17.0625 -42.28125 17.25 -42.46875 17.4375 -42.5625 C 17.71875 -42.65625 17.90625 -42.9375 17.90625 -43.21875 C 17.90625 -43.59375 18.1875 -43.875 18.46875 -43.96875 C 19.03125 -44.0625 19.3125 -45 18.65625 -45 C 18.1875 -45 16.5 -43.03125 16.6875 -42.65625 C 16.78125 -42.46875 16.5 -42.1875 16.125 -42 C 15.75 -41.90625 15.5625 -41.53125 15.5625 -41.25 C 15.5625 -40.875 15.46875 -40.78125 15.1875 -40.875 C 15 -40.96875 14.8125 -40.875 14.8125 -40.875 C 14.8125 -40.6875 14.4375 -40.21875 13.96875 -39.75 C 13.3125 -39 12.84375 -38.90625 12.375 -38.90625 C 11.90625 -39.09375 11.625 -39 11.53125 -38.53125 C 11.4375 -38.25 10.78125 -37.3125 9.9375 -36.65625 C 9.09375 -35.8125 7.78125 -34.59375 6.84375 -33.75 C 6 -32.90625 5.0625 -31.96875 4.78125 -31.78125 C 4.3125 -31.3125 4.21875 -31.40625 4.5 -32.0625 C 4.59375 -32.34375 4.875 -33.1875 5.15625 -33.65625 C 5.34375 -34.21875 5.4375 -34.875 5.4375 -35.0625 C 5.4375 -35.34375 5.90625 -36.375 6.28125 -37.21875 C 6.84375 -38.0625 7.125 -39.09375 7.125 -39.28125 C 7.125 -39.75 8.0625 -41.71875 11.71875 -49.21875 C 14.4375 -54.5625 17.90625 -60.375 20.4375 -63.65625 C 21.28125 -64.6875 22.78125 -66.46875 23.625 -67.6875 C 24.5625 -68.910156 26.15625 -70.503906 27 -71.347656 C 28.96875 -73.035156 31.40625 -74.722656 31.59375 -74.535156 C 31.96875 -74.160156 33.9375 -69.753906 34.21875 -68.628906 C 34.5 -67.3125 34.5 -67.125 33.9375 -66.46875 Z M 10.5 -36.65625 C 10.78125 -36.9375 10.96875 -37.125 11.0625 -37.125 C 11.0625 -37.125 11.0625 -36.9375 10.96875 -36.65625 C 10.875 -36.46875 10.6875 -36.28125 10.5 -36.28125 C 10.3125 -36.28125 10.3125 -36.46875 10.5 -36.65625 Z M 11.90625 -38.0625 C 11.90625 -38.34375 12.09375 -38.4375 12.1875 -38.34375 C 12.46875 -38.34375 12.46875 -38.0625 12.46875 -37.96875 C 12.46875 -37.78125 12.46875 -37.6875 12.1875 -37.6875 C 12.09375 -37.6875 11.90625 -37.875 11.90625 -38.0625 Z M 36.65625 -36.375 C 36.28125 -36 35.90625 -45.46875 36.1875 -48.28125 C 36.375 -49.40625 36.46875 -47.53125 36.65625 -43.125 C 36.65625 -39.46875 36.75 -36.375 36.65625 -36.375 Z M 64.40625 -46.40625 C 62.625 -44.53125 60.9375 -42.84375 60.5625 -42.46875 C 59.25 -40.875 61.40625 -42.75 64.96875 -46.03125 C 64.78125 -46.125 64.59375 -46.3125 64.40625 -46.40625 Z M 64.40625 -46.40625 "/></g></g></g><g fill="#7e55f2" fill-opacity="1"><g transform="translate(250.987064, 283.93279)"><g><path d="M 9.09375 -18.75 C 11.34375 -17.625 14.25 -17.90625 17.8125 -19.59375 C 21.28125 -21.1875 24.46875 -24.375 27 -28.6875 C 27.46875 -29.4375 28.125 -30.5625 28.5 -31.125 C 29.8125 -33.28125 31.03125 -35.4375 31.21875 -36.28125 C 31.5 -37.125 33.46875 -41.34375 34.40625 -43.3125 C 34.6875 -43.96875 35.25 -45 35.53125 -45.84375 C 35.90625 -46.59375 36.375 -47.53125 36.5625 -48 C 36.75 -48.46875 37.21875 -49.3125 37.5 -50.0625 C 37.78125 -50.625 38.0625 -51.28125 38.0625 -51.46875 C 38.0625 -51.5625 38.4375 -52.5 38.90625 -53.4375 C 40.125 -56.25 42.65625 -64.21875 42.75 -65.625 C 42.84375 -66.375 42.9375 -67.125 43.03125 -67.40625 C 43.125 -67.6875 43.59375 -69.097656 44.0625 -70.597656 C 44.4375 -72.191406 45 -74.066406 45.28125 -74.816406 C 45.46875 -75.660156 45.75 -76.503906 45.75 -76.878906 C 45.75 -77.160156 46.03125 -78.378906 46.3125 -79.503906 C 47.15625 -82.691406 47.15625 -86.816406 46.125 -88.878906 C 45.84375 -89.535156 43.5 -90.753906 41.34375 -91.410156 C 38.53125 -92.253906 36.9375 -92.160156 35.0625 -91.222656 C 34.21875 -90.753906 33.5625 -90.285156 33.65625 -90.191406 C 33.75 -90.191406 34.125 -90.191406 34.40625 -90.378906 C 34.875 -90.566406 35.15625 -90.660156 35.34375 -90.378906 C 35.53125 -90.285156 35.90625 -90.191406 36.1875 -90.191406 C 36.46875 -90.191406 36.9375 -90.003906 37.3125 -89.816406 C 37.6875 -89.722656 38.15625 -89.535156 38.34375 -89.347656 C 39.375 -88.878906 39.84375 -84.753906 39.1875 -81.472656 C 38.53125 -77.816406 37.6875 -74.347656 37.21875 -72.753906 C 36.9375 -71.910156 36.5625 -70.878906 36.5625 -70.597656 C 36.09375 -68.722656 34.6875 -64.21875 34.40625 -64.125 C 34.3125 -64.03125 34.125 -63.46875 34.03125 -62.8125 C 33.84375 -62.25 33.65625 -61.5 33.46875 -61.125 C 33.28125 -60.84375 33 -60.375 33 -60.09375 C 33 -59.8125 32.90625 -59.53125 32.8125 -59.4375 C 32.71875 -59.34375 32.4375 -58.78125 32.15625 -58.03125 C 31.78125 -57 31.3125 -55.78125 29.25 -51.65625 C 28.96875 -51.09375 28.6875 -50.4375 28.6875 -50.25 C 28.78125 -50.0625 28.6875 -49.96875 28.5 -49.96875 C 28.40625 -49.96875 28.21875 -49.78125 28.21875 -49.59375 C 28.21875 -49.3125 27.5625 -47.71875 26.0625 -44.71875 C 25.78125 -44.15625 25.40625 -43.6875 25.21875 -43.6875 C 25.03125 -43.6875 24.9375 -43.59375 25.03125 -43.40625 C 25.21875 -42.84375 24.1875 -40.96875 23.8125 -41.0625 C 23.625 -41.15625 23.4375 -41.0625 23.4375 -40.875 C 23.4375 -40.78125 23.625 -40.59375 23.71875 -40.59375 C 24.1875 -40.59375 23.625 -39.75 22.96875 -39.5625 C 22.40625 -39.375 22.3125 -39.1875 22.40625 -38.8125 C 22.59375 -37.96875 21.84375 -36.5625 21.09375 -36.375 C 20.625 -36.28125 20.53125 -36.1875 20.8125 -36 C 21.28125 -35.71875 20.90625 -34.96875 19.40625 -33.1875 C 18.9375 -32.625 18.09375 -31.40625 17.53125 -30.65625 C 16.3125 -28.78125 15.84375 -28.3125 15.5625 -28.6875 C 15.375 -28.875 15.09375 -28.6875 14.71875 -28.125 C 13.96875 -26.90625 10.3125 -24.28125 9.5625 -24.28125 C 9 -24.28125 8.25 -35.0625 8.8125 -36.375 C 8.90625 -36.75 8.90625 -37.21875 8.8125 -37.59375 C 8.625 -37.96875 8.625 -38.34375 8.8125 -38.4375 C 8.8125 -38.4375 9.09375 -39.5625 9.09375 -40.6875 C 9.28125 -41.8125 9.375 -43.125 9.46875 -43.59375 C 9.5625 -44.0625 9.65625 -45.1875 9.75 -46.21875 C 9.84375 -47.15625 10.21875 -49.21875 10.59375 -50.625 C 11.0625 -52.125 11.25 -53.4375 11.15625 -53.625 C 11.0625 -53.71875 11.15625 -53.90625 11.34375 -54 C 11.4375 -54 11.53125 -54.46875 11.4375 -54.75 C 11.34375 -55.03125 11.53125 -56.34375 11.8125 -57.46875 C 12.1875 -58.6875 12.46875 -60.28125 12.5625 -60.9375 C 12.65625 -61.6875 13.03125 -63.09375 13.3125 -64.125 C 13.59375 -65.0625 13.875 -66.65625 14.15625 -67.59375 C 14.25 -68.535156 14.53125 -69.847656 14.71875 -70.597656 C 15 -71.910156 16.21875 -74.816406 17.34375 -76.972656 C 18.46875 -78.847656 18.28125 -79.222656 16.6875 -80.722656 C 15.84375 -81.378906 15.09375 -81.847656 14.8125 -81.847656 C 14.625 -81.847656 13.875 -82.128906 13.3125 -82.410156 C 12.09375 -83.066406 9.9375 -82.972656 8.53125 -82.128906 C 7.96875 -81.847656 7.3125 -81.566406 7.125 -81.566406 C 6.84375 -81.566406 6.5625 -81.191406 6.375 -80.535156 C 6.1875 -79.878906 6 -79.222656 5.90625 -79.035156 C 5.90625 -78.847656 5.90625 -78.660156 6.1875 -78.660156 C 6.375 -78.753906 6.5625 -78.660156 6.5625 -78.472656 C 6.5625 -78.378906 6.28125 -78.191406 5.90625 -78.191406 C 5.625 -78.191406 5.34375 -78.003906 5.34375 -77.722656 C 5.34375 -77.347656 5.53125 -77.253906 5.8125 -77.347656 C 6.09375 -77.441406 6.28125 -77.347656 6.28125 -76.878906 C 6.28125 -76.503906 6.09375 -76.128906 5.90625 -76.035156 C 5.8125 -75.941406 5.625 -75.660156 5.71875 -75.566406 C 5.71875 -75.378906 5.625 -74.722656 5.34375 -74.066406 C 5.15625 -73.410156 5.0625 -72.753906 4.96875 -72.472656 C 4.875 -72.191406 4.78125 -71.722656 4.59375 -71.441406 C 4.5 -71.066406 4.40625 -70.597656 4.3125 -70.410156 C 4.03125 -69.191406 3.65625 -66.84375 3.5625 -66.46875 C 3.5625 -66.1875 3.375 -65.625 3.375 -65.15625 C 3.1875 -64.6875 3.09375 -64.03125 3 -63.5625 C 2.71875 -62.0625 1.96875 -58.875 1.6875 -57.375 C 1.5 -56.53125 1.40625 -55.5 1.3125 -55.3125 C 1.3125 -55.03125 1.125 -54.09375 0.9375 -53.34375 C 0.84375 -52.59375 0.5625 -51 0.28125 -49.78125 C 0.1875 -48.65625 -0.09375 -46.96875 -0.28125 -46.03125 C -0.375 -45.1875 -0.5625 -43.6875 -0.65625 -42.84375 C -0.75 -42 -0.84375 -40.59375 -1.03125 -39.84375 C -1.125 -39.09375 -1.125 -35.90625 -1.21875 -32.8125 C -1.40625 -27.09375 -1.125 -25.03125 -0.09375 -24 C 0.09375 -23.8125 0.28125 -23.34375 0.46875 -23.0625 C 0.65625 -22.40625 2.25 -21.1875 3.28125 -21 C 3.75 -20.90625 4.5 -20.625 4.96875 -20.25 C 5.4375 -19.96875 6.28125 -19.59375 6.84375 -19.5 C 7.40625 -19.40625 8.34375 -19.03125 9.09375 -18.75 Z M 7.40625 -23.90625 C 7.5 -23.625 7.40625 -23.34375 7.125 -23.34375 C 6.9375 -23.25 6.84375 -23.4375 6.84375 -24 C 6.84375 -24.375 6.75 -25.3125 6.5625 -26.0625 C 6.1875 -27.75 6.1875 -30.84375 6.375 -35.8125 C 6.5625 -37.6875 6.5625 -39.65625 6.5625 -40.21875 C 6.5625 -40.78125 6.75 -41.8125 6.9375 -42.65625 C 7.125 -43.3125 7.40625 -44.0625 7.3125 -44.15625 C 7.21875 -44.53125 7.6875 -46.59375 7.96875 -46.6875 C 8.25 -46.875 7.96875 -44.34375 7.6875 -43.125 C 7.40625 -42.375 7.125 -39 6.9375 -34.3125 C 6.84375 -33 7.21875 -25.875 7.40625 -23.90625 Z M 2.8125 -28.96875 C 3.09375 -28.875 3.09375 -28.5 3.09375 -28.125 C 3 -27.46875 2.53125 -27.75 2.53125 -28.59375 C 2.53125 -29.15625 2.625 -29.25 2.8125 -28.96875 Z M 2.71875 -32.15625 C 2.8125 -31.40625 2.8125 -30.65625 2.8125 -30.65625 C 2.71875 -30.5625 2.53125 -31.125 2.4375 -31.96875 C 2.34375 -32.8125 2.25 -33.46875 2.34375 -33.5625 C 2.4375 -33.65625 2.625 -33 2.71875 -32.15625 Z M 25.6875 -35.0625 C 25.40625 -34.5 24.84375 -33.65625 24.46875 -33.1875 C 23.90625 -32.8125 23.8125 -32.625 23.90625 -33 C 24.09375 -33.1875 24.28125 -33.84375 24.375 -34.40625 C 24.46875 -34.875 25.3125 -36.5625 26.15625 -38.15625 C 27.84375 -41.4375 33.09375 -52.125 33.46875 -53.0625 C 33.5625 -53.4375 34.03125 -54.375 34.40625 -55.125 C 36.09375 -58.6875 39.09375 -66.9375 40.5 -72.097656 C 42 -77.722656 42.65625 -81.378906 43.03125 -86.441406 C 43.03125 -87.097656 43.21875 -87.660156 43.3125 -87.660156 C 43.5 -87.660156 43.78125 -87.003906 43.96875 -86.253906 C 44.4375 -84.472656 44.25 -81.941406 43.21875 -77.441406 C 43.03125 -76.785156 42.84375 -75.847656 42.75 -75.285156 C 42.375 -72.941406 42.28125 -72.097656 42.09375 -71.910156 C 41.71875 -71.441406 40.875 -67.6875 40.96875 -67.21875 C 41.15625 -67.03125 40.96875 -66.84375 40.78125 -66.65625 C 40.59375 -66.65625 40.3125 -66.375 40.3125 -66 C 40.3125 -65.8125 40.21875 -65.4375 40.03125 -65.34375 C 40.03125 -65.34375 39.75 -64.78125 39.65625 -64.125 C 39.5625 -63.46875 39.28125 -62.8125 39.09375 -62.625 C 38.90625 -62.4375 38.625 -62.0625 38.625 -61.6875 C 38.625 -61.40625 38.53125 -60.9375 38.4375 -60.65625 C 37.5 -58.875 36.65625 -57.1875 36.65625 -56.71875 C 36.65625 -56.53125 36.375 -55.6875 36.09375 -55.03125 C 34.5 -52.03125 34.125 -51.28125 34.125 -51 C 34.125 -50.8125 33.9375 -50.34375 33.65625 -50.0625 C 33.375 -49.59375 33 -48.75 32.71875 -48.09375 C 32.4375 -47.0625 30.46875 -43.125 29.90625 -42.1875 C 29.8125 -42 28.96875 -40.59375 28.21875 -39.09375 C 27.46875 -37.6875 26.71875 -36.375 26.53125 -36.375 C 26.4375 -36.28125 26.0625 -35.71875 25.6875 -35.0625 Z M 1.5 -35.90625 C 1.59375 -35.90625 1.5 -35.34375 1.40625 -34.875 L 1.3125 -33.84375 L 0.9375 -34.59375 C 0.65625 -35.15625 0.65625 -35.34375 1.03125 -35.71875 C 1.21875 -35.90625 1.40625 -36 1.5 -35.90625 Z M 2.8125 -35.0625 C 2.71875 -34.875 2.53125 -34.5 2.53125 -34.3125 C 1.96875 -32.71875 2.8125 -43.3125 3.375 -47.0625 C 3.65625 -48.09375 3.75 -49.40625 3.84375 -49.78125 C 3.9375 -51.28125 4.3125 -52.78125 4.5 -52.96875 C 4.6875 -52.96875 4.6875 -53.4375 4.59375 -53.8125 C 4.5 -54.28125 4.5 -54.46875 4.78125 -54.09375 C 5.0625 -53.71875 5.0625 -52.96875 4.5 -49.40625 C 4.3125 -48.375 4.21875 -47.15625 4.21875 -46.875 C 4.21875 -46.5 4.03125 -46.03125 3.9375 -45.84375 C 3.75 -45.75 3.75 -45.5625 3.9375 -45.375 C 4.125 -45.375 4.21875 -45.1875 4.125 -45 C 3.9375 -44.8125 3.1875 -38.34375 3.09375 -36.5625 C 3.09375 -35.90625 2.90625 -35.15625 2.8125 -35.0625 Z M 22.59375 -34.78125 C 22.59375 -34.3125 22.40625 -34.3125 22.125 -34.6875 C 22.125 -34.78125 22.125 -34.96875 22.3125 -35.0625 C 22.40625 -35.0625 22.59375 -35.0625 22.59375 -34.78125 Z M 23.71875 -36.46875 C 23.71875 -36.375 23.625 -36.1875 23.4375 -36.1875 C 23.34375 -36.1875 23.15625 -36.375 23.15625 -36.46875 C 23.15625 -36.5625 23.34375 -36.75 23.4375 -36.75 C 23.625 -36.75 23.71875 -36.5625 23.71875 -36.46875 Z M 1.59375 -37.6875 C 1.6875 -37.59375 1.6875 -37.40625 1.6875 -37.21875 C 1.5 -37.03125 1.5 -37.03125 1.40625 -37.40625 C 1.40625 -37.59375 1.5 -37.78125 1.59375 -37.6875 Z M 24.28125 -37.96875 C 24.28125 -37.78125 24.09375 -37.40625 23.90625 -37.21875 C 23.34375 -36.84375 23.34375 -37.21875 23.90625 -37.875 C 24.1875 -38.34375 24.28125 -38.34375 24.28125 -37.96875 Z M 26.15625 -40.40625 C 25.59375 -39.375 24.9375 -38.53125 24.75 -38.53125 C 24.1875 -38.53125 24.1875 -39.1875 24.5625 -39.46875 C 24.75 -39.5625 24.84375 -39.9375 25.03125 -40.21875 C 25.03125 -40.59375 25.59375 -41.8125 26.15625 -42.75 C 26.625 -43.78125 27.375 -45.375 27.84375 -46.3125 C 28.21875 -47.25 29.25 -49.40625 30.09375 -51.09375 C 30.9375 -52.78125 31.96875 -55.3125 32.4375 -56.53125 C 33 -57.84375 33.46875 -59.0625 33.5625 -59.34375 C 33.75 -59.625 33.84375 -60.09375 33.84375 -60.375 C 33.84375 -60.75 34.125 -61.125 34.3125 -61.40625 C 34.5 -61.5 34.6875 -61.96875 34.875 -62.34375 C 34.96875 -62.71875 35.4375 -64.21875 35.8125 -65.625 C 36.375 -67.03125 36.9375 -69.097656 37.21875 -70.035156 C 37.59375 -71.066406 37.96875 -72.285156 38.0625 -72.753906 C 38.34375 -73.128906 38.625 -74.441406 38.8125 -75.566406 C 39 -76.691406 39.375 -78.378906 39.65625 -79.410156 C 39.84375 -80.347656 40.125 -82.410156 40.3125 -83.910156 C 40.40625 -85.972656 40.59375 -86.722656 40.96875 -87.003906 C 41.25 -87.285156 41.25 -87.285156 40.875 -87.660156 C 40.3125 -88.035156 40.21875 -88.316406 40.6875 -88.316406 C 41.25 -88.316406 41.8125 -86.722656 41.8125 -84.472656 C 41.8125 -81.847656 41.625 -80.160156 41.34375 -79.785156 C 41.25 -79.691406 41.15625 -78.847656 40.96875 -78.003906 C 40.96875 -77.160156 40.6875 -76.222656 40.5 -75.753906 C 40.3125 -75.285156 40.03125 -74.441406 39.9375 -73.785156 C 39.75 -72.285156 38.625 -68.816406 38.34375 -68.535156 C 38.25 -68.347656 38.0625 -67.96875 38.0625 -67.6875 C 38.0625 -67.3125 37.96875 -66.84375 37.78125 -66.65625 C 37.6875 -66.375 37.40625 -65.4375 37.125 -64.59375 C 36.84375 -63.75 36.28125 -62.15625 35.8125 -61.125 C 35.34375 -60 34.96875 -59.0625 34.96875 -58.875 C 34.96875 -58.6875 34.40625 -57.1875 33.5625 -55.6875 C 32.8125 -54 32.15625 -52.6875 32.15625 -52.5 C 32.15625 -52.3125 31.5 -50.90625 30.65625 -49.21875 C 29.71875 -47.53125 28.59375 -45.28125 28.125 -44.25 C 27.5625 -43.125 26.71875 -41.4375 26.15625 -40.40625 Z M 1.96875 -41.15625 C 1.96875 -40.96875 1.875 -40.875 1.6875 -40.875 C 1.59375 -40.875 1.40625 -40.96875 1.40625 -41.15625 C 1.40625 -41.25 1.59375 -41.4375 1.6875 -41.4375 C 1.875 -41.4375 1.96875 -41.25 1.96875 -41.15625 Z M 2.25 -42.5625 C 2.25 -42.46875 2.15625 -42.375 1.96875 -42.28125 C 1.875 -42.28125 1.6875 -42.28125 1.6875 -42.46875 C 1.6875 -42.5625 1.875 -42.65625 1.96875 -42.65625 C 2.15625 -42.65625 2.25 -42.65625 2.25 -42.5625 Z M 2.53125 -45.9375 C 2.53125 -44.53125 2.25 -42.84375 1.96875 -43.125 C 1.78125 -43.21875 1.78125 -43.6875 1.96875 -44.34375 C 2.0625 -45.09375 1.96875 -45.28125 1.78125 -45.1875 C 1.5 -45 1.40625 -45.28125 1.40625 -45.9375 C 1.40625 -46.6875 1.5 -46.875 1.875 -46.59375 C 2.15625 -46.40625 2.25 -46.40625 2.34375 -46.6875 C 2.4375 -46.875 2.53125 -46.5 2.53125 -45.9375 Z M 1.875 -48.09375 C 1.96875 -48 1.96875 -47.71875 1.96875 -47.53125 C 1.78125 -47.34375 1.78125 -47.4375 1.6875 -47.71875 C 1.6875 -48 1.78125 -48.09375 1.875 -48.09375 Z M 3.09375 -48.84375 C 3.09375 -48.1875 2.71875 -47.25 2.53125 -47.53125 C 2.25 -47.71875 2.53125 -49.21875 2.8125 -49.21875 C 3 -49.21875 3.09375 -49.03125 3.09375 -48.84375 Z M 2.53125 -51.28125 C 2.53125 -50.90625 2.4375 -50.34375 2.25 -50.0625 L 2.0625 -49.59375 L 2.0625 -50.0625 C 2.0625 -50.34375 2.15625 -50.90625 2.25 -51.28125 L 2.53125 -51.9375 Z M 3.28125 -49.96875 C 3.375 -49.78125 3.375 -49.6875 3.09375 -49.6875 C 3 -49.6875 2.8125 -49.78125 2.8125 -49.96875 C 2.8125 -50.0625 2.90625 -50.25 3 -50.25 C 3.09375 -50.25 3.1875 -50.0625 3.28125 -49.96875 Z M 5.53125 -56.71875 C 5.34375 -55.6875 4.875 -54.46875 4.78125 -54.84375 C 4.78125 -55.6875 5.53125 -59.25 5.71875 -59.25 C 5.90625 -59.25 5.90625 -58.875 5.8125 -58.3125 C 5.625 -57.84375 5.53125 -57 5.53125 -56.71875 Z M 6.375 -60.84375 C 6.09375 -60.09375 5.625 -59.53125 5.625 -60.09375 C 5.625 -60.375 5.90625 -60.75 6.09375 -60.9375 C 6.5625 -61.5 6.5625 -61.5 6.375 -60.84375 Z M 6.5625 -62.625 C 6.375 -61.59375 6.28125 -61.3125 6.28125 -62.15625 C 6.28125 -62.53125 6.375 -63 6.5625 -63.1875 C 6.75 -63.46875 6.75 -63.28125 6.5625 -62.625 Z M 6.9375 -79.503906 C 7.03125 -79.410156 6.9375 -79.222656 6.84375 -79.128906 C 6.65625 -79.035156 6.5625 -79.128906 6.5625 -79.410156 C 6.5625 -79.878906 6.65625 -79.878906 6.9375 -79.503906 Z M 6.9375 -79.503906 "/></g></g></g><g fill="#7e55f2" fill-opacity="1"><g transform="translate(295.794253, 283.93279)"><g><path d="M 52.21875 -49.3125 C 52.40625 -50.15625 52.40625 -51.09375 52.3125 -52.03125 C 52.125 -51.75 51.9375 -51.46875 51.75 -51.09375 C 51.1875 -50.25 50.53125 -49.21875 50.15625 -48.65625 C 49.96875 -48.09375 48.75 -46.125 47.4375 -44.34375 C 46.21875 -42.46875 45.09375 -40.59375 44.90625 -40.3125 C 44.71875 -39.9375 44.25 -39.46875 43.875 -39.28125 C 43.40625 -39.1875 43.125 -38.8125 43.125 -38.71875 C 43.125 -38.4375 42.84375 -37.96875 42.28125 -37.59375 L 41.53125 -36.75 L 41.8125 -37.59375 C 42.09375 -38.15625 42.09375 -38.53125 41.71875 -38.625 C 41.625 -38.71875 42.09375 -39.5625 43.03125 -40.59375 C 45.09375 -43.03125 48.375 -47.90625 51.9375 -53.90625 C 51.75 -54.1875 51.65625 -54.375 51.5625 -54.65625 C 51.46875 -54.75 51.46875 -54.75 51.375 -54.84375 C 51.09375 -54.375 50.8125 -53.90625 50.8125 -53.71875 C 50.8125 -53.4375 50.71875 -53.34375 50.53125 -53.34375 C 50.34375 -53.34375 50.15625 -53.15625 50.15625 -52.875 C 50.15625 -52.6875 50.0625 -52.21875 49.6875 -51.84375 C 48.84375 -50.53125 47.625 -48.84375 47.625 -48.46875 C 47.625 -48.28125 47.25 -47.71875 46.6875 -47.15625 C 46.21875 -46.5 45.65625 -45.84375 45.65625 -45.65625 C 45.65625 -45.46875 45.46875 -45.09375 45.09375 -44.8125 C 44.625 -44.34375 43.875 -43.3125 43.21875 -42.375 C 42.5625 -41.4375 41.625 -40.125 41.0625 -39.46875 C 40.5 -38.8125 39.28125 -37.5 38.4375 -36.46875 C 37.59375 -35.34375 37.6875 -37.125 37.6875 -37.3125 C 37.6875 -37.40625 38.0625 -37.96875 38.53125 -38.4375 C 39.46875 -39.375 41.53125 -42.5625 41.53125 -43.03125 C 41.53125 -43.125 41.8125 -43.3125 42.1875 -43.40625 C 42.65625 -43.59375 42.84375 -43.875 42.84375 -44.4375 C 42.84375 -44.90625 42.9375 -45.28125 43.125 -45.28125 C 43.40625 -45.28125 44.71875 -47.34375 44.71875 -47.90625 C 44.71875 -48.375 43.125 -46.5 43.125 -46.03125 C 43.125 -45.75 43.03125 -45.5625 42.84375 -45.5625 C 42.75 -45.5625 41.90625 -44.625 41.15625 -43.5 C 40.40625 -42.375 39.65625 -41.4375 39.5625 -41.4375 C 39.46875 -41.4375 39.09375 -40.96875 38.8125 -40.40625 C 37.78125 -38.34375 21.1875 -27 23.0625 -28.3125 C 24.28125 -29.25 25.40625 -30.375 25.40625 -30.65625 C 25.40625 -30.75 24.65625 -30.28125 23.71875 -29.625 C 19.3125 -26.34375 16.5 -27 13.875 -27 C 12 -27 11.4375 -27.1875 11.15625 -28.125 C 10.875 -28.96875 9.84375 -33.46875 9.84375 -34.125 C 9.84375 -34.21875 10.59375 -34.78125 11.4375 -35.25 C 12.28125 -35.71875 13.03125 -36.1875 13.125 -36.28125 C 13.5 -36.65625 14.71875 -37.21875 15.28125 -37.21875 C 15.65625 -37.21875 22.6875 -43.875 22.6875 -44.34375 C 22.6875 -44.4375 23.4375 -45.28125 24.375 -46.125 C 25.21875 -47.0625 26.0625 -48.28125 26.25 -48.84375 C 26.53125 -49.40625 26.8125 -49.78125 27 -49.78125 C 27.09375 -49.78125 27.1875 -49.96875 27.1875 -50.15625 C 27.1875 -50.4375 27.84375 -51.28125 28.6875 -52.21875 C 29.4375 -53.0625 30.09375 -54 30.1875 -54.09375 C 30.1875 -54.28125 30.9375 -55.40625 31.6875 -56.53125 C 34.96875 -60.9375 37.125 -65.625 37.21875 -69.003906 C 37.21875 -71.066406 37.125 -71.535156 36.1875 -73.128906 C 34.96875 -75.378906 32.71875 -77.253906 30.09375 -78.472656 C 28.96875 -79.035156 27.5625 -79.878906 26.90625 -80.441406 C 25.5 -81.566406 23.25 -81.847656 21.375 -81.285156 C 19.875 -80.910156 14.8125 -77.160156 14.4375 -76.222656 C 14.34375 -75.941406 13.6875 -75.566406 13.125 -75.285156 C 12 -74.816406 9.1875 -71.816406 9.1875 -70.972656 C 9.1875 -70.878906 9.1875 -70.691406 9 -70.597656 C 8.625 -70.503906 6.75 -67.5 5.25 -64.6875 C 3.75 -62.15625 1.875 -56.8125 0.75 -52.3125 C -0.75 -46.6875 -0.46875 -37.59375 1.3125 -32.53125 C 2.4375 -29.625 3.5625 -28.125 7.5 -24.75 C 9.28125 -23.0625 12.5625 -21.1875 13.6875 -21 C 14.4375 -20.8125 16.875 -20.0625 17.0625 -19.78125 C 17.53125 -19.5 20.0625 -19.59375 20.71875 -19.78125 C 32.0625 -23.34375 40.21875 -31.875 40.21875 -31.96875 C 40.21875 -32.15625 40.59375 -32.53125 40.875 -32.90625 C 41.15625 -33.1875 42.09375 -34.3125 42.84375 -35.34375 C 43.6875 -36.375 44.53125 -37.40625 44.90625 -37.6875 C 45.1875 -38.15625 46.6875 -40.125 48.09375 -42.28125 C 50.0625 -45.28125 51.375 -47.25 52.40625 -48.75 C 52.3125 -48.9375 52.21875 -49.125 52.21875 -49.3125 Z M 17.71875 -43.96875 C 16.96875 -43.21875 16.96875 -43.21875 17.34375 -43.875 C 17.625 -44.4375 18.5625 -45.1875 18.5625 -44.90625 C 18.5625 -44.8125 18.1875 -44.4375 17.71875 -43.96875 Z M 19.21875 -45.46875 C 19.03125 -45.375 18.84375 -45.375 18.84375 -45.5625 C 18.84375 -45.75 19.03125 -45.9375 19.21875 -45.9375 C 19.40625 -45.9375 19.5 -45.84375 19.5 -45.75 C 19.5 -45.65625 19.40625 -45.5625 19.21875 -45.46875 Z M 20.15625 -46.875 C 19.78125 -46.875 19.78125 -47.15625 20.15625 -47.34375 C 20.4375 -47.4375 20.4375 -47.4375 20.4375 -47.25 C 20.4375 -47.0625 20.4375 -46.875 20.15625 -46.875 Z M 21.75 -49.125 C 21.375 -49.125 21.375 -49.40625 21.75 -49.59375 C 22.03125 -49.6875 22.125 -49.6875 22.125 -49.5 C 22.125 -49.3125 22.03125 -49.125 21.75 -49.125 Z M 24.46875 -52.875 C 24.28125 -52.3125 24 -52.21875 24 -52.6875 C 24 -52.875 24.1875 -53.0625 24.375 -53.15625 C 24.5625 -53.25 24.5625 -53.15625 24.46875 -52.875 Z M 10.96875 -49.125 C 11.34375 -49.59375 11.4375 -50.25 11.4375 -50.4375 C 11.4375 -50.625 12.09375 -52.21875 12.84375 -53.8125 C 13.5 -55.40625 14.25 -57.09375 14.53125 -57.65625 C 14.71875 -58.21875 15.28125 -59.34375 15.46875 -60.1875 C 16.125 -61.96875 16.6875 -62.90625 18.75 -65.4375 C 19.5 -66.375 20.25 -67.40625 20.34375 -67.78125 C 20.4375 -68.0625 20.71875 -68.441406 20.90625 -68.441406 C 21 -68.441406 21.65625 -69.003906 22.3125 -69.660156 C 22.96875 -70.316406 24 -71.066406 24.5625 -71.441406 C 25.21875 -71.910156 26.34375 -73.035156 27.09375 -74.066406 C 28.03125 -75.003906 28.78125 -75.847656 28.875 -75.847656 C 29.53125 -75.847656 30.1875 -73.503906 29.90625 -72.097656 C 29.625 -69.847656 28.3125 -65.625 27.75 -64.875 C 27.46875 -64.59375 27.5625 -64.5 27.75 -64.6875 C 28.6875 -65.25 28.21875 -63.9375 26.625 -61.59375 C 22.5 -55.40625 21.09375 -53.4375 20.4375 -52.875 C 20.15625 -52.40625 19.78125 -51.9375 19.78125 -51.75 C 19.78125 -51.375 19.5 -50.90625 17.71875 -48.9375 C 17.0625 -48.375 16.59375 -47.71875 16.59375 -47.625 C 16.59375 -47.25 14.71875 -45.28125 14.34375 -45.28125 C 14.25 -45.28125 14.15625 -45 14.25 -44.8125 C 14.25 -44.4375 14.25 -44.25 13.875 -44.0625 C 13.6875 -43.96875 13.40625 -43.78125 13.40625 -43.59375 C 13.40625 -43.03125 11.25 -41.34375 10.6875 -41.34375 C 10.3125 -41.34375 10.21875 -41.0625 10.3125 -40.5 C 10.40625 -40.125 10.40625 -39.84375 10.21875 -39.84375 C 9.75 -39.84375 9.84375 -39.65625 9.75 -41.53125 C 9.5625 -43.3125 10.3125 -47.8125 10.96875 -49.125 Z M 47.8125 -52.6875 C 47.71875 -52.6875 47.53125 -52.6875 47.4375 -52.6875 C 47.25 -52.40625 47.0625 -52.21875 46.875 -51.9375 C 46.125 -50.8125 45.28125 -49.59375 45.09375 -49.21875 C 44.8125 -48.65625 44.8125 -48.5625 45.375 -48.5625 C 45.84375 -48.5625 46.03125 -48.84375 46.03125 -49.40625 C 46.03125 -49.78125 46.21875 -50.0625 46.3125 -50.0625 C 46.59375 -50.0625 46.6875 -50.34375 46.6875 -50.53125 C 46.6875 -50.90625 46.96875 -51.1875 47.34375 -51.28125 C 47.71875 -51.375 47.90625 -51.65625 47.90625 -51.9375 C 47.71875 -52.21875 47.71875 -52.5 47.8125 -52.6875 Z M 48.46875 -53.34375 C 48.75 -53.34375 48.9375 -53.625 48.9375 -53.90625 C 48.9375 -54 48.9375 -54 48.9375 -54 C 48.75 -53.71875 48.65625 -53.53125 48.46875 -53.34375 Z M 48.46875 -53.34375 "/></g></g></g><g fill="#7e55f2" fill-opacity="1"><g transform="translate(81.328578, 312.558897)"><g><path d="M 1.675781 0 L 7.949219 0 L 7.949219 -0.84375 L 2.582031 -0.84375 L 2.582031 -4.878906 L 7.402344 -4.878906 L 7.402344 -5.710938 L 2.582031 -5.710938 L 2.582031 -9.539062 L 7.789062 -9.539062 L 7.789062 -10.382812 L 1.675781 -10.382812 Z M 1.675781 0 "/></g></g></g><g fill="#7e55f2" fill-opacity="1"><g transform="translate(95.346542, 312.558897)"><g><path d="M 0.652344 0 L 1.734375 0 L 4.242188 -3.472656 L 5.058594 -4.613281 L 5.859375 -3.472656 L 8.378906 0 L 9.449219 0 L 5.605469 -5.308594 L 9.269531 -10.382812 L 8.21875 -10.382812 L 5.886719 -7.164062 L 5.058594 -5.976562 L 4.210938 -7.164062 L 1.882812 -10.382812 L 0.816406 -10.382812 L 4.480469 -5.308594 Z M 0.652344 0 "/></g></g></g><g fill="#7e55f2" fill-opacity="1"><g transform="translate(110.432163, 312.558897)"><g><path d="M 1.675781 0 L 2.582031 0 L 2.582031 -3.558594 L 4.96875 -3.558594 C 7.371094 -3.558594 8.796875 -4.820312 8.796875 -6.972656 C 8.796875 -9.121094 7.371094 -10.382812 4.96875 -10.382812 L 1.675781 -10.382812 Z M 2.582031 -4.390625 L 2.582031 -9.523438 L 4.953125 -9.523438 C 6.898438 -9.523438 7.890625 -8.648438 7.890625 -6.957031 C 7.890625 -5.265625 6.898438 -4.390625 4.953125 -4.390625 Z M 2.582031 -4.390625 "/></g></g></g><g fill="#7e55f2" fill-opacity="1"><g transform="translate(124.909815, 312.558897)"><g><path d="M 1.675781 0 L 7.847656 0 L 7.847656 -0.859375 L 2.582031 -0.859375 L 2.582031 -10.382812 L 1.675781 -10.382812 Z M 1.675781 0 "/></g></g></g><g fill="#7e55f2" fill-opacity="1"><g transform="translate(138.245671, 312.558897)"><g><path d="M 6.304688 0.191406 C 9.476562 0.191406 11.660156 -2.015625 11.660156 -5.191406 C 11.660156 -8.367188 9.476562 -10.574219 6.304688 -10.574219 C 3.144531 -10.574219 0.949219 -8.367188 0.949219 -5.191406 C 0.949219 -2.015625 3.144531 0.191406 6.304688 0.191406 Z M 1.867188 -5.191406 C 1.867188 -7.863281 3.679688 -9.671875 6.304688 -9.671875 C 8.945312 -9.671875 10.753906 -7.863281 10.753906 -5.191406 C 10.753906 -2.535156 8.945312 -0.710938 6.304688 -0.710938 C 3.679688 -0.710938 1.867188 -2.535156 1.867188 -5.191406 Z M 1.867188 -5.191406 "/></g></g></g><g fill="#7e55f2" fill-opacity="1"><g transform="translate(155.837303, 312.558897)"><g><path d="M 1.675781 0 L 2.582031 0 L 2.582031 -3.902344 L 5.265625 -3.902344 L 8.054688 0 L 9.136719 0 L 6.320312 -3.976562 C 7.949219 -4.257812 8.972656 -5.429688 8.972656 -7.148438 C 8.972656 -9.121094 7.609375 -10.382812 5.519531 -10.382812 L 1.675781 -10.382812 Z M 2.582031 -4.761719 L 2.582031 -9.523438 L 5.429688 -9.523438 C 7.074219 -9.523438 8.054688 -8.617188 8.054688 -7.148438 C 8.054688 -5.667969 7.074219 -4.761719 5.429688 -4.761719 Z M 2.582031 -4.761719 "/></g></g></g><g fill="#7e55f2" fill-opacity="1"><g transform="translate(170.967402, 312.558897)"><g><path d="M 1.675781 0 L 7.949219 0 L 7.949219 -0.84375 L 2.582031 -0.84375 L 2.582031 -4.878906 L 7.402344 -4.878906 L 7.402344 -5.710938 L 2.582031 -5.710938 L 2.582031 -9.539062 L 7.789062 -9.539062 L 7.789062 -10.382812 L 1.675781 -10.382812 Z M 1.675781 0 "/></g></g></g><g fill="#7e55f2" fill-opacity="1"><g transform="translate(184.985367, 312.558897)"><g><path d="M 0.859375 0 L 8.097656 0 L 8.097656 -0.859375 L 2.046875 -0.859375 L 7.964844 -9.699219 L 7.964844 -10.382812 L 0.992188 -10.382812 L 0.992188 -9.523438 L 6.777344 -9.523438 L 0.859375 -0.667969 Z M 0.859375 0 "/></g></g></g><g fill="#7e55f2" fill-opacity="1"><g transform="translate(198.899546, 312.558897)"><g/></g></g><g fill="#7e55f2" fill-opacity="1"><g transform="translate(207.861005, 312.558897)"><g><path d="M 1.675781 0 L 7.847656 0 L 7.847656 -0.859375 L 2.582031 -0.859375 L 2.582031 -10.382812 L 1.675781 -10.382812 Z M 1.675781 0 "/></g></g></g><g fill="#7e55f2" fill-opacity="1"><g transform="translate(221.196861, 312.558897)"><g><path d="M 1.246094 -6.777344 L 2.003906 -6.777344 L 2.03125 -10.382812 L 1.214844 -10.382812 Z M 1.246094 -6.777344 "/></g></g></g><g fill="#7e55f2" fill-opacity="1"><g transform="translate(229.446548, 312.558897)"><g><path d="M 1.675781 0 L 2.582031 0 L 2.582031 -10.382812 L 1.675781 -10.382812 Z M 1.675781 0 "/></g></g></g><g fill="#7e55f2" fill-opacity="1"><g transform="translate(238.689744, 312.558897)"><g><path d="M 1.675781 0 L 2.566406 0 L 2.566406 -8.839844 L 8.886719 0 L 9.730469 0 L 9.730469 -10.382812 L 8.839844 -10.382812 L 8.839844 -1.558594 L 2.523438 -10.382812 L 1.675781 -10.382812 Z M 1.675781 0 "/></g></g></g><g fill="#7e55f2" fill-opacity="1"><g transform="translate(255.080266, 312.558897)"><g><path d="M 6.214844 0.191406 C 8.664062 0.191406 10.664062 -1.246094 11.300781 -3.484375 L 10.351562 -3.484375 C 9.773438 -1.765625 8.171875 -0.710938 6.230469 -0.710938 C 3.691406 -0.710938 1.867188 -2.535156 1.867188 -5.191406 C 1.867188 -7.847656 3.691406 -9.671875 6.230469 -9.671875 C 8.128906 -9.671875 9.671875 -8.664062 10.265625 -7.015625 L 11.214844 -7.015625 C 10.53125 -9.195312 8.589844 -10.574219 6.214844 -10.574219 C 3.160156 -10.574219 0.949219 -8.351562 0.949219 -5.191406 C 0.949219 -2.03125 3.160156 0.191406 6.214844 0.191406 Z M 6.214844 0.191406 "/></g></g></g><g fill="#7e55f2" fill-opacity="1"><g transform="translate(272.2567, 312.558897)"><g><path d="M 6.304688 0.191406 C 9.476562 0.191406 11.660156 -2.015625 11.660156 -5.191406 C 11.660156 -8.367188 9.476562 -10.574219 6.304688 -10.574219 C 3.144531 -10.574219 0.949219 -8.367188 0.949219 -5.191406 C 0.949219 -2.015625 3.144531 0.191406 6.304688 0.191406 Z M 1.867188 -5.191406 C 1.867188 -7.863281 3.679688 -9.671875 6.304688 -9.671875 C 8.945312 -9.671875 10.753906 -7.863281 10.753906 -5.191406 C 10.753906 -2.535156 8.945312 -0.710938 6.304688 -0.710938 C 3.679688 -0.710938 1.867188 -2.535156 1.867188 -5.191406 Z M 1.867188 -5.191406 "/></g></g></g><g fill="#7e55f2" fill-opacity="1"><g transform="translate(289.848328, 312.558897)"><g><path d="M 1.675781 0 L 2.566406 0 L 2.566406 -8.839844 L 8.886719 0 L 9.730469 0 L 9.730469 -10.382812 L 8.839844 -10.382812 L 8.839844 -1.558594 L 2.523438 -10.382812 L 1.675781 -10.382812 Z M 1.675781 0 "/></g></g></g><g fill="#7e55f2" fill-opacity="1"><g transform="translate(306.23885, 312.558897)"><g><path d="M 1.675781 0 L 2.566406 0 L 2.566406 -8.839844 L 8.886719 0 L 9.730469 0 L 9.730469 -10.382812 L 8.839844 -10.382812 L 8.839844 -1.558594 L 2.523438 -10.382812 L 1.675781 -10.382812 Z M 1.675781 0 "/></g></g></g><g fill="#7e55f2" fill-opacity="1"><g transform="translate(322.629372, 312.558897)"><g><path d="M 5.457031 0.179688 C 7.890625 0.179688 9.375 -1.425781 9.375 -4.09375 L 9.375 -10.382812 L 8.484375 -10.382812 L 8.484375 -4.136719 C 8.484375 -1.929688 7.386719 -0.695312 5.457031 -0.695312 C 3.53125 -0.695312 2.433594 -1.929688 2.433594 -4.136719 L 2.433594 -10.382812 L 1.542969 -10.382812 L 1.542969 -4.09375 C 1.542969 -1.425781 3.027344 0.179688 5.457031 0.179688 Z M 5.457031 0.179688 "/></g></g></g></svg>