<svg xmlns="http://www.w3.org/2000/svg" xmlns:xlink="http://www.w3.org/1999/xlink" width="500" zoomAndPan="magnify" viewBox="0 0 375 374.999991" height="500" preserveAspectRatio="xMidYMid meet" version="1.0"><defs><g/><clipPath id="d2b69eac40"><path d="M 204 116 L 223.289062 116 L 223.289062 119 L 204 119 Z M 204 116 " clip-rule="nonzero"/></clipPath><clipPath id="b3871cba42"><path d="M 126 55.210938 L 204 55.210938 L 204 137 L 126 137 Z M 126 55.210938 " clip-rule="nonzero"/></clipPath><clipPath id="432185718a"><path d="M 60 105 L 125 105 L 125 319.960938 L 60 319.960938 Z M 60 105 " clip-rule="nonzero"/></clipPath></defs><rect x="-37.5" width="450" fill="#ffffff" y="-37.499999" height="449.999989" fill-opacity="1"/><rect x="-37.5" width="450" fill="#7e55f2" y="-37.499999" height="449.999989" fill-opacity="1"/><g clip-path="url(#d2b69eac40)"><path fill="#ffffff" d="M 204.804688 116.4375 L 223.347656 118.136719 L 204.804688 118.007812 Z M 204.804688 116.4375 " fill-opacity="1" fill-rule="nonzero"/></g><path fill="#ffffff" d="M 195.316406 115.652344 L 195.316406 118.027344 L 134.925781 117.65625 L 134.96875 110.121094 Z M 195.316406 115.652344 " fill-opacity="1" fill-rule="nonzero"/><g clip-path="url(#b3871cba42)"><path fill="#ffffff" d="M 127.941406 129.183594 C 127.960938 120.164062 128.070312 89.816406 127.941406 86.484375 C 127.851562 84.304688 129.136719 74.480469 136.90625 66.398438 C 143.609375 59.429688 153.011719 55.898438 164.851562 55.898438 C 200.34375 55.898438 202.042969 88.46875 202.042969 88.859375 L 202.042969 129.160156 C 203.109375 129.855469 203.828125 131.078125 203.828125 132.449219 C 203.828125 134.628906 202.0625 136.390625 199.886719 136.390625 C 197.710938 136.390625 195.949219 134.628906 195.949219 132.449219 C 195.949219 130.859375 196.882812 129.507812 198.253906 128.875 L 198.253906 88.925781 C 198.210938 87.726562 196.730469 59.667969 164.828125 59.667969 C 154.054688 59.667969 145.566406 62.804688 139.605469 69.015625 C 133.316406 75.550781 131.617188 84 131.707031 86.332031 C 131.835938 89.730469 131.75 119.445312 131.726562 128.875 C 133.078125 129.507812 134.035156 130.859375 134.035156 132.449219 C 134.035156 134.628906 132.269531 136.390625 130.09375 136.390625 C 127.917969 136.390625 126.15625 134.628906 126.15625 132.449219 C 126.15625 131.078125 126.875 129.878906 127.941406 129.183594 Z M 127.941406 129.183594 " fill-opacity="1" fill-rule="nonzero"/></g><g clip-path="url(#432185718a)"><path fill="#ffffff" d="M 76.734375 110.207031 L 79.28125 105.109375 L 80.324219 105.199219 L 101.804688 107.15625 L 124.828125 109.269531 L 124.761719 117.59375 L 95.121094 117.417969 C 43.699219 203.945312 100.800781 316.851562 102.042969 319.292969 C 41.847656 234.269531 58.996094 139.289062 76.734375 110.207031 Z M 76.734375 110.207031 " fill-opacity="1" fill-rule="nonzero"/></g><g fill="#ffffff" fill-opacity="1"><g transform="translate(95.130409, 272.149972)"><g><path d="M 108.894531 -102.804688 C 109.058594 -103.140625 109.058594 -103.308594 108.808594 -103.308594 C 108.726562 -103.308594 108.558594 -103.722656 108.476562 -104.140625 C 108.226562 -105.308594 107.558594 -107.140625 107.058594 -108.058594 C 104.472656 -112.226562 99.636719 -117.230469 98.054688 -117.398438 C 97.804688 -117.480469 97.136719 -117.816406 96.46875 -118.148438 C 94.96875 -118.980469 89.632812 -121.148438 88.214844 -121.566406 C 83.710938 -122.566406 75.457031 -123.402344 71.207031 -123.152344 C 63.117188 -122.734375 51.527344 -120.566406 43.941406 -118.066406 C 42.523438 -117.566406 40.4375 -116.898438 39.1875 -116.480469 C 38.019531 -116.148438 36.6875 -115.730469 36.1875 -115.5625 C 35.769531 -115.398438 34.601562 -114.980469 33.683594 -114.644531 C 29.851562 -113.3125 17.675781 -108.144531 14.175781 -106.308594 C 12.839844 -105.640625 11.589844 -105.222656 11.421875 -105.308594 C 11.257812 -105.390625 10.921875 -105.140625 10.757812 -104.972656 C 10.589844 -104.722656 9.671875 -103.972656 8.671875 -103.472656 C 5.253906 -101.640625 2.5 -99.386719 1.082031 -97.386719 C 0.332031 -96.386719 -0.25 -95.300781 -0.332031 -94.96875 C -0.417969 -94.550781 -0.667969 -94.136719 -0.832031 -93.800781 C -1.25 -93.132812 -1 -91.132812 -0.25 -89.714844 C 0.332031 -88.546875 2.25 -85.964844 3.25 -84.878906 C 3.667969 -84.464844 4.167969 -83.960938 4.253906 -83.796875 C 4.503906 -83.378906 7.003906 -81.710938 8.671875 -80.792969 C 9.921875 -80.042969 12.757812 -78.875 13.589844 -78.710938 C 13.839844 -78.710938 14.675781 -78.375 15.507812 -78.125 C 16.257812 -77.960938 17.59375 -77.460938 18.511719 -77.125 C 19.425781 -76.792969 21.179688 -76.042969 22.597656 -75.457031 C 23.929688 -74.957031 25.597656 -74.207031 26.265625 -73.875 C 27.847656 -73.207031 29.015625 -72.375 30.183594 -70.789062 C 30.765625 -70.207031 31.433594 -69.453125 31.683594 -69.289062 C 32.101562 -69.121094 32.351562 -68.871094 32.269531 -68.621094 C 32.183594 -68.453125 32.601562 -67.953125 33.019531 -67.621094 C 33.769531 -67.035156 35.351562 -64.117188 36.101562 -62.035156 C 36.519531 -60.867188 36.519531 -60.867188 35.351562 -57.449219 C 35.269531 -56.949219 34.851562 -55.53125 34.4375 -54.195312 C 34.101562 -52.863281 33.769531 -51.613281 33.601562 -51.363281 C 33.433594 -50.945312 33.519531 -50.859375 33.851562 -50.777344 C 34.269531 -50.777344 34.269531 -50.695312 33.769531 -50.359375 C 33.269531 -50.027344 32.851562 -49.027344 32.101562 -45.941406 C 31.933594 -45.109375 31.601562 -44.359375 31.601562 -44.359375 C 31.515625 -44.441406 31.351562 -43.441406 31.101562 -42.273438 C 30.933594 -41.105469 30.601562 -39.855469 30.515625 -39.6875 C 29.683594 -38.355469 28.933594 -36.019531 29.347656 -35.6875 C 29.515625 -35.4375 29.515625 -35.351562 29.265625 -35.1875 C 28.847656 -34.9375 28.265625 -32.519531 27.683594 -28.683594 C 27.433594 -27.347656 27.097656 -26.097656 26.929688 -25.929688 C 26.765625 -25.679688 26.679688 -25.429688 26.765625 -25.347656 C 27.097656 -25.097656 27.015625 -24.097656 26.679688 -24.261719 C 26.347656 -24.597656 26.015625 -22.679688 26.347656 -22.261719 C 26.515625 -21.929688 26.515625 -21.84375 26.265625 -21.929688 C 26.097656 -21.929688 25.929688 -21.679688 25.847656 -21.34375 C 25.765625 -21.09375 25.847656 -20.761719 26.015625 -20.761719 C 26.097656 -20.761719 26.179688 -20.511719 26.097656 -20.34375 C 26.097656 -20.09375 25.929688 -19.925781 25.765625 -19.925781 C 25.265625 -20.011719 24.261719 -12.421875 24.761719 -11.921875 C 24.847656 -11.757812 24.847656 -11.589844 24.511719 -11.257812 C 24.179688 -10.921875 24.179688 -10.921875 24.511719 -10.757812 C 24.761719 -10.589844 24.761719 -10.339844 24.511719 -9.839844 C 24.179688 -9.253906 24.011719 -6.921875 24.347656 -6.585938 C 24.347656 -6.503906 24.511719 -6.003906 24.511719 -5.503906 C 24.597656 -5.085938 24.761719 -4.335938 25.015625 -3.917969 C 25.347656 -3.085938 26.765625 -1.75 27.097656 -1.917969 C 27.265625 -2 27.683594 -1.75 27.933594 -1.25 C 28.347656 -0.832031 28.765625 -0.5 28.933594 -0.5 C 29.097656 -0.417969 29.347656 -0.25 29.515625 -0.167969 C 29.515625 0.0820312 30.015625 0.417969 30.515625 0.667969 C 31.683594 1.25 31.515625 1.25 32.519531 1 C 33.019531 0.832031 33.433594 0.5 33.519531 0.25 C 33.519531 0.0820312 33.851562 -0.5 34.351562 -0.917969 C 34.769531 -1.335938 35.1875 -1.917969 35.269531 -2.085938 C 35.269531 -2.335938 35.6875 -3 36.019531 -3.5 C 36.855469 -4.667969 39.6875 -10.003906 40.773438 -12.257812 C 42.355469 -15.675781 43.523438 -19.261719 44.273438 -22.929688 C 46.277344 -32.519531 46.191406 -42.941406 44.109375 -50.195312 C 43.605469 -52.027344 43.355469 -54.445312 43.691406 -54.53125 C 43.859375 -54.53125 44.023438 -54.78125 44.023438 -54.945312 C 44.109375 -55.28125 44.359375 -55.699219 44.609375 -56.03125 C 44.941406 -56.363281 44.941406 -56.53125 44.691406 -56.699219 C 44.523438 -56.78125 44.773438 -57.28125 45.523438 -58.28125 C 46.277344 -59.367188 46.527344 -59.78125 46.277344 -60.03125 C 46.109375 -60.28125 46.191406 -60.367188 46.527344 -60.367188 C 46.777344 -60.367188 46.859375 -60.449219 46.859375 -60.785156 C 46.691406 -61.535156 47.191406 -63.285156 47.441406 -63.617188 C 47.609375 -63.867188 47.941406 -64.117188 48.191406 -64.367188 C 48.777344 -64.867188 48.695312 -65.035156 48.191406 -64.867188 C 47.859375 -64.785156 47.777344 -65.371094 48.191406 -65.785156 C 48.359375 -65.871094 48.527344 -66.453125 48.695312 -67.121094 C 48.777344 -67.703125 49.109375 -68.289062 49.277344 -68.453125 C 49.445312 -68.453125 49.777344 -69.121094 49.945312 -69.703125 C 50.109375 -70.289062 50.277344 -70.957031 50.445312 -71.039062 C 50.695312 -71.371094 52.613281 -76.042969 53.027344 -77.375 C 53.195312 -77.960938 53.613281 -78.710938 53.863281 -79.042969 C 54.195312 -79.378906 54.695312 -80.542969 55.03125 -81.542969 C 56.113281 -84.796875 63.285156 -98.21875 65.203125 -100.386719 C 65.953125 -101.222656 67.035156 -103.222656 67.203125 -103.972656 C 67.371094 -104.722656 66.121094 -107.140625 65.703125 -106.976562 C 65.453125 -106.976562 64.785156 -107.226562 64.203125 -107.558594 C 63.617188 -107.976562 62.285156 -108.394531 61.285156 -108.558594 C 59.617188 -108.894531 59.28125 -108.808594 58.867188 -108.394531 C 58.53125 -108.144531 58.03125 -107.894531 57.613281 -107.640625 C 56.949219 -107.390625 56.53125 -106.726562 54.28125 -103.140625 C 53.53125 -101.890625 51.863281 -98.722656 50.609375 -95.96875 C 50.027344 -94.636719 49.109375 -92.882812 48.777344 -92.132812 C 48.441406 -91.382812 47.527344 -89.214844 46.777344 -87.382812 C 46.109375 -85.628906 45.359375 -83.796875 45.273438 -83.378906 C 45.023438 -83.046875 44.773438 -82.210938 44.609375 -81.542969 C 44.273438 -80.542969 43.355469 -78.042969 41.4375 -73.539062 C 41.105469 -72.625 40.1875 -70.457031 39.523438 -68.621094 C 38.855469 -66.785156 38.1875 -65.371094 38.105469 -65.371094 C 38.105469 -65.371094 37.355469 -66.285156 36.6875 -67.371094 C 34.351562 -70.957031 31.015625 -74.289062 28.183594 -75.875 C 27.433594 -76.292969 26.097656 -77.042969 25.265625 -77.542969 C 24.511719 -77.960938 21.679688 -79.210938 19.011719 -80.292969 C 6.335938 -85.378906 3.835938 -86.964844 4.335938 -89.632812 C 4.835938 -92.050781 7.753906 -94.386719 15.257812 -98.472656 C 16.34375 -99.136719 17.59375 -99.804688 18.011719 -100.054688 C 18.425781 -100.304688 19.011719 -100.554688 19.175781 -100.636719 C 19.425781 -100.722656 19.84375 -100.890625 20.011719 -100.972656 C 20.261719 -101.140625 21.179688 -101.554688 21.929688 -101.804688 C 22.761719 -102.140625 23.679688 -102.554688 23.929688 -102.640625 C 25.679688 -103.722656 29.347656 -105.058594 30.183594 -104.972656 C 30.433594 -104.972656 30.851562 -105.222656 31.183594 -105.476562 C 32.019531 -106.308594 33.183594 -106.726562 33.433594 -106.390625 C 33.601562 -106.140625 33.683594 -106.140625 33.769531 -106.390625 C 33.851562 -106.890625 35.601562 -107.726562 36.351562 -107.640625 C 36.769531 -107.640625 37.355469 -107.808594 37.6875 -107.976562 C 38.019531 -108.226562 38.4375 -108.308594 38.605469 -108.144531 C 38.855469 -107.976562 40.523438 -108.644531 40.855469 -109.144531 C 41.023438 -109.308594 41.605469 -109.476562 42.105469 -109.644531 C 42.605469 -109.644531 43.355469 -109.894531 43.773438 -110.226562 C 44.273438 -110.726562 44.859375 -110.8125 46.191406 -110.726562 C 48.109375 -110.644531 48.527344 -110.8125 48.441406 -111.394531 C 48.359375 -111.8125 49.195312 -112.3125 49.859375 -112.144531 C 50.195312 -112.144531 50.609375 -112.226562 50.859375 -112.3125 C 51.195312 -112.394531 51.277344 -112.3125 51.195312 -112.144531 C 51.113281 -111.894531 51.195312 -111.726562 51.277344 -111.726562 C 51.613281 -111.644531 53.695312 -112.5625 53.945312 -112.8125 C 54.28125 -113.144531 55.78125 -113.480469 56.699219 -113.394531 C 57.113281 -113.394531 57.613281 -113.480469 57.78125 -113.644531 C 58.03125 -113.894531 58.199219 -113.8125 58.617188 -113.5625 C 58.78125 -113.394531 59.199219 -113.3125 59.28125 -113.3125 C 59.699219 -113.5625 63.617188 -114.230469 63.703125 -114.144531 C 63.785156 -114.144531 64.117188 -114.0625 64.617188 -114.230469 C 65.035156 -114.394531 65.535156 -114.480469 65.703125 -114.480469 C 65.871094 -114.480469 66.285156 -114.644531 66.703125 -114.8125 C 67.121094 -114.980469 67.621094 -115.0625 67.789062 -115.0625 C 67.953125 -115.0625 68.203125 -115.148438 68.453125 -115.398438 C 68.871094 -115.648438 69.621094 -115.648438 73.039062 -115.230469 C 74.039062 -115.0625 75.207031 -115.0625 75.707031 -115.230469 C 76.125 -115.480469 77.792969 -115.5625 79.292969 -115.398438 C 80.792969 -115.3125 82.210938 -115.3125 82.378906 -115.398438 C 82.546875 -115.480469 82.878906 -115.398438 83.128906 -115.148438 C 83.460938 -114.898438 84.714844 -114.644531 86.796875 -114.480469 C 89.464844 -114.230469 89.964844 -114.144531 90.132812 -113.730469 C 90.382812 -113.230469 93.636719 -112.226562 94.136719 -112.476562 C 94.550781 -112.644531 95.550781 -112.144531 95.386719 -111.8125 C 95.21875 -111.726562 95.46875 -111.726562 95.886719 -111.726562 C 96.386719 -111.8125 96.46875 -111.726562 96.386719 -111.3125 C 96.304688 -111.0625 96.386719 -110.976562 96.554688 -111.144531 C 96.886719 -111.726562 97.21875 -111.5625 97.054688 -110.894531 C 96.96875 -110.3125 97.136719 -110.226562 97.96875 -110.226562 C 98.21875 -110.226562 98.636719 -109.894531 98.804688 -109.476562 C 99.136719 -109.058594 99.472656 -108.726562 99.636719 -108.726562 C 99.722656 -108.644531 100.386719 -108.308594 100.972656 -107.726562 C 101.554688 -107.140625 102.222656 -106.808594 102.472656 -106.890625 C 102.972656 -107.058594 103.472656 -106.640625 103.222656 -106.226562 C 103.140625 -106.058594 103.140625 -105.808594 103.308594 -105.808594 C 103.472656 -105.808594 103.558594 -105.890625 103.640625 -106.140625 C 103.722656 -106.726562 104.472656 -105.308594 104.472656 -104.558594 C 104.390625 -104.058594 104.558594 -103.722656 104.640625 -103.722656 C 104.722656 -103.640625 104.808594 -103.472656 104.808594 -103.140625 C 104.722656 -102.890625 104.808594 -102.054688 104.890625 -101.390625 C 105.558594 -97.886719 103.972656 -92.050781 101.554688 -89.464844 C 100.722656 -88.546875 100.554688 -88.046875 100.972656 -87.964844 C 101.140625 -87.964844 101.472656 -87.882812 101.640625 -87.714844 C 101.890625 -87.546875 102.222656 -87.882812 102.804688 -88.796875 C 103.308594 -89.464844 103.722656 -89.964844 103.722656 -89.882812 C 103.808594 -89.800781 103.640625 -89.464844 103.390625 -89.050781 C 103.058594 -88.546875 102.972656 -88.132812 102.972656 -87.796875 C 103.140625 -87.214844 103.222656 -87.214844 103.808594 -87.546875 C 104.140625 -87.714844 104.808594 -88.714844 105.308594 -89.550781 C 106.226562 -91.300781 106.726562 -91.300781 106.140625 -89.714844 C 105.976562 -89.300781 105.976562 -88.964844 106.058594 -88.964844 C 106.476562 -88.882812 106.890625 -89.800781 106.808594 -90.382812 C 106.808594 -90.632812 107.058594 -91.050781 107.558594 -91.382812 C 108.226562 -91.96875 108.308594 -92.300781 108.808594 -94.636719 C 109.308594 -96.886719 109.308594 -97.554688 109.144531 -98.804688 C 108.726562 -100.472656 108.726562 -102.054688 108.894531 -102.804688 Z M 54.363281 -95.21875 C 54.363281 -95.386719 54.53125 -95.550781 54.613281 -95.550781 C 54.78125 -95.46875 54.863281 -95.386719 54.863281 -95.386719 C 54.863281 -95.300781 54.695312 -95.136719 54.53125 -95.050781 C 54.445312 -95.050781 54.28125 -95.050781 54.363281 -95.21875 Z M 54.113281 -87.796875 C 54.195312 -88.546875 54.695312 -89.464844 54.945312 -89.464844 C 55.03125 -89.464844 54.945312 -89.050781 54.695312 -88.546875 C 54.28125 -87.632812 53.945312 -87.296875 54.113281 -87.796875 Z M 53.613281 -86.882812 C 53.945312 -87.296875 53.863281 -87.296875 53.78125 -86.464844 C 53.695312 -85.964844 53.445312 -85.546875 53.363281 -85.546875 C 53.027344 -85.628906 53.113281 -86.128906 53.613281 -86.882812 Z M 34.601562 -53.027344 C 34.601562 -53.195312 34.769531 -53.277344 34.9375 -53.277344 C 35.019531 -53.277344 35.101562 -53.113281 35.101562 -53.027344 C 35.101562 -52.863281 34.9375 -52.695312 34.769531 -52.695312 C 34.6875 -52.777344 34.601562 -52.863281 34.601562 -53.027344 Z M 32.433594 -45.273438 C 32.601562 -45.359375 32.601562 -44.941406 32.433594 -44.441406 C 32.269531 -43.941406 32.019531 -43.523438 32.019531 -43.523438 C 31.851562 -43.523438 32.269531 -45.191406 32.433594 -45.273438 Z M 35.1875 -15.59375 C 34.6875 -14.675781 34.269531 -13.839844 34.269531 -13.839844 C 34.269531 -13.757812 34.269531 -14.589844 34.351562 -15.507812 C 34.4375 -16.425781 34.4375 -17.257812 34.351562 -17.34375 C 34.183594 -17.425781 34.269531 -17.757812 34.519531 -18.09375 C 34.851562 -18.425781 34.9375 -18.675781 34.769531 -19.011719 C 34.4375 -19.34375 34.601562 -20.34375 34.9375 -20.34375 C 35.351562 -20.261719 35.601562 -21.261719 35.269531 -22.09375 C 35.1875 -22.679688 35.1875 -22.929688 35.4375 -23.097656 C 35.6875 -23.179688 35.769531 -23.679688 35.851562 -24.679688 C 35.769531 -25.515625 36.101562 -26.847656 36.351562 -27.765625 C 36.769531 -29.265625 36.769531 -29.433594 36.269531 -29.347656 C 35.851562 -29.183594 35.769531 -29.347656 35.9375 -29.933594 C 35.9375 -30.265625 36.101562 -30.433594 36.269531 -30.351562 C 36.601562 -30.015625 37.269531 -30.765625 37.355469 -31.683594 C 37.605469 -32.769531 37.1875 -32.933594 36.6875 -32.019531 L 36.269531 -31.265625 L 36.351562 -32.351562 C 36.601562 -33.183594 36.6875 -33.269531 36.9375 -33.101562 C 37.1875 -33.019531 37.355469 -33.183594 37.605469 -33.519531 C 37.6875 -33.851562 37.9375 -34.019531 38.019531 -33.933594 C 38.355469 -33.683594 38.355469 -34.601562 38.105469 -34.9375 C 37.855469 -35.269531 37.855469 -35.4375 38.269531 -35.6875 C 38.605469 -35.9375 38.769531 -36.019531 38.519531 -36.4375 C 38.269531 -36.9375 38.4375 -37.4375 39.019531 -37.9375 C 39.1875 -38.1875 39.523438 -38.855469 39.773438 -39.523438 L 40.1875 -40.6875 L 40.273438 -39.773438 C 40.355469 -36.4375 39.4375 -27.265625 38.605469 -24.011719 C 37.9375 -21.429688 36.6875 -18.261719 35.1875 -15.59375 Z M 38.4375 -39.9375 C 38.519531 -40.1875 38.6875 -40.355469 38.769531 -40.355469 C 38.9375 -40.355469 39.019531 -40.1875 39.019531 -40.023438 C 38.9375 -39.9375 38.769531 -39.6875 38.6875 -39.6875 C 38.519531 -39.605469 38.4375 -39.6875 38.4375 -39.9375 Z M 39.773438 -43.605469 C 39.355469 -42.441406 38.855469 -42.023438 39.105469 -43.023438 C 39.273438 -43.859375 39.6875 -44.609375 39.9375 -44.523438 C 40.023438 -44.523438 40.023438 -44.109375 39.773438 -43.605469 Z M 40.273438 -41.273438 C 40.1875 -41.023438 39.9375 -40.855469 39.773438 -40.855469 C 39.605469 -40.855469 39.4375 -41.105469 39.523438 -41.273438 C 39.523438 -41.523438 39.773438 -41.691406 39.9375 -41.691406 C 40.105469 -41.691406 40.273438 -41.4375 40.273438 -41.273438 Z M 37.355469 -15.007812 C 36.855469 -14.089844 36.601562 -13.839844 36.769531 -14.507812 C 36.769531 -14.757812 37.105469 -15.089844 37.355469 -15.425781 C 37.769531 -15.84375 37.769531 -15.84375 37.355469 -15.007812 Z M 38.6875 -17.59375 C 38.519531 -17.425781 38.269531 -17.09375 38.269531 -16.84375 C 38.1875 -16.59375 38.019531 -16.257812 37.855469 -16.175781 C 37.519531 -16.007812 37.6875 -16.757812 38.1875 -17.675781 C 38.4375 -18.09375 38.855469 -19.011719 39.019531 -19.675781 C 39.1875 -20.34375 39.4375 -21.011719 39.605469 -21.261719 C 39.9375 -21.59375 39.9375 -21.511719 41.023438 -26.515625 C 41.691406 -29.765625 42.023438 -30.765625 42.023438 -30.183594 C 42.191406 -28.183594 39.523438 -18.34375 38.6875 -17.59375 Z M 40.4375 -51.945312 C 40.4375 -52.113281 40.523438 -52.277344 40.605469 -52.277344 C 40.6875 -52.277344 40.773438 -52.113281 40.773438 -51.945312 C 40.855469 -51.777344 40.773438 -51.695312 40.605469 -51.695312 C 40.523438 -51.695312 40.4375 -51.863281 40.4375 -51.945312 Z M 42.105469 -43.273438 C 41.941406 -42.941406 41.855469 -43.191406 41.855469 -43.859375 C 41.691406 -44.941406 41.855469 -45.359375 42.105469 -44.359375 C 42.191406 -44.023438 42.191406 -43.605469 42.105469 -43.273438 Z M 42.273438 -40.9375 C 42.273438 -39.6875 42.023438 -39.605469 41.855469 -40.6875 C 41.773438 -41.855469 41.773438 -41.855469 42.105469 -41.773438 C 42.273438 -41.773438 42.355469 -41.355469 42.273438 -40.9375 Z M 41.855469 -45.609375 C 41.691406 -45.523438 41.523438 -46.359375 41.605469 -46.777344 C 41.691406 -47.027344 41.773438 -46.859375 41.773438 -46.441406 C 41.855469 -46.023438 41.855469 -45.691406 41.855469 -45.609375 Z M 42.441406 -34.851562 C 42.355469 -32.769531 42.191406 -31.601562 42.023438 -31.433594 C 41.773438 -31.183594 41.691406 -33.183594 41.941406 -34.101562 C 42.023438 -34.269531 42.105469 -35.4375 42.191406 -36.519531 C 42.191406 -37.6875 42.273438 -38.855469 42.273438 -39.019531 C 42.523438 -39.773438 42.523438 -37.855469 42.441406 -34.851562 Z M 52.613281 -83.796875 C 52.445312 -83.128906 52.027344 -82.128906 51.613281 -81.460938 C 51.277344 -80.710938 50.777344 -79.628906 50.527344 -78.960938 C 50.195312 -78.292969 49.777344 -77.210938 49.527344 -76.625 C 49.195312 -75.792969 49.109375 -75.375 49.277344 -75.125 C 49.359375 -74.792969 49.277344 -74.707031 49.027344 -74.792969 C 48.609375 -74.792969 48.441406 -74.289062 48.777344 -74.125 C 49.027344 -73.957031 48.859375 -73.625 48.277344 -72.789062 C 47.609375 -71.871094 47.441406 -71.621094 47.777344 -71.457031 C 47.941406 -71.207031 47.941406 -71.121094 47.691406 -71.121094 C 47.527344 -71.207031 47.359375 -70.871094 47.277344 -70.539062 C 47.027344 -69.453125 46.859375 -68.953125 46.691406 -69.121094 C 46.609375 -69.203125 46.359375 -68.453125 46.191406 -67.539062 C 46.023438 -66.535156 45.691406 -65.621094 45.523438 -65.535156 C 45.273438 -65.371094 45.109375 -64.785156 44.941406 -64.285156 C 44.859375 -63.785156 44.523438 -62.867188 44.191406 -62.367188 C 43.859375 -61.785156 43.441406 -60.367188 43.023438 -59.03125 C 42.605469 -56.949219 42.523438 -56.699219 42.105469 -56.699219 C 41.855469 -56.699219 41.691406 -56.78125 41.691406 -56.863281 C 41.855469 -57.613281 43.859375 -63.367188 44.359375 -64.535156 C 44.773438 -65.371094 45.273438 -66.953125 45.609375 -68.121094 C 45.941406 -69.289062 46.441406 -70.707031 46.777344 -71.207031 C 47.109375 -71.789062 47.527344 -72.707031 47.691406 -73.125 C 47.777344 -73.707031 48.027344 -74.375 48.109375 -74.539062 C 48.277344 -74.792969 48.695312 -75.707031 49.109375 -76.625 C 49.527344 -77.542969 50.109375 -79.042969 50.609375 -80.042969 C 51.027344 -80.960938 51.363281 -81.796875 51.277344 -81.960938 C 51.277344 -82.128906 51.613281 -82.796875 52.027344 -83.546875 L 52.945312 -84.878906 Z M 48.359375 -85.878906 C 48.527344 -85.964844 48.777344 -86.714844 49.027344 -87.296875 C 49.109375 -87.964844 49.359375 -88.464844 49.527344 -88.464844 C 49.527344 -88.464844 49.777344 -88.882812 50.027344 -89.382812 C 50.277344 -90.050781 50.359375 -90.132812 50.359375 -89.800781 C 50.359375 -89.382812 50.027344 -88.546875 49.609375 -87.714844 C 48.609375 -85.378906 48.359375 -85.046875 48.191406 -85.296875 C 48.109375 -85.464844 48.191406 -85.628906 48.359375 -85.878906 Z M 46.191406 -80.878906 C 46.359375 -81.378906 46.609375 -81.960938 46.777344 -82.296875 C 47.277344 -83.378906 47.941406 -84.628906 48.109375 -84.628906 C 48.191406 -84.546875 47.777344 -83.296875 47.191406 -81.796875 C 46.609375 -80.292969 46.023438 -79.042969 45.941406 -79.042969 C 45.691406 -79.042969 45.691406 -79.960938 46.191406 -80.878906 Z M 39.855469 -64.453125 C 40.523438 -66.703125 40.6875 -66.953125 40.855469 -67.453125 C 41.023438 -67.621094 41.355469 -68.289062 41.523438 -68.953125 C 42.023438 -70.371094 44.359375 -76.125 44.941406 -77.460938 C 45.441406 -78.542969 45.941406 -78.792969 45.773438 -77.960938 C 45.691406 -77.710938 45.441406 -77.210938 45.191406 -76.792969 C 44.941406 -76.375 44.691406 -75.707031 44.691406 -75.125 L 44.691406 -74.125 L 45.109375 -75.207031 C 45.773438 -76.625 47.191406 -80.042969 47.527344 -80.960938 C 47.609375 -81.378906 47.777344 -81.796875 47.941406 -82.046875 C 48.109375 -82.210938 48.609375 -83.378906 49.109375 -84.628906 C 50.609375 -88.214844 52.027344 -91.132812 52.277344 -91.132812 C 52.527344 -91.132812 52.363281 -90.132812 51.945312 -89.800781 C 51.777344 -89.632812 51.527344 -89.300781 51.445312 -89.050781 C 51.277344 -88.714844 51.195312 -88.464844 51.195312 -88.464844 C 51.195312 -88.464844 51.113281 -88.296875 50.945312 -88.046875 C 50.859375 -87.882812 50.609375 -87.132812 50.277344 -86.378906 C 50.027344 -85.714844 49.527344 -84.628906 49.277344 -83.960938 C 49.027344 -83.296875 48.695312 -82.710938 48.609375 -82.546875 C 48.527344 -82.460938 48.109375 -81.542969 47.777344 -80.628906 C 47.441406 -79.628906 46.859375 -78.210938 46.609375 -77.375 C 46.277344 -76.625 46.023438 -75.707031 45.859375 -75.292969 C 45.691406 -74.957031 45.191406 -73.707031 44.773438 -72.707031 C 42.941406 -67.953125 41.1875 -63.453125 40.855469 -62.285156 C 40.355469 -60.617188 40.273438 -60.617188 40.105469 -61.699219 C 40.023438 -62.199219 39.855469 -62.617188 39.6875 -62.617188 C 39.355469 -62.699219 39.4375 -63.035156 39.855469 -64.453125 Z M 39.4375 -49.777344 C 39.605469 -49.777344 39.6875 -49.445312 39.605469 -49.195312 C 39.523438 -48.859375 39.355469 -48.609375 39.1875 -48.609375 C 38.9375 -48.695312 38.9375 -48.609375 39.105469 -48.441406 C 39.523438 -48.027344 39.105469 -45.773438 38.605469 -45.023438 C 38.355469 -44.773438 37.855469 -43.191406 37.519531 -41.605469 C 37.1875 -40.023438 36.769531 -38.519531 36.601562 -38.355469 C 36.519531 -38.269531 36.351562 -37.855469 36.269531 -37.4375 C 36.1875 -37.019531 35.851562 -36.1875 35.6875 -35.601562 C 35.351562 -34.769531 35.4375 -34.601562 35.6875 -34.851562 C 35.9375 -35.1875 35.9375 -35.101562 35.851562 -34.519531 C 35.769531 -34.101562 35.519531 -33.683594 35.4375 -33.601562 C 35.269531 -33.519531 35.019531 -32.601562 34.851562 -31.351562 C 34.6875 -30.265625 34.351562 -29.265625 34.269531 -29.265625 C 34.101562 -29.265625 34.019531 -28.847656 33.851562 -28.265625 C 33.769531 -27.683594 33.851562 -27.265625 34.019531 -27.265625 C 34.269531 -27.265625 34.269531 -27.015625 34.101562 -26.597656 C 33.933594 -26.265625 33.683594 -25.929688 33.601562 -25.847656 C 33.351562 -25.679688 31.683594 -17.34375 31.765625 -16.925781 C 31.851562 -16.757812 31.683594 -15.675781 31.351562 -14.507812 C 31.101562 -13.425781 30.683594 -11.421875 30.601562 -10.089844 C 30.433594 -8.671875 30.265625 -7.585938 30.101562 -7.421875 C 29.433594 -6.921875 30.351562 -14.175781 31.601562 -20.429688 C 33.269531 -28.097656 35.519531 -37.6875 35.769531 -38.355469 C 35.851562 -38.769531 36.269531 -40.023438 36.601562 -41.273438 C 38.4375 -48.027344 38.9375 -49.777344 39.4375 -49.777344 Z M 37.605469 -57.78125 C 37.9375 -58.03125 37.9375 -57.613281 37.6875 -56.863281 C 37.605469 -56.613281 37.6875 -56.53125 37.9375 -56.449219 C 38.355469 -56.449219 38.605469 -54.53125 38.1875 -54.113281 C 37.9375 -53.863281 36.019531 -47.691406 35.6875 -46.023438 C 35.519531 -45.691406 35.101562 -44.023438 34.601562 -42.441406 C 34.183594 -40.773438 33.101562 -36.269531 32.269531 -32.351562 C 31.265625 -27.347656 30.683594 -25.179688 30.351562 -24.929688 C 30.101562 -24.679688 30.101562 -24.429688 30.183594 -24.261719 C 30.515625 -24.097656 29.265625 -17.925781 28.765625 -17.425781 C 28.515625 -17.257812 28.433594 -17.007812 28.597656 -16.757812 C 28.933594 -16.175781 28.347656 -12.089844 27.933594 -11.507812 C 27.597656 -11.089844 27.515625 -11.171875 27.683594 -12.007812 C 27.765625 -14.089844 28.347656 -17.675781 29.265625 -21.929688 C 29.933594 -25.265625 30.015625 -26.179688 29.683594 -25.847656 C 29.015625 -24.929688 27.097656 -13.925781 26.765625 -9.421875 C 26.765625 -8.921875 26.679688 -8.421875 26.679688 -8.421875 C 26.429688 -8.421875 26.347656 -8.753906 26.515625 -9.089844 C 26.679688 -9.339844 26.597656 -9.503906 26.429688 -9.671875 C 26.347656 -9.753906 26.347656 -10.171875 26.597656 -10.589844 C 26.765625 -11.007812 26.765625 -11.421875 26.679688 -11.507812 C 26.515625 -11.671875 26.515625 -12.671875 26.597656 -13.675781 C 26.765625 -16.175781 29.265625 -28.515625 29.683594 -29.433594 C 29.933594 -29.765625 30.015625 -30.515625 30.101562 -31.015625 C 30.183594 -31.601562 30.601562 -33.683594 31.015625 -35.519531 C 31.515625 -37.519531 32.351562 -40.855469 32.933594 -43.023438 C 33.433594 -45.191406 34.269531 -47.859375 34.6875 -49.027344 C 35.101562 -50.109375 35.4375 -51.195312 35.351562 -51.277344 C 35.269531 -51.613281 37.269531 -57.449219 37.605469 -57.78125 Z M 53.945312 -120.066406 C 54.195312 -120.316406 59.367188 -121.234375 59.867188 -121.148438 C 60.117188 -121.148438 58.949219 -120.816406 57.363281 -120.484375 C 54.445312 -119.898438 53.613281 -119.816406 53.945312 -120.066406 Z M 6.421875 -100.386719 C 6.171875 -100.386719 6.671875 -101.054688 7.171875 -101.304688 C 7.421875 -101.472656 7.835938 -101.722656 8.085938 -101.890625 C 8.671875 -102.390625 11.921875 -104.222656 12.839844 -104.722656 C 13.339844 -104.972656 15.089844 -105.808594 16.757812 -106.726562 C 22.511719 -109.558594 32.769531 -113.730469 40.105469 -116.230469 C 45.523438 -118.066406 51.445312 -119.734375 52.695312 -119.816406 C 54.03125 -119.984375 53.277344 -119.734375 50.277344 -118.980469 C 48.945312 -118.648438 47.527344 -118.230469 47.027344 -118.066406 C 46.609375 -117.898438 44.773438 -117.230469 42.855469 -116.730469 C 41.105469 -116.148438 37.519531 -114.898438 34.9375 -113.980469 C 28.683594 -111.726562 15.257812 -105.808594 13.425781 -104.558594 C 13.007812 -104.308594 12.171875 -103.808594 11.507812 -103.390625 C 10.839844 -103.140625 9.421875 -102.222656 8.421875 -101.554688 C 7.335938 -100.972656 6.503906 -100.386719 6.421875 -100.386719 Z M 40.023438 -114.980469 C 39.523438 -114.644531 37.855469 -114.144531 38.1875 -114.480469 C 38.355469 -114.644531 38.9375 -114.898438 39.4375 -114.980469 C 40.273438 -115.3125 40.355469 -115.3125 40.023438 -114.980469 Z M 37.6875 -114.144531 C 37.605469 -113.980469 37.019531 -113.730469 36.519531 -113.644531 C 36.019531 -113.480469 35.4375 -113.3125 35.269531 -113.144531 C 34.851562 -112.894531 32.269531 -112.226562 32.519531 -112.476562 C 33.019531 -112.894531 37.9375 -114.480469 37.6875 -114.144531 Z M 30.851562 -111.5625 C 30.183594 -111.3125 29.597656 -111.0625 29.433594 -111.0625 C 29.183594 -111.144531 30.933594 -112.0625 31.601562 -112.226562 C 32.601562 -112.394531 32.183594 -112.0625 30.851562 -111.5625 Z M 28.597656 -110.8125 C 28.097656 -110.394531 26.097656 -109.558594 26.097656 -109.808594 C 26.097656 -109.894531 26.765625 -110.144531 27.597656 -110.5625 C 28.433594 -110.894531 28.847656 -110.976562 28.597656 -110.8125 Z M 25.347656 -109.308594 C 25.097656 -109.058594 24.761719 -108.894531 24.511719 -108.894531 C 24.429688 -108.894531 24.597656 -109.144531 24.847656 -109.308594 C 25.179688 -109.476562 25.515625 -109.726562 25.679688 -109.644531 C 25.847656 -109.644531 25.765625 -109.476562 25.347656 -109.308594 Z M 22.761719 -108.308594 C 22.761719 -108.308594 22.511719 -108.058594 22.179688 -107.976562 C 21.929688 -107.808594 21.679688 -107.808594 21.679688 -107.894531 C 21.679688 -107.894531 22.011719 -108.144531 22.261719 -108.226562 C 22.511719 -108.394531 22.847656 -108.394531 22.761719 -108.308594 Z M 16.925781 -105.640625 C 16.925781 -105.640625 16.757812 -105.476562 16.675781 -105.390625 C 16.507812 -105.390625 16.425781 -105.390625 16.425781 -105.558594 C 16.507812 -105.726562 16.59375 -105.808594 16.757812 -105.808594 C 16.84375 -105.808594 17.007812 -105.726562 16.925781 -105.640625 Z M 38.9375 -112.0625 C 37.355469 -111.394531 35.519531 -110.5625 35.019531 -110.144531 C 34.269531 -109.644531 33.519531 -109.308594 32.769531 -109.226562 C 32.101562 -109.144531 31.515625 -109.058594 31.433594 -108.894531 C 31.433594 -108.808594 30.683594 -108.308594 29.683594 -107.894531 C 28.765625 -107.558594 27.683594 -106.976562 27.265625 -106.808594 C 26.929688 -106.640625 25.597656 -106.140625 24.347656 -105.640625 C 22.179688 -104.808594 21.929688 -104.722656 19.011719 -103.308594 C 18.175781 -102.890625 16.757812 -102.222656 15.84375 -101.890625 C 15.007812 -101.472656 13.757812 -100.890625 13.175781 -100.554688 C 12.171875 -99.972656 11.257812 -99.804688 11.257812 -100.136719 C 11.339844 -100.304688 19.34375 -105.058594 19.761719 -104.972656 C 19.761719 -104.972656 20.761719 -105.476562 21.929688 -106.058594 C 23.011719 -106.640625 24.347656 -107.308594 24.847656 -107.476562 C 25.429688 -107.640625 27.347656 -108.476562 29.265625 -109.308594 C 31.183594 -110.144531 32.851562 -110.8125 33.019531 -110.8125 C 33.269531 -110.8125 33.351562 -110.894531 33.433594 -111.0625 C 33.433594 -111.144531 33.851562 -111.394531 34.4375 -111.5625 C 34.9375 -111.726562 35.519531 -111.976562 35.6875 -112.226562 C 35.851562 -112.476562 36.019531 -112.5625 35.9375 -112.3125 C 35.9375 -112.144531 36.1875 -112.144531 36.9375 -112.394531 C 37.605469 -112.5625 38.105469 -112.5625 38.269531 -112.476562 C 38.4375 -112.3125 38.769531 -112.5625 39.105469 -112.894531 C 39.773438 -113.480469 40.6875 -113.730469 41.4375 -113.480469 C 41.605469 -113.394531 40.6875 -112.894531 38.9375 -112.0625 Z M 41.941406 -115.898438 C 42.191406 -116.148438 42.605469 -116.3125 42.855469 -116.3125 C 43.105469 -116.230469 44.191406 -116.5625 45.109375 -116.8125 C 48.359375 -117.898438 49.609375 -118.230469 50.359375 -118.398438 C 51.527344 -118.480469 50.609375 -118.148438 48.441406 -117.566406 C 47.441406 -117.230469 46.277344 -116.898438 45.773438 -116.730469 C 45.273438 -116.5625 44.273438 -116.230469 43.441406 -115.980469 C 41.773438 -115.398438 41.4375 -115.398438 41.941406 -115.898438 Z M 52.445312 -115.3125 C 52.113281 -115.230469 52.113281 -115.3125 52.363281 -115.5625 C 52.613281 -115.648438 52.777344 -115.730469 52.863281 -115.648438 C 52.945312 -115.5625 52.777344 -115.480469 52.445312 -115.3125 Z M 56.53125 -116.3125 C 56.449219 -116.148438 56.113281 -116.0625 55.949219 -116.0625 C 55.445312 -116.0625 55.613281 -116.3125 56.199219 -116.398438 C 56.449219 -116.480469 56.613281 -116.398438 56.53125 -116.3125 Z M 56.699219 -117.566406 C 55.863281 -117.230469 55.03125 -116.980469 54.78125 -116.980469 C 54.195312 -117.0625 52.445312 -116.5625 50.609375 -115.8125 C 49.859375 -115.480469 48.945312 -115.148438 48.527344 -114.980469 C 47.941406 -114.730469 47.941406 -114.730469 48.695312 -114.8125 C 49.195312 -114.8125 49.445312 -114.730469 49.359375 -114.5625 C 49.277344 -114.480469 48.945312 -114.3125 48.777344 -114.394531 C 48.527344 -114.394531 47.609375 -114.0625 46.859375 -113.8125 C 45.191406 -113.0625 44.109375 -112.980469 45.359375 -113.730469 C 45.773438 -113.980469 46.109375 -114.230469 46.191406 -114.394531 C 46.277344 -114.730469 45.523438 -114.644531 43.941406 -114.0625 C 41.4375 -113.0625 41.691406 -113.480469 44.359375 -114.5625 C 45.691406 -115.148438 46.859375 -115.648438 47.027344 -115.648438 C 47.109375 -115.648438 47.777344 -115.898438 48.441406 -116.0625 C 49.109375 -116.3125 50.945312 -116.898438 52.613281 -117.148438 C 54.28125 -117.566406 56.113281 -117.980469 56.78125 -118.148438 C 57.863281 -118.480469 59.53125 -118.480469 58.53125 -118.230469 C 58.367188 -118.148438 57.53125 -117.816406 56.699219 -117.566406 Z M 59.617188 -116.730469 C 59.367188 -116.5625 58.949219 -116.398438 58.699219 -116.398438 C 58.199219 -116.398438 58.449219 -116.648438 59.367188 -116.898438 C 60.117188 -117.148438 60.117188 -117.0625 59.617188 -116.730469 Z M 62.953125 -117.398438 C 62.535156 -117.148438 61.285156 -117.0625 61.535156 -117.316406 C 61.617188 -117.480469 62.035156 -117.566406 62.367188 -117.566406 C 62.699219 -117.480469 62.953125 -117.398438 62.953125 -117.398438 Z M 63.617188 -117.730469 C 63.703125 -117.816406 64.035156 -117.980469 64.367188 -117.898438 C 64.785156 -117.898438 64.785156 -117.816406 64.453125 -117.648438 C 63.867188 -117.316406 63.367188 -117.398438 63.617188 -117.730469 Z M 67.035156 -117.980469 C 66.871094 -117.898438 66.285156 -117.730469 65.871094 -117.816406 C 64.953125 -117.898438 65.203125 -117.980469 66.453125 -118.148438 C 67.203125 -118.230469 67.371094 -118.148438 67.035156 -117.980469 Z M 66.621094 -121.898438 C 65.703125 -121.734375 64.285156 -121.566406 63.453125 -121.484375 C 61.285156 -121.148438 61.117188 -121.316406 63.285156 -121.734375 C 64.367188 -121.984375 65.953125 -122.152344 66.785156 -122.152344 L 68.289062 -122.152344 Z M 68.953125 -118.230469 C 68.539062 -118.230469 68.371094 -118.316406 68.621094 -118.398438 C 68.789062 -118.398438 69.121094 -118.398438 69.289062 -118.316406 C 69.539062 -118.230469 69.453125 -118.148438 68.953125 -118.230469 Z M 50.945312 -53.277344 C 50.945312 -52.945312 50.945312 -52.863281 51.113281 -53.027344 C 51.195312 -53.277344 51.277344 -53.53125 51.195312 -53.613281 C 51.113281 -53.695312 51.027344 -53.53125 50.945312 -53.277344 Z M 47.277344 -59.617188 C 47.191406 -59.199219 47.191406 -59.199219 47.359375 -59.367188 C 47.527344 -59.53125 47.527344 -59.867188 47.441406 -59.949219 C 47.359375 -60.03125 47.277344 -59.867188 47.277344 -59.617188 Z M 47.277344 -59.617188 "/></g></g></g><g fill="#ffffff" fill-opacity="1"><g transform="translate(154.737753, 272.149972)"><g><path d="M 0.832031 -15.84375 C 1.417969 -15.757812 1.917969 -15.757812 2.085938 -15.757812 C 2.167969 -15.757812 2.085938 -15.925781 1.917969 -16.257812 C 1.75 -16.59375 1.835938 -16.925781 1.917969 -17.007812 C 2.085938 -17.175781 2.25 -17.675781 2.167969 -18.261719 C 2.085938 -19.261719 4.585938 -26.265625 6.503906 -30.265625 C 7.253906 -31.851562 8.339844 -34.183594 9.003906 -35.519531 C 11.171875 -40.273438 18.925781 -52.613281 22.429688 -56.949219 C 23.097656 -57.78125 24.511719 -59.53125 25.429688 -60.785156 C 27.933594 -64.117188 29.933594 -65.871094 30.265625 -65.371094 C 30.433594 -64.953125 30.515625 -65.035156 30.433594 -65.453125 C 30.515625 -65.871094 30.683594 -66.203125 31.015625 -66.203125 C 31.351562 -66.285156 31.765625 -65.703125 32.101562 -63.953125 C 33.101562 -59.199219 33.933594 -56.949219 35.351562 -54.863281 C 36.601562 -52.695312 38.9375 -50.777344 39.9375 -50.859375 C 40.273438 -50.945312 40.355469 -50.777344 40.273438 -50.609375 C 40.1875 -50.527344 40.855469 -50.359375 41.523438 -50.359375 C 42.773438 -50.445312 42.941406 -50.445312 43.023438 -51.863281 C 43.105469 -53.113281 42.941406 -53.53125 42.273438 -53.945312 C 40.855469 -55.03125 40.355469 -56.199219 40.105469 -59.117188 C 39.605469 -62.867188 37.9375 -66.953125 35.9375 -68.621094 C 33.601562 -70.621094 29.765625 -71.371094 27.265625 -70.371094 C 25.265625 -69.621094 22.929688 -67.453125 23.261719 -66.871094 C 23.429688 -66.621094 23.347656 -66.371094 23.179688 -66.453125 C 22.761719 -66.703125 18.011719 -61.535156 18.011719 -60.785156 C 18.09375 -60.617188 18.675781 -61.199219 19.511719 -62.035156 C 21.59375 -64.703125 21.261719 -63.785156 18.925781 -60.785156 C 17.425781 -58.867188 16.925781 -58.449219 17.175781 -59.199219 C 17.257812 -60.199219 17.257812 -60.199219 16.757812 -59.53125 C 16.34375 -59.199219 16.175781 -58.53125 16.175781 -58.03125 C 16.09375 -57.449219 16.007812 -57.03125 15.757812 -57.03125 C 15.507812 -57.03125 14.675781 -56.199219 13.925781 -55.28125 C 12.007812 -52.613281 12.007812 -52.113281 13.839844 -54.613281 C 14.757812 -55.699219 15.59375 -56.53125 15.675781 -56.199219 C 15.675781 -55.53125 21.679688 -63.367188 21.59375 -64.117188 C 21.511719 -64.453125 21.679688 -64.703125 21.929688 -64.703125 C 22.261719 -64.617188 23.179688 -65.453125 24.011719 -66.371094 C 25.847656 -68.289062 27.347656 -69.539062 27.847656 -69.539062 C 28.433594 -69.621094 28.097656 -68.871094 27.433594 -68.539062 C 26.929688 -68.371094 26.679688 -67.953125 26.679688 -67.621094 C 26.765625 -67.285156 26.515625 -67.121094 26.347656 -67.203125 C 25.929688 -67.453125 21.84375 -63.035156 21.929688 -62.367188 C 21.929688 -62.199219 21.011719 -60.785156 19.925781 -59.28125 C 16.59375 -55.113281 13.589844 -50.695312 12.839844 -49.359375 C 12.507812 -48.695312 12.007812 -48.191406 11.671875 -48.109375 C 11.339844 -48.109375 11.171875 -48.027344 11.421875 -47.691406 C 11.507812 -47.527344 11.257812 -46.777344 10.839844 -46.109375 C 10.339844 -45.441406 9.421875 -43.941406 8.839844 -42.773438 C 8.253906 -41.605469 7.753906 -41.105469 7.753906 -41.355469 C 7.753906 -41.773438 7.753906 -42.191406 8.003906 -42.355469 C 8.171875 -42.441406 8.503906 -43.355469 8.671875 -44.441406 C 8.753906 -45.441406 9.253906 -46.609375 9.671875 -47.027344 C 10.003906 -47.441406 10.253906 -47.941406 10.089844 -48.109375 C 9.921875 -48.277344 11.421875 -52.695312 13.425781 -57.949219 C 15.507812 -63.285156 17.175781 -68.289062 17.425781 -69.371094 C 17.757812 -71.121094 17.757812 -71.121094 16.425781 -72.207031 C 15.675781 -72.707031 14.507812 -73.207031 14.007812 -73.207031 C 11.757812 -73.207031 10.171875 -72.707031 9.753906 -71.957031 C 9.003906 -70.789062 3.25 -55.363281 2.835938 -52.945312 C 2.585938 -52.195312 2.167969 -50.859375 1.667969 -49.195312 C 1.25 -48.277344 0.582031 -45.941406 0.0820312 -44.273438 C -0.417969 -42.523438 -1 -40.855469 -1.167969 -40.523438 C -1.667969 -39.273438 -4.167969 -29.933594 -4.253906 -28.683594 C -4.335938 -27.933594 -4.503906 -27.265625 -4.667969 -26.929688 C -4.917969 -26.679688 -5.003906 -26.097656 -5.003906 -25.679688 C -5.085938 -25.265625 -5.167969 -24.679688 -5.335938 -24.261719 C -5.503906 -23.929688 -5.585938 -22.679688 -5.503906 -21.59375 C -5.253906 -19.761719 -5.085938 -19.425781 -3.417969 -18.011719 C -2.335938 -17.09375 -1.417969 -16.675781 -1 -16.84375 C -0.667969 -17.007812 -0.417969 -16.925781 -0.332031 -16.507812 C -0.332031 -16.175781 0.0820312 -15.84375 0.832031 -15.84375 Z M -0.25 -32.519531 C -0.917969 -29.597656 -2.417969 -25.429688 -2.5 -25.929688 C -2.667969 -26.679688 -1.917969 -29.683594 -0.667969 -34.4375 C 1.082031 -40.4375 1.082031 -40.523438 1.835938 -42.855469 C 2.25 -43.859375 2.585938 -45.359375 2.667969 -46.191406 C 2.75 -46.859375 3 -47.777344 3.25 -48.109375 C 3.417969 -48.527344 3.835938 -49.527344 4.085938 -50.277344 C 4.753906 -52.777344 8.253906 -61.699219 8.421875 -61.535156 C 8.589844 -61.449219 7.753906 -58.949219 6.753906 -55.863281 C 5.753906 -52.863281 4.835938 -49.777344 4.667969 -49.195312 C 4.667969 -48.609375 4.335938 -47.777344 4.085938 -47.191406 C 3.835938 -46.777344 3.167969 -44.609375 2.585938 -42.441406 C 2 -40.355469 1.25 -37.6875 0.917969 -36.769531 C 0.582031 -35.851562 0 -33.933594 -0.25 -32.519531 Z M 2.75 -31.851562 C 2.417969 -31.015625 2.085938 -30.183594 1.835938 -30.183594 C 1.585938 -30.183594 1.5 -30.433594 1.585938 -30.683594 C 1.667969 -31.015625 2.335938 -33.101562 2.917969 -35.1875 C 3.5 -37.355469 4.503906 -40.4375 5.085938 -42.023438 C 5.753906 -43.691406 6.171875 -45.191406 6.171875 -45.359375 C 6.085938 -46.023438 8.003906 -51.113281 8.253906 -50.945312 C 8.339844 -50.945312 7.585938 -48.277344 6.503906 -45.023438 C 4.667969 -39.273438 3.917969 -36.9375 3.585938 -34.6875 C 3.417969 -34.101562 3 -32.851562 2.75 -31.851562 Z M 5.835938 -31.851562 C 5.585938 -31.683594 5.085938 -31.433594 4.917969 -31.351562 C 4.667969 -31.351562 4.667969 -31.433594 5.003906 -31.601562 C 5.167969 -31.683594 5.417969 -32.269531 5.335938 -32.851562 C 5.335938 -33.351562 5.417969 -33.851562 5.667969 -34.019531 C 5.835938 -34.183594 6.335938 -35.351562 6.835938 -36.601562 C 7.171875 -37.855469 7.921875 -39.105469 8.253906 -39.1875 C 9.421875 -39.855469 10.003906 -40.355469 9.339844 -40.773438 C 8.671875 -41.105469 10.253906 -43.691406 11.089844 -43.441406 C 11.507812 -43.273438 11.589844 -43.355469 11.339844 -43.941406 C 11.257812 -44.441406 11.339844 -45.191406 12.007812 -45.941406 C 12.421875 -46.691406 12.757812 -47.027344 12.921875 -46.777344 C 12.921875 -46.441406 13.089844 -46.359375 13.339844 -46.527344 C 13.507812 -46.691406 13.507812 -47.027344 13.339844 -47.277344 C 13.007812 -47.941406 14.425781 -50.445312 15.175781 -50.527344 C 15.425781 -50.527344 15.757812 -51.113281 15.84375 -51.445312 C 16.007812 -52.695312 22.511719 -61.535156 25.929688 -65.203125 C 27.265625 -66.785156 28.765625 -68.039062 29.183594 -68.039062 C 29.683594 -68.121094 29.933594 -68.039062 29.683594 -67.789062 C 29.433594 -67.621094 29.347656 -67.453125 28.265625 -67.285156 C 28.015625 -67.203125 27.933594 -67.035156 28.183594 -66.785156 C 28.347656 -66.535156 28.183594 -66.203125 27.765625 -66.121094 C 26.347656 -65.371094 24.011719 -62.699219 23.679688 -61.285156 C 23.429688 -60.535156 23.097656 -59.78125 22.761719 -59.78125 C 22.597656 -59.699219 21.929688 -59.199219 21.511719 -58.449219 C 21.011719 -57.53125 20.09375 -56.28125 19.511719 -55.363281 C 18.175781 -53.78125 15.007812 -48.441406 13.175781 -45.191406 C 12.507812 -44.109375 11.089844 -41.605469 10.089844 -39.773438 C 9.003906 -37.855469 7.753906 -35.519531 7.335938 -34.4375 C 6.835938 -33.433594 6.253906 -32.269531 5.835938 -31.851562 Z M 11.671875 -44.691406 C 11.589844 -44.109375 11.671875 -44.109375 12.089844 -44.523438 C 12.757812 -45.191406 12.757812 -45.441406 12.257812 -45.359375 C 12.007812 -45.359375 11.757812 -45.109375 11.671875 -44.691406 Z M 10.339844 -48.441406 C 10.421875 -47.859375 10.671875 -48.027344 11.089844 -49.027344 C 11.507812 -49.945312 11.421875 -49.945312 10.839844 -49.359375 C 10.589844 -49.027344 10.339844 -48.609375 10.339844 -48.441406 Z M 10.339844 -48.441406 "/></g></g></g><g fill="#ffffff" fill-opacity="1"><g transform="translate(204.674537, 272.149972)"><g><path d="M 55.699219 -42.523438 C 54.53125 -41.355469 53.277344 -40.1875 52.445312 -39.4375 C 49.609375 -36.601562 46.191406 -33.519531 46.023438 -33.601562 C 45.859375 -33.851562 47.527344 -35.6875 48.027344 -35.851562 C 48.441406 -36.019531 49.945312 -37.769531 49.695312 -37.769531 C 49.609375 -37.769531 48.527344 -36.855469 47.277344 -35.6875 C 46.109375 -34.601562 44.773438 -33.351562 44.273438 -33.019531 C 43.773438 -32.683594 43.273438 -32.183594 43.023438 -32.019531 C 42.191406 -31.101562 38.6875 -29.015625 38.269531 -29.015625 C 37.605469 -29.183594 37.4375 -30.683594 37.519531 -37.855469 C 37.6875 -51.777344 37.6875 -52.945312 37.269531 -53.695312 C 37.105469 -54.113281 36.769531 -54.695312 36.6875 -55.113281 C 36.101562 -56.28125 35.351562 -56.863281 34.269531 -56.863281 C 33.433594 -56.863281 33.183594 -56.949219 33.183594 -57.199219 C 33.183594 -57.613281 33.101562 -57.613281 32.433594 -57.449219 C 31.765625 -57.363281 31.683594 -57.363281 31.933594 -57.699219 C 32.269531 -58.03125 32.351562 -58.03125 33.101562 -57.699219 C 33.933594 -57.363281 35.769531 -57.199219 36.019531 -57.449219 C 36.351562 -57.78125 35.6875 -61.617188 35.019531 -63.453125 C 34.351562 -65.035156 34.019531 -65.621094 32.519531 -67.121094 C 31.515625 -68.039062 30.601562 -68.871094 30.433594 -68.871094 C 30.351562 -68.871094 29.683594 -69.203125 29.097656 -69.703125 C 28.433594 -70.039062 27.347656 -70.621094 26.765625 -70.789062 C 25.179688 -71.289062 22.429688 -71.289062 21.511719 -70.789062 C 21.09375 -70.621094 20.261719 -70.207031 19.511719 -69.871094 C 17.675781 -69.039062 14.839844 -66.203125 12.839844 -63.117188 C 11.921875 -61.785156 11.089844 -60.449219 10.921875 -60.117188 C 10.757812 -59.867188 10.339844 -59.617188 10.089844 -59.617188 C 9.171875 -59.617188 8.753906 -59.117188 7.835938 -57.113281 C 7.421875 -56.113281 6.921875 -55.363281 6.835938 -55.363281 C 6.671875 -55.363281 6.335938 -54.695312 6.003906 -53.863281 C 5.585938 -53.027344 5.085938 -52.195312 4.835938 -51.945312 C 4.167969 -51.195312 1.835938 -46.691406 1.835938 -46.109375 C 1.835938 -45.773438 1.75 -45.523438 1.667969 -45.441406 C 1.417969 -45.441406 -0.917969 -40.4375 -0.917969 -39.9375 C -0.917969 -39.773438 -1 -39.523438 -1.082031 -39.4375 C -1.75 -38.605469 -5.167969 -27.265625 -5.167969 -25.765625 C -5.167969 -25.265625 -4.335938 -23.847656 -3.835938 -23.429688 C -3.753906 -23.429688 -3.5 -22.929688 -3.25 -22.429688 C -3.085938 -21.84375 -2.667969 -21.34375 -2.417969 -21.261719 C -2.085938 -21.179688 -1.917969 -21.011719 -1.917969 -20.929688 C -1.917969 -20.679688 0.0820312 -19.675781 0.5 -19.675781 C 0.582031 -19.675781 1 -19.425781 1.25 -19.175781 C 1.917969 -18.675781 2.585938 -18.675781 4.503906 -19.09375 C 5.167969 -19.175781 8.003906 -21.84375 7.835938 -22.179688 C 7.671875 -22.261719 7.835938 -22.679688 8.085938 -23.011719 C 8.421875 -23.347656 9.253906 -24.429688 9.921875 -25.347656 C 11.671875 -27.683594 12.839844 -29.015625 13.175781 -29.015625 C 13.257812 -29.015625 13.425781 -29.015625 13.425781 -29.183594 C 13.425781 -29.265625 13.925781 -29.933594 14.589844 -30.601562 C 17.175781 -33.351562 17.925781 -34.269531 17.925781 -34.351562 C 17.925781 -34.601562 20.09375 -37.269531 21.511719 -38.855469 C 22.179688 -39.523438 22.679688 -40.1875 22.679688 -40.355469 C 22.679688 -40.523438 23.179688 -41.1875 23.679688 -41.773438 C 24.261719 -42.441406 24.679688 -43.023438 24.679688 -43.191406 C 24.679688 -43.355469 24.929688 -43.605469 25.179688 -43.773438 C 25.429688 -43.941406 25.765625 -44.359375 25.929688 -44.773438 C 26.097656 -45.191406 26.347656 -45.523438 26.515625 -45.609375 C 26.765625 -45.691406 27.265625 -46.359375 27.683594 -47.191406 C 28.097656 -47.941406 28.847656 -49.027344 29.347656 -49.445312 L 30.183594 -50.359375 L 30.183594 -42.105469 C 30.183594 -37.1875 30.265625 -33.601562 30.433594 -33.269531 C 30.601562 -32.851562 30.851562 -32.101562 31.015625 -31.515625 C 31.183594 -30.933594 31.683594 -30.101562 32.183594 -29.683594 C 32.683594 -29.183594 33.601562 -28.265625 34.269531 -27.515625 C 34.9375 -26.765625 35.9375 -25.847656 36.519531 -25.515625 C 38.4375 -24.429688 40.4375 -23.429688 40.855469 -23.429688 C 41.4375 -23.429688 44.359375 -24.511719 45.023438 -24.929688 C 45.941406 -25.515625 47.191406 -26.847656 47.359375 -27.433594 C 47.441406 -27.683594 47.777344 -28.015625 48.191406 -28.265625 C 49.027344 -28.597656 52.363281 -31.683594 52.777344 -32.433594 C 53.277344 -33.351562 52.863281 -33.351562 51.863281 -32.519531 C 49.859375 -30.765625 49.027344 -30.101562 48.277344 -29.933594 C 47.941406 -29.765625 47.609375 -29.851562 47.527344 -30.015625 C 47.441406 -30.433594 47.027344 -30.265625 47.027344 -29.765625 C 47.027344 -29.433594 47.027344 -29.433594 46.777344 -29.765625 C 46.527344 -30.015625 46.277344 -30.015625 44.941406 -29.265625 C 44.023438 -28.847656 43.273438 -28.597656 43.273438 -28.765625 C 43.273438 -28.765625 43.605469 -29.015625 44.023438 -29.265625 C 45.191406 -29.683594 48.027344 -31.851562 48.527344 -32.519531 C 48.777344 -33.019531 48.777344 -33.019531 48.277344 -32.851562 C 48.027344 -32.601562 47.691406 -32.351562 47.441406 -32.019531 C 47.191406 -31.765625 46.859375 -31.515625 46.777344 -31.515625 C 46.609375 -31.515625 46.023438 -31.183594 45.441406 -30.765625 C 44.859375 -30.351562 44.359375 -30.015625 44.273438 -30.101562 C 44.273438 -30.183594 45.273438 -31.265625 46.777344 -32.683594 C 48.109375 -34.019531 50.359375 -36.1875 51.613281 -37.4375 C 52.945312 -38.6875 54.113281 -39.773438 54.28125 -39.773438 C 54.445312 -39.773438 54.613281 -39.9375 54.695312 -40.1875 C 54.863281 -40.6875 55.699219 -41.523438 56.363281 -41.941406 C 56.113281 -42.105469 55.949219 -42.355469 55.699219 -42.523438 Z M 4.667969 -48.359375 C 7.585938 -53.613281 8.753906 -55.445312 10.503906 -57.199219 C 11.421875 -58.117188 12.171875 -58.78125 12.089844 -58.617188 C 11.839844 -58.28125 11.339844 -57.363281 8.339844 -52.777344 C 7.835938 -52.027344 7.335938 -51.113281 7.253906 -50.777344 C 7.171875 -50.359375 7.003906 -50.027344 6.835938 -50.027344 C 6.753906 -50.027344 6.585938 -49.859375 6.585938 -49.695312 C 6.585938 -49.359375 6.503906 -49.277344 6.253906 -49.445312 C 5.917969 -49.527344 5.835938 -49.445312 6.003906 -49.109375 C 6.171875 -48.527344 4.667969 -45.859375 4.335938 -46.277344 C 4.253906 -46.441406 4.085938 -46.527344 4.085938 -46.441406 C 4.085938 -46.277344 3.917969 -45.859375 3.585938 -45.523438 C 2.667969 -44.359375 3.167969 -45.609375 4.667969 -48.359375 Z M 3.835938 -44.523438 C 3.835938 -44.441406 3.753906 -44.273438 3.585938 -44.273438 C 3.25 -44.273438 3.25 -44.441406 3.585938 -44.691406 C 3.753906 -44.691406 3.835938 -44.691406 3.835938 -44.523438 Z M -2.5 -29.515625 L -2.917969 -28.847656 L -2.75 -29.597656 C -2.667969 -30.015625 -2.5 -30.515625 -2.335938 -30.765625 C -2.25 -31.015625 -2.167969 -31.015625 -2.167969 -30.601562 C -2.167969 -30.351562 -2.335938 -29.765625 -2.5 -29.515625 Z M -1.25 -25.597656 C -1.5 -25.179688 -1.667969 -25.097656 -1.667969 -25.515625 C -1.667969 -25.597656 -1.5 -25.765625 -1.417969 -25.847656 C -1.25 -25.929688 -1.25 -25.847656 -1.25 -25.597656 Z M -0.5 -34.9375 C -0.417969 -35.601562 -0.417969 -35.519531 -0.75 -34.851562 C -1.167969 -33.851562 -1.25 -33.101562 -0.917969 -33.351562 C -0.75 -33.433594 -0.832031 -33.101562 -1 -32.601562 C -1.167969 -32.019531 -1.25 -31.851562 -1.335938 -32.183594 C -1.417969 -32.519531 -1.5 -32.433594 -1.75 -31.851562 C -2.417969 -30.351562 -2.085938 -31.765625 -1.082031 -34.851562 C 0.75 -40.355469 2.75 -45.023438 3 -44.691406 C 3.167969 -44.609375 3 -44.191406 2.75 -43.691406 C 2.25 -42.523438 1.335938 -40.523438 1.335938 -40.1875 C 1.335938 -40.105469 1.5 -40.105469 1.585938 -40.1875 C 2 -40.4375 1.917969 -39.9375 1.335938 -38.605469 C 1 -38.019531 0.667969 -37.4375 0.5 -37.355469 C 0.25 -37.269531 0.0820312 -37.105469 0.0820312 -36.9375 C 0.0820312 -36.855469 0.25 -36.855469 0.332031 -36.855469 C 0.5 -36.9375 0.5 -36.769531 0.332031 -36.351562 C -0.167969 -34.4375 -0.75 -33.519531 -0.5 -34.9375 Z M 2.585938 -42.023438 C 2.585938 -41.855469 2.417969 -41.355469 2.25 -41.023438 L 1.835938 -40.4375 L 2 -41.023438 C 2.085938 -41.355469 2.25 -41.855469 2.417969 -42.023438 C 2.585938 -42.355469 2.585938 -42.355469 2.585938 -42.023438 Z M 2.585938 -37.105469 C 2.5 -36.519531 2.25 -35.601562 2 -35.351562 C 1.835938 -34.9375 1.335938 -33.601562 0.917969 -32.269531 C -0.0820312 -29.265625 -0.417969 -28.765625 -0.332031 -30.015625 C -0.25 -30.515625 -0.25 -31.015625 -0.0820312 -31.015625 C 0.0820312 -31.015625 0.417969 -31.933594 0.5 -33.019531 C 0.582031 -33.519531 0.75 -33.933594 0.832031 -33.933594 C 1 -34.019531 1.082031 -34.269531 1.082031 -34.601562 C 1.082031 -35.269531 1.835938 -37.269531 2.167969 -37.269531 C 2.25 -37.269531 2.25 -37.355469 2.25 -37.605469 C 2.085938 -37.9375 3.5 -41.105469 3.753906 -40.855469 C 3.753906 -40.773438 3.753906 -40.9375 3.753906 -41.1875 C 3.667969 -41.4375 3.917969 -42.023438 4.335938 -42.691406 C 4.835938 -43.191406 5.085938 -43.691406 5.167969 -43.773438 C 5.253906 -44.523438 5.417969 -45.191406 5.753906 -45.609375 C 6.003906 -45.941406 6.085938 -46.023438 6.085938 -45.941406 C 6.085938 -45.773438 6.253906 -45.859375 6.335938 -46.023438 C 6.503906 -46.191406 6.585938 -46.691406 6.503906 -46.941406 C 6.335938 -47.191406 6.421875 -47.359375 6.585938 -47.277344 C 6.753906 -47.027344 7.421875 -48.359375 7.503906 -49.027344 C 7.503906 -49.277344 7.671875 -49.445312 7.835938 -49.359375 C 8.003906 -49.277344 8.085938 -49.527344 8.003906 -49.777344 C 7.835938 -50.027344 7.921875 -50.027344 8.085938 -49.945312 C 8.253906 -49.859375 8.339844 -49.945312 8.339844 -50.027344 C 8.339844 -50.277344 8.589844 -50.609375 8.839844 -51.027344 C 9.171875 -51.277344 9.339844 -51.777344 9.339844 -52.113281 C 9.339844 -52.363281 9.589844 -52.527344 9.753906 -52.527344 C 10.089844 -52.527344 10.503906 -53.277344 10.253906 -53.53125 C 10.171875 -53.695312 10.339844 -53.78125 10.589844 -53.78125 C 10.757812 -53.78125 10.839844 -53.945312 10.839844 -54.113281 C 10.757812 -54.28125 10.839844 -54.53125 11.089844 -54.53125 C 11.507812 -54.53125 11.421875 -54.363281 10.921875 -53.53125 C 9.253906 -50.859375 5.085938 -42.855469 4.503906 -41.1875 C 4.335938 -40.6875 3.835938 -39.9375 3.5 -39.355469 C 3.167969 -38.769531 2.75 -37.769531 2.585938 -37.105469 Z M 6.671875 -29.183594 C 6.503906 -28.933594 6.253906 -28.765625 6.085938 -28.765625 C 5.753906 -28.765625 5.835938 -29.015625 6.421875 -29.265625 C 6.921875 -29.515625 7.003906 -29.515625 6.671875 -29.183594 Z M 7.753906 -30.515625 C 7.503906 -30.851562 7.835938 -31.101562 8.171875 -30.765625 C 8.339844 -30.601562 8.339844 -30.515625 8.171875 -30.351562 C 8.085938 -30.265625 7.835938 -30.351562 7.753906 -30.515625 Z M 29.265625 -51.863281 C 28.847656 -51.527344 28.183594 -50.527344 27.683594 -49.777344 C 27.265625 -48.945312 26.679688 -48.027344 26.429688 -47.859375 C 26.265625 -47.609375 25.765625 -47.027344 25.515625 -46.527344 C 25.015625 -45.691406 24.097656 -44.609375 23.261719 -43.691406 C 22.511719 -42.855469 19.84375 -39.355469 19.175781 -38.105469 C 18.511719 -37.019531 14.507812 -32.601562 11.257812 -29.433594 C 7.335938 -25.515625 6.671875 -25.515625 10.503906 -29.515625 C 11.921875 -30.933594 13.925781 -33.101562 15.007812 -34.351562 C 16.84375 -36.519531 22.34375 -43.605469 23.179688 -44.941406 C 24.261719 -46.441406 29.597656 -53.53125 29.765625 -53.53125 C 30.265625 -53.53125 29.933594 -52.527344 29.265625 -51.863281 Z M 30.183594 -59.117188 C 29.933594 -58.617188 29.597656 -58.367188 29.433594 -58.367188 C 29.347656 -58.367188 29.183594 -58.03125 29.183594 -57.699219 C 29.183594 -57.363281 28.847656 -56.699219 28.347656 -56.199219 C 27.847656 -55.699219 27.433594 -55.113281 27.433594 -54.945312 C 27.433594 -54.863281 27.265625 -54.363281 27.015625 -54.113281 C 26.765625 -53.78125 26.265625 -53.277344 26.015625 -52.945312 C 25.765625 -52.613281 25.515625 -52.363281 25.347656 -52.527344 C 25.265625 -52.527344 25.179688 -52.527344 25.265625 -52.277344 C 25.429688 -51.777344 24.761719 -50.527344 24.429688 -50.695312 C 24.261719 -50.777344 24.011719 -50.359375 23.761719 -49.777344 C 23.511719 -49.277344 23.179688 -48.777344 22.929688 -48.695312 C 22.679688 -48.609375 22.429688 -48.277344 22.429688 -48.109375 C 22.429688 -47.859375 22.261719 -47.527344 21.929688 -47.359375 C 21.679688 -47.191406 21.429688 -46.941406 21.429688 -46.777344 C 21.429688 -46.609375 21.179688 -46.277344 20.761719 -45.941406 C 20.511719 -45.691406 20.261719 -45.441406 20.34375 -45.191406 C 20.429688 -45.109375 20.261719 -44.773438 20.011719 -44.523438 C 19.675781 -44.273438 19.425781 -43.941406 19.425781 -43.691406 C 19.425781 -43.523438 19.261719 -43.273438 19.011719 -43.191406 C 18.84375 -43.105469 18.675781 -42.855469 18.675781 -42.691406 C 18.675781 -42.441406 18.511719 -42.273438 18.261719 -42.273438 C 18.09375 -42.273438 17.925781 -42.023438 17.925781 -41.691406 C 17.925781 -40.9375 17.925781 -40.9375 18.925781 -41.941406 C 19.511719 -42.523438 19.925781 -43.023438 19.925781 -43.191406 C 19.925781 -43.191406 20.261719 -43.691406 20.59375 -44.273438 C 20.929688 -44.773438 21.179688 -45.359375 21.011719 -45.523438 C 21.011719 -45.691406 21.09375 -45.773438 21.429688 -45.773438 C 21.679688 -45.773438 22.09375 -46.109375 22.261719 -46.441406 C 22.929688 -47.441406 26.265625 -51.863281 26.597656 -52.277344 C 26.765625 -52.445312 26.929688 -52.695312 26.929688 -52.777344 C 26.929688 -53.027344 27.433594 -53.613281 28.097656 -54.28125 C 28.683594 -54.863281 29.183594 -55.613281 29.183594 -55.78125 C 29.183594 -55.949219 29.347656 -56.113281 29.433594 -56.113281 C 29.765625 -56.113281 30.015625 -55.363281 29.851562 -55.03125 C 29.597656 -54.613281 26.515625 -50.527344 25.597656 -49.445312 C 25.265625 -49.027344 24.511719 -48.027344 24.011719 -47.191406 C 21.761719 -44.023438 21.179688 -43.191406 20.429688 -42.441406 C 20.011719 -42.023438 19.675781 -41.605469 19.675781 -41.523438 C 19.675781 -41.4375 19.09375 -40.6875 18.425781 -39.6875 C 17.675781 -38.855469 17.007812 -37.855469 16.757812 -37.605469 C 15.757812 -36.351562 11.339844 -31.515625 9.753906 -29.933594 C 8.503906 -28.765625 8.003906 -28.347656 7.921875 -28.683594 C 7.835938 -28.847656 8.003906 -29.183594 8.253906 -29.265625 C 8.421875 -29.433594 8.589844 -29.683594 8.589844 -29.851562 C 8.589844 -30.015625 8.921875 -30.433594 9.339844 -30.683594 C 9.671875 -30.933594 10.089844 -31.265625 10.253906 -31.515625 C 10.339844 -31.683594 10.671875 -32.101562 11.007812 -32.351562 C 12.089844 -33.433594 13.675781 -35.519531 13.675781 -35.769531 C 13.675781 -35.851562 14.007812 -36.269531 14.425781 -36.601562 C 14.839844 -36.855469 15.175781 -37.269531 15.175781 -37.355469 C 15.175781 -37.605469 15.339844 -37.769531 15.507812 -37.855469 C 15.757812 -37.9375 15.925781 -38.1875 15.925781 -38.4375 C 15.925781 -38.769531 16.175781 -39.019531 16.425781 -39.105469 C 16.925781 -39.1875 17.175781 -40.023438 16.59375 -40.023438 C 16.175781 -40.023438 14.675781 -38.269531 14.839844 -37.9375 C 14.925781 -37.769531 14.675781 -37.519531 14.339844 -37.355469 C 14.007812 -37.269531 13.839844 -36.9375 13.839844 -36.6875 C 13.839844 -36.351562 13.757812 -36.269531 13.507812 -36.351562 C 13.339844 -36.4375 13.175781 -36.351562 13.175781 -36.351562 C 13.175781 -36.1875 12.839844 -35.769531 12.421875 -35.351562 C 11.839844 -34.6875 11.421875 -34.601562 11.007812 -34.601562 C 10.589844 -34.769531 10.339844 -34.6875 10.253906 -34.269531 C 10.171875 -34.019531 9.589844 -33.183594 8.839844 -32.601562 C 8.085938 -31.851562 6.921875 -30.765625 6.085938 -30.015625 C 5.335938 -29.265625 4.503906 -28.433594 4.253906 -28.265625 C 3.835938 -27.847656 3.753906 -27.933594 4.003906 -28.515625 C 4.085938 -28.765625 4.335938 -29.515625 4.585938 -29.933594 C 4.753906 -30.433594 4.835938 -31.015625 4.835938 -31.183594 C 4.835938 -31.433594 5.253906 -32.351562 5.585938 -33.101562 C 6.085938 -33.851562 6.335938 -34.769531 6.335938 -34.9375 C 6.335938 -35.351562 7.171875 -37.105469 10.421875 -43.773438 C 12.839844 -48.527344 15.925781 -53.695312 18.175781 -56.613281 C 18.925781 -57.53125 20.261719 -59.117188 21.011719 -60.199219 C 21.84375 -61.285156 23.261719 -62.699219 24.011719 -63.453125 C 25.765625 -64.953125 27.933594 -66.453125 28.097656 -66.285156 C 28.433594 -65.953125 30.183594 -62.035156 30.433594 -61.035156 C 30.683594 -59.867188 30.683594 -59.699219 30.183594 -59.117188 Z M 9.339844 -32.601562 C 9.589844 -32.851562 9.753906 -33.019531 9.839844 -33.019531 C 9.839844 -33.019531 9.839844 -32.851562 9.753906 -32.601562 C 9.671875 -32.433594 9.503906 -32.269531 9.339844 -32.269531 C 9.171875 -32.269531 9.171875 -32.433594 9.339844 -32.601562 Z M 10.589844 -33.851562 C 10.589844 -34.101562 10.757812 -34.183594 10.839844 -34.101562 C 11.089844 -34.101562 11.089844 -33.851562 11.089844 -33.769531 C 11.089844 -33.601562 11.089844 -33.519531 10.839844 -33.519531 C 10.757812 -33.519531 10.589844 -33.683594 10.589844 -33.851562 Z M 32.601562 -32.351562 C 32.269531 -32.019531 31.933594 -40.4375 32.183594 -42.941406 C 32.351562 -43.941406 32.433594 -42.273438 32.601562 -38.355469 C 32.601562 -35.101562 32.683594 -32.351562 32.601562 -32.351562 Z M 57.28125 -41.273438 C 55.699219 -39.605469 54.195312 -38.105469 53.863281 -37.769531 C 52.695312 -36.351562 54.613281 -38.019531 57.78125 -40.9375 C 57.613281 -41.023438 57.449219 -41.1875 57.28125 -41.273438 Z M 57.28125 -41.273438 "/></g></g></g><g fill="#ffffff" fill-opacity="1"><g transform="translate(257.028957, 272.149972)"><g><path d="M 8.085938 -16.675781 C 10.089844 -15.675781 12.671875 -15.925781 15.84375 -17.425781 C 18.925781 -18.84375 21.761719 -21.679688 24.011719 -25.515625 C 24.429688 -26.179688 25.015625 -27.179688 25.347656 -27.683594 C 26.515625 -29.597656 27.597656 -31.515625 27.765625 -32.269531 C 28.015625 -33.019531 29.765625 -36.769531 30.601562 -38.519531 C 30.851562 -39.105469 31.351562 -40.023438 31.601562 -40.773438 C 31.933594 -41.4375 32.351562 -42.273438 32.519531 -42.691406 C 32.683594 -43.105469 33.101562 -43.859375 33.351562 -44.523438 C 33.601562 -45.023438 33.851562 -45.609375 33.851562 -45.773438 C 33.851562 -45.859375 34.183594 -46.691406 34.601562 -47.527344 C 35.6875 -50.027344 37.9375 -57.113281 38.019531 -58.367188 C 38.105469 -59.03125 38.1875 -59.699219 38.269531 -59.949219 C 38.355469 -60.199219 38.769531 -61.449219 39.1875 -62.785156 C 39.523438 -64.203125 40.023438 -65.871094 40.273438 -66.535156 C 40.4375 -67.285156 40.6875 -68.039062 40.6875 -68.371094 C 40.6875 -68.621094 40.9375 -69.703125 41.1875 -70.707031 C 41.941406 -73.539062 41.941406 -77.210938 41.023438 -79.042969 C 40.773438 -79.628906 38.6875 -80.710938 36.769531 -81.292969 C 34.269531 -82.046875 32.851562 -81.960938 31.183594 -81.128906 C 30.433594 -80.710938 29.851562 -80.292969 29.933594 -80.210938 C 30.015625 -80.210938 30.351562 -80.210938 30.601562 -80.378906 C 31.015625 -80.542969 31.265625 -80.628906 31.433594 -80.378906 C 31.601562 -80.292969 31.933594 -80.210938 32.183594 -80.210938 C 32.433594 -80.210938 32.851562 -80.042969 33.183594 -79.878906 C 33.519531 -79.792969 33.933594 -79.628906 34.101562 -79.460938 C 35.019531 -79.042969 35.4375 -75.375 34.851562 -72.457031 C 34.269531 -69.203125 33.519531 -66.121094 33.101562 -64.703125 C 32.851562 -63.953125 32.519531 -63.035156 32.519531 -62.785156 C 32.101562 -61.117188 30.851562 -57.113281 30.601562 -57.03125 C 30.515625 -56.949219 30.351562 -56.449219 30.265625 -55.863281 C 30.101562 -55.363281 29.933594 -54.695312 29.765625 -54.363281 C 29.597656 -54.113281 29.347656 -53.695312 29.347656 -53.445312 C 29.347656 -53.195312 29.265625 -52.945312 29.183594 -52.863281 C 29.097656 -52.777344 28.847656 -52.277344 28.597656 -51.613281 C 28.265625 -50.695312 27.847656 -49.609375 26.015625 -45.941406 C 25.765625 -45.441406 25.515625 -44.859375 25.515625 -44.691406 C 25.597656 -44.523438 25.515625 -44.441406 25.347656 -44.441406 C 25.265625 -44.441406 25.097656 -44.273438 25.097656 -44.109375 C 25.097656 -43.859375 24.511719 -42.441406 23.179688 -39.773438 C 22.929688 -39.273438 22.597656 -38.855469 22.429688 -38.855469 C 22.261719 -38.855469 22.179688 -38.769531 22.261719 -38.605469 C 22.429688 -38.105469 21.511719 -36.4375 21.179688 -36.519531 C 21.011719 -36.601562 20.84375 -36.519531 20.84375 -36.351562 C 20.84375 -36.269531 21.011719 -36.101562 21.09375 -36.101562 C 21.511719 -36.101562 21.011719 -35.351562 20.429688 -35.1875 C 19.925781 -35.019531 19.84375 -34.851562 19.925781 -34.519531 C 20.09375 -33.769531 19.425781 -32.519531 18.761719 -32.351562 C 18.34375 -32.269531 18.261719 -32.183594 18.511719 -32.019531 C 18.925781 -31.765625 18.59375 -31.101562 17.257812 -29.515625 C 16.84375 -29.015625 16.09375 -27.933594 15.59375 -27.265625 C 14.507812 -25.597656 14.089844 -25.179688 13.839844 -25.515625 C 13.675781 -25.679688 13.425781 -25.515625 13.089844 -25.015625 C 12.421875 -23.929688 9.171875 -21.59375 8.503906 -21.59375 C 8.003906 -21.59375 7.335938 -31.183594 7.835938 -32.351562 C 7.921875 -32.683594 7.921875 -33.101562 7.835938 -33.433594 C 7.671875 -33.769531 7.671875 -34.101562 7.835938 -34.183594 C 7.835938 -34.183594 8.085938 -35.1875 8.085938 -36.1875 C 8.253906 -37.1875 8.339844 -38.355469 8.421875 -38.769531 C 8.503906 -39.1875 8.589844 -40.1875 8.671875 -41.105469 C 8.753906 -41.941406 9.089844 -43.773438 9.421875 -45.023438 C 9.839844 -46.359375 10.003906 -47.527344 9.921875 -47.691406 C 9.839844 -47.777344 9.921875 -47.941406 10.089844 -48.027344 C 10.171875 -48.027344 10.253906 -48.441406 10.171875 -48.695312 C 10.089844 -48.945312 10.253906 -50.109375 10.503906 -51.113281 C 10.839844 -52.195312 11.089844 -53.613281 11.171875 -54.195312 C 11.257812 -54.863281 11.589844 -56.113281 11.839844 -57.03125 C 12.089844 -57.863281 12.339844 -59.28125 12.589844 -60.117188 C 12.671875 -60.949219 12.921875 -62.117188 13.089844 -62.785156 C 13.339844 -63.953125 14.425781 -66.535156 15.425781 -68.453125 C 16.425781 -70.121094 16.257812 -70.457031 14.839844 -71.789062 C 14.089844 -72.375 13.425781 -72.789062 13.175781 -72.789062 C 13.007812 -72.789062 12.339844 -73.039062 11.839844 -73.289062 C 10.757812 -73.875 8.839844 -73.789062 7.585938 -73.039062 C 7.085938 -72.789062 6.503906 -72.539062 6.335938 -72.539062 C 6.085938 -72.539062 5.835938 -72.207031 5.667969 -71.621094 C 5.503906 -71.039062 5.335938 -70.457031 5.253906 -70.289062 C 5.253906 -70.121094 5.253906 -69.957031 5.503906 -69.957031 C 5.667969 -70.039062 5.835938 -69.957031 5.835938 -69.789062 C 5.835938 -69.703125 5.585938 -69.539062 5.253906 -69.539062 C 5.003906 -69.539062 4.753906 -69.371094 4.753906 -69.121094 C 4.753906 -68.789062 4.917969 -68.703125 5.167969 -68.789062 C 5.417969 -68.871094 5.585938 -68.789062 5.585938 -68.371094 C 5.585938 -68.039062 5.417969 -67.703125 5.253906 -67.621094 C 5.167969 -67.539062 5.003906 -67.285156 5.085938 -67.203125 C 5.085938 -67.035156 5.003906 -66.453125 4.753906 -65.871094 C 4.585938 -65.285156 4.503906 -64.703125 4.417969 -64.453125 C 4.335938 -64.203125 4.253906 -63.785156 4.085938 -63.535156 C 4.003906 -63.203125 3.917969 -62.785156 3.835938 -62.617188 C 3.585938 -61.535156 3.25 -59.449219 3.167969 -59.117188 C 3.167969 -58.867188 3 -58.367188 3 -57.949219 C 2.835938 -57.53125 2.75 -56.949219 2.667969 -56.53125 C 2.417969 -55.195312 1.75 -52.363281 1.5 -51.027344 C 1.335938 -50.277344 1.25 -49.359375 1.167969 -49.195312 C 1.167969 -48.945312 1 -48.109375 0.832031 -47.441406 C 0.75 -46.777344 0.5 -45.359375 0.25 -44.273438 C 0.167969 -43.273438 -0.0820312 -41.773438 -0.25 -40.9375 C -0.332031 -40.1875 -0.5 -38.855469 -0.582031 -38.105469 C -0.667969 -37.355469 -0.75 -36.101562 -0.917969 -35.4375 C -1 -34.769531 -1 -31.933594 -1.082031 -29.183594 C -1.25 -24.097656 -1 -22.261719 -0.0820312 -21.34375 C 0.0820312 -21.179688 0.25 -20.761719 0.417969 -20.511719 C 0.582031 -19.925781 2 -18.84375 2.917969 -18.675781 C 3.335938 -18.59375 4.003906 -18.34375 4.417969 -18.011719 C 4.835938 -17.757812 5.585938 -17.425781 6.085938 -17.34375 C 6.585938 -17.257812 7.421875 -16.925781 8.085938 -16.675781 Z M 6.585938 -21.261719 C 6.671875 -21.011719 6.585938 -20.761719 6.335938 -20.761719 C 6.171875 -20.679688 6.085938 -20.84375 6.085938 -21.34375 C 6.085938 -21.679688 6.003906 -22.511719 5.835938 -23.179688 C 5.503906 -24.679688 5.503906 -27.433594 5.667969 -31.851562 C 5.835938 -33.519531 5.835938 -35.269531 5.835938 -35.769531 C 5.835938 -36.269531 6.003906 -37.1875 6.171875 -37.9375 C 6.335938 -38.519531 6.585938 -39.1875 6.503906 -39.273438 C 6.421875 -39.605469 6.835938 -41.4375 7.085938 -41.523438 C 7.335938 -41.691406 7.085938 -39.4375 6.835938 -38.355469 C 6.585938 -37.6875 6.335938 -34.6875 6.171875 -30.515625 C 6.085938 -29.347656 6.421875 -23.011719 6.585938 -21.261719 Z M 2.5 -25.765625 C 2.75 -25.679688 2.75 -25.347656 2.75 -25.015625 C 2.667969 -24.429688 2.25 -24.679688 2.25 -25.429688 C 2.25 -25.929688 2.335938 -26.015625 2.5 -25.765625 Z M 2.417969 -28.597656 C 2.5 -27.933594 2.5 -27.265625 2.5 -27.265625 C 2.417969 -27.179688 2.25 -27.683594 2.167969 -28.433594 C 2.085938 -29.183594 2 -29.765625 2.085938 -29.851562 C 2.167969 -29.933594 2.335938 -29.347656 2.417969 -28.597656 Z M 22.847656 -31.183594 C 22.597656 -30.683594 22.09375 -29.933594 21.761719 -29.515625 C 21.261719 -29.183594 21.179688 -29.015625 21.261719 -29.347656 C 21.429688 -29.515625 21.59375 -30.101562 21.679688 -30.601562 C 21.761719 -31.015625 22.511719 -32.519531 23.261719 -33.933594 C 24.761719 -36.855469 29.433594 -46.359375 29.765625 -47.191406 C 29.851562 -47.527344 30.265625 -48.359375 30.601562 -49.027344 C 32.101562 -52.195312 34.769531 -59.53125 36.019531 -64.117188 C 37.355469 -69.121094 37.9375 -72.375 38.269531 -76.875 C 38.269531 -77.460938 38.4375 -77.960938 38.519531 -77.960938 C 38.6875 -77.960938 38.9375 -77.375 39.105469 -76.707031 C 39.523438 -75.125 39.355469 -72.875 38.4375 -68.871094 C 38.269531 -68.289062 38.105469 -67.453125 38.019531 -66.953125 C 37.6875 -64.867188 37.605469 -64.117188 37.4375 -63.953125 C 37.105469 -63.535156 36.351562 -60.199219 36.4375 -59.78125 C 36.601562 -59.617188 36.4375 -59.449219 36.269531 -59.28125 C 36.101562 -59.28125 35.851562 -59.03125 35.851562 -58.699219 C 35.851562 -58.53125 35.769531 -58.199219 35.601562 -58.117188 C 35.601562 -58.117188 35.351562 -57.613281 35.269531 -57.03125 C 35.1875 -56.449219 34.9375 -55.863281 34.769531 -55.699219 C 34.601562 -55.53125 34.351562 -55.195312 34.351562 -54.863281 C 34.351562 -54.613281 34.269531 -54.195312 34.183594 -53.945312 C 33.351562 -52.363281 32.601562 -50.859375 32.601562 -50.445312 C 32.601562 -50.277344 32.351562 -49.527344 32.101562 -48.945312 C 30.683594 -46.277344 30.351562 -45.609375 30.351562 -45.359375 C 30.351562 -45.191406 30.183594 -44.773438 29.933594 -44.523438 C 29.683594 -44.109375 29.347656 -43.355469 29.097656 -42.773438 C 28.847656 -41.855469 27.097656 -38.355469 26.597656 -37.519531 C 26.515625 -37.355469 25.765625 -36.101562 25.097656 -34.769531 C 24.429688 -33.519531 23.761719 -32.351562 23.597656 -32.351562 C 23.511719 -32.269531 23.179688 -31.765625 22.847656 -31.183594 Z M 1.335938 -31.933594 C 1.417969 -31.933594 1.335938 -31.433594 1.25 -31.015625 L 1.167969 -30.101562 L 0.832031 -30.765625 C 0.582031 -31.265625 0.582031 -31.433594 0.917969 -31.765625 C 1.082031 -31.933594 1.25 -32.019531 1.335938 -31.933594 Z M 2.5 -31.183594 C 2.417969 -31.015625 2.25 -30.683594 2.25 -30.515625 C 1.75 -29.097656 2.5 -38.519531 3 -41.855469 C 3.25 -42.773438 3.335938 -43.941406 3.417969 -44.273438 C 3.5 -45.609375 3.835938 -46.941406 4.003906 -47.109375 C 4.167969 -47.109375 4.167969 -47.527344 4.085938 -47.859375 C 4.003906 -48.277344 4.003906 -48.441406 4.253906 -48.109375 C 4.503906 -47.777344 4.503906 -47.109375 4.003906 -43.941406 C 3.835938 -43.023438 3.753906 -41.941406 3.753906 -41.691406 C 3.753906 -41.355469 3.585938 -40.9375 3.5 -40.773438 C 3.335938 -40.6875 3.335938 -40.523438 3.5 -40.355469 C 3.667969 -40.355469 3.753906 -40.1875 3.667969 -40.023438 C 3.5 -39.855469 2.835938 -34.101562 2.75 -32.519531 C 2.75 -31.933594 2.585938 -31.265625 2.5 -31.183594 Z M 20.09375 -30.933594 C 20.09375 -30.515625 19.925781 -30.515625 19.675781 -30.851562 C 19.675781 -30.933594 19.675781 -31.101562 19.84375 -31.183594 C 19.925781 -31.183594 20.09375 -31.183594 20.09375 -30.933594 Z M 21.09375 -32.433594 C 21.09375 -32.351562 21.011719 -32.183594 20.84375 -32.183594 C 20.761719 -32.183594 20.59375 -32.351562 20.59375 -32.433594 C 20.59375 -32.519531 20.761719 -32.683594 20.84375 -32.683594 C 21.011719 -32.683594 21.09375 -32.519531 21.09375 -32.433594 Z M 1.417969 -33.519531 C 1.5 -33.433594 1.5 -33.269531 1.5 -33.101562 C 1.335938 -32.933594 1.335938 -32.933594 1.25 -33.269531 C 1.25 -33.433594 1.335938 -33.601562 1.417969 -33.519531 Z M 21.59375 -33.769531 C 21.59375 -33.601562 21.429688 -33.269531 21.261719 -33.101562 C 20.761719 -32.769531 20.761719 -33.101562 21.261719 -33.683594 C 21.511719 -34.101562 21.59375 -34.101562 21.59375 -33.769531 Z M 23.261719 -35.9375 C 22.761719 -35.019531 22.179688 -34.269531 22.011719 -34.269531 C 21.511719 -34.269531 21.511719 -34.851562 21.84375 -35.101562 C 22.011719 -35.1875 22.09375 -35.519531 22.261719 -35.769531 C 22.261719 -36.101562 22.761719 -37.1875 23.261719 -38.019531 C 23.679688 -38.9375 24.347656 -40.355469 24.761719 -41.1875 C 25.097656 -42.023438 26.015625 -43.941406 26.765625 -45.441406 C 27.515625 -46.941406 28.433594 -49.195312 28.847656 -50.277344 C 29.347656 -51.445312 29.765625 -52.527344 29.851562 -52.777344 C 30.015625 -53.027344 30.101562 -53.445312 30.101562 -53.695312 C 30.101562 -54.03125 30.351562 -54.363281 30.515625 -54.613281 C 30.683594 -54.695312 30.851562 -55.113281 31.015625 -55.445312 C 31.101562 -55.78125 31.515625 -57.113281 31.851562 -58.367188 C 32.351562 -59.617188 32.851562 -61.449219 33.101562 -62.285156 C 33.433594 -63.203125 33.769531 -64.285156 33.851562 -64.703125 C 34.101562 -65.035156 34.351562 -66.203125 34.519531 -67.203125 C 34.6875 -68.203125 35.019531 -69.703125 35.269531 -70.621094 C 35.4375 -71.457031 35.6875 -73.289062 35.851562 -74.625 C 35.9375 -76.457031 36.101562 -77.125 36.4375 -77.375 C 36.6875 -77.625 36.6875 -77.625 36.351562 -77.960938 C 35.851562 -78.292969 35.769531 -78.542969 36.1875 -78.542969 C 36.6875 -78.542969 37.1875 -77.125 37.1875 -75.125 C 37.1875 -72.789062 37.019531 -71.289062 36.769531 -70.957031 C 36.6875 -70.871094 36.601562 -70.121094 36.4375 -69.371094 C 36.4375 -68.621094 36.1875 -67.789062 36.019531 -67.371094 C 35.851562 -66.953125 35.601562 -66.203125 35.519531 -65.621094 C 35.351562 -64.285156 34.351562 -61.199219 34.101562 -60.949219 C 34.019531 -60.785156 33.851562 -60.449219 33.851562 -60.199219 C 33.851562 -59.867188 33.769531 -59.449219 33.601562 -59.28125 C 33.519531 -59.03125 33.269531 -58.199219 33.019531 -57.449219 C 32.769531 -56.699219 32.269531 -55.28125 31.851562 -54.363281 C 31.433594 -53.363281 31.101562 -52.527344 31.101562 -52.363281 C 31.101562 -52.195312 30.601562 -50.859375 29.851562 -49.527344 C 29.183594 -48.027344 28.597656 -46.859375 28.597656 -46.691406 C 28.597656 -46.527344 28.015625 -45.273438 27.265625 -43.773438 C 26.429688 -42.273438 25.429688 -40.273438 25.015625 -39.355469 C 24.511719 -38.355469 23.761719 -36.855469 23.261719 -35.9375 Z M 1.75 -36.601562 C 1.75 -36.4375 1.667969 -36.351562 1.5 -36.351562 C 1.417969 -36.351562 1.25 -36.4375 1.25 -36.601562 C 1.25 -36.6875 1.417969 -36.855469 1.5 -36.855469 C 1.667969 -36.855469 1.75 -36.6875 1.75 -36.601562 Z M 2 -37.855469 C 2 -37.769531 1.917969 -37.6875 1.75 -37.605469 C 1.667969 -37.605469 1.5 -37.605469 1.5 -37.769531 C 1.5 -37.855469 1.667969 -37.9375 1.75 -37.9375 C 1.917969 -37.9375 2 -37.9375 2 -37.855469 Z M 2.25 -40.855469 C 2.25 -39.605469 2 -38.105469 1.75 -38.355469 C 1.585938 -38.4375 1.585938 -38.855469 1.75 -39.4375 C 1.835938 -40.105469 1.75 -40.273438 1.585938 -40.1875 C 1.335938 -40.023438 1.25 -40.273438 1.25 -40.855469 C 1.25 -41.523438 1.335938 -41.691406 1.667969 -41.4375 C 1.917969 -41.273438 2 -41.273438 2.085938 -41.523438 C 2.167969 -41.691406 2.25 -41.355469 2.25 -40.855469 Z M 1.667969 -42.773438 C 1.75 -42.691406 1.75 -42.441406 1.75 -42.273438 C 1.585938 -42.105469 1.585938 -42.191406 1.5 -42.441406 C 1.5 -42.691406 1.585938 -42.773438 1.667969 -42.773438 Z M 2.75 -43.441406 C 2.75 -42.855469 2.417969 -42.023438 2.25 -42.273438 C 2 -42.441406 2.25 -43.773438 2.5 -43.773438 C 2.667969 -43.773438 2.75 -43.605469 2.75 -43.441406 Z M 2.25 -45.609375 C 2.25 -45.273438 2.167969 -44.773438 2 -44.523438 L 1.835938 -44.109375 L 1.835938 -44.523438 C 1.835938 -44.773438 1.917969 -45.273438 2 -45.609375 L 2.25 -46.191406 Z M 2.917969 -44.441406 C 3 -44.273438 3 -44.191406 2.75 -44.191406 C 2.667969 -44.191406 2.5 -44.273438 2.5 -44.441406 C 2.5 -44.523438 2.585938 -44.691406 2.667969 -44.691406 C 2.75 -44.691406 2.835938 -44.523438 2.917969 -44.441406 Z M 4.917969 -50.445312 C 4.753906 -49.527344 4.335938 -48.441406 4.253906 -48.777344 C 4.253906 -49.527344 4.917969 -52.695312 5.085938 -52.695312 C 5.253906 -52.695312 5.253906 -52.363281 5.167969 -51.863281 C 5.003906 -51.445312 4.917969 -50.695312 4.917969 -50.445312 Z M 5.667969 -54.113281 C 5.417969 -53.445312 5.003906 -52.945312 5.003906 -53.445312 C 5.003906 -53.695312 5.253906 -54.03125 5.417969 -54.195312 C 5.835938 -54.695312 5.835938 -54.695312 5.667969 -54.113281 Z M 5.835938 -55.699219 C 5.667969 -54.78125 5.585938 -54.53125 5.585938 -55.28125 C 5.585938 -55.613281 5.667969 -56.03125 5.835938 -56.199219 C 6.003906 -56.449219 6.003906 -56.28125 5.835938 -55.699219 Z M 6.171875 -70.707031 C 6.253906 -70.621094 6.171875 -70.457031 6.085938 -70.371094 C 5.917969 -70.289062 5.835938 -70.371094 5.835938 -70.621094 C 5.835938 -71.039062 5.917969 -71.039062 6.171875 -70.707031 Z M 6.171875 -70.707031 "/></g></g></g><g fill="#ffffff" fill-opacity="1"><g transform="translate(296.878339, 272.149972)"><g><path d="M 46.441406 -43.859375 C 46.609375 -44.609375 46.609375 -45.441406 46.527344 -46.277344 C 46.359375 -46.023438 46.191406 -45.773438 46.023438 -45.441406 C 45.523438 -44.691406 44.941406 -43.773438 44.609375 -43.273438 C 44.441406 -42.773438 43.355469 -41.023438 42.191406 -39.4375 C 41.105469 -37.769531 40.105469 -36.101562 39.9375 -35.851562 C 39.773438 -35.519531 39.355469 -35.101562 39.019531 -34.9375 C 38.605469 -34.851562 38.355469 -34.519531 38.355469 -34.4375 C 38.355469 -34.183594 38.105469 -33.769531 37.605469 -33.433594 L 36.9375 -32.683594 L 37.1875 -33.433594 C 37.4375 -33.933594 37.4375 -34.269531 37.105469 -34.351562 C 37.019531 -34.4375 37.4375 -35.1875 38.269531 -36.101562 C 40.105469 -38.269531 43.023438 -42.605469 46.191406 -47.941406 C 46.023438 -48.191406 45.941406 -48.359375 45.859375 -48.609375 C 45.773438 -48.695312 45.773438 -48.695312 45.691406 -48.777344 C 45.441406 -48.359375 45.191406 -47.941406 45.191406 -47.777344 C 45.191406 -47.527344 45.109375 -47.441406 44.941406 -47.441406 C 44.773438 -47.441406 44.609375 -47.277344 44.609375 -47.027344 C 44.609375 -46.859375 44.523438 -46.441406 44.191406 -46.109375 C 43.441406 -44.941406 42.355469 -43.441406 42.355469 -43.105469 C 42.355469 -42.941406 42.023438 -42.441406 41.523438 -41.941406 C 41.105469 -41.355469 40.605469 -40.773438 40.605469 -40.605469 C 40.605469 -40.4375 40.4375 -40.105469 40.105469 -39.855469 C 39.6875 -39.4375 39.019531 -38.519531 38.4375 -37.6875 C 37.855469 -36.855469 37.019531 -35.6875 36.519531 -35.101562 C 36.019531 -34.519531 34.9375 -33.351562 34.183594 -32.433594 C 33.433594 -31.433594 33.519531 -33.019531 33.519531 -33.183594 C 33.519531 -33.269531 33.851562 -33.769531 34.269531 -34.183594 C 35.101562 -35.019531 36.9375 -37.855469 36.9375 -38.269531 C 36.9375 -38.355469 37.1875 -38.519531 37.519531 -38.605469 C 37.9375 -38.769531 38.105469 -39.019531 38.105469 -39.523438 C 38.105469 -39.9375 38.1875 -40.273438 38.355469 -40.273438 C 38.605469 -40.273438 39.773438 -42.105469 39.773438 -42.605469 C 39.773438 -43.023438 38.355469 -41.355469 38.355469 -40.9375 C 38.355469 -40.6875 38.269531 -40.523438 38.105469 -40.523438 C 38.019531 -40.523438 37.269531 -39.6875 36.601562 -38.6875 C 35.9375 -37.6875 35.269531 -36.855469 35.1875 -36.855469 C 35.101562 -36.855469 34.769531 -36.4375 34.519531 -35.9375 C 33.601562 -34.101562 18.84375 -24.011719 20.511719 -25.179688 C 21.59375 -26.015625 22.597656 -27.015625 22.597656 -27.265625 C 22.597656 -27.347656 21.929688 -26.929688 21.09375 -26.347656 C 17.175781 -23.429688 14.675781 -24.011719 12.339844 -24.011719 C 10.671875 -24.011719 10.171875 -24.179688 9.921875 -25.015625 C 9.671875 -25.765625 8.753906 -29.765625 8.753906 -30.351562 C 8.753906 -30.433594 9.421875 -30.933594 10.171875 -31.351562 C 10.921875 -31.765625 11.589844 -32.183594 11.671875 -32.269531 C 12.007812 -32.601562 13.089844 -33.101562 13.589844 -33.101562 C 13.925781 -33.101562 20.179688 -39.019531 20.179688 -39.4375 C 20.179688 -39.523438 20.84375 -40.273438 21.679688 -41.023438 C 22.429688 -41.855469 23.179688 -42.941406 23.347656 -43.441406 C 23.597656 -43.941406 23.847656 -44.273438 24.011719 -44.273438 C 24.097656 -44.273438 24.179688 -44.441406 24.179688 -44.609375 C 24.179688 -44.859375 24.761719 -45.609375 25.515625 -46.441406 C 26.179688 -47.191406 26.765625 -48.027344 26.847656 -48.109375 C 26.847656 -48.277344 27.515625 -49.277344 28.183594 -50.277344 C 31.101562 -54.195312 33.019531 -58.367188 33.101562 -61.367188 C 33.101562 -63.203125 33.019531 -63.617188 32.183594 -65.035156 C 31.101562 -67.035156 29.097656 -68.703125 26.765625 -69.789062 C 25.765625 -70.289062 24.511719 -71.039062 23.929688 -71.539062 C 22.679688 -72.539062 20.679688 -72.789062 19.011719 -72.289062 C 17.675781 -71.957031 13.175781 -68.621094 12.839844 -67.789062 C 12.757812 -67.539062 12.171875 -67.203125 11.671875 -66.953125 C 10.671875 -66.535156 8.171875 -63.867188 8.171875 -63.117188 C 8.171875 -63.035156 8.171875 -62.867188 8.003906 -62.785156 C 7.671875 -62.699219 6.003906 -60.03125 4.667969 -57.53125 C 3.335938 -55.28125 1.667969 -50.527344 0.667969 -46.527344 C -0.667969 -41.523438 -0.417969 -33.433594 1.167969 -28.933594 C 2.167969 -26.347656 3.167969 -25.015625 6.671875 -22.011719 C 8.253906 -20.511719 11.171875 -18.84375 12.171875 -18.675781 C 12.839844 -18.511719 15.007812 -17.84375 15.175781 -17.59375 C 15.59375 -17.34375 17.84375 -17.425781 18.425781 -17.59375 C 28.515625 -20.761719 35.769531 -28.347656 35.769531 -28.433594 C 35.769531 -28.597656 36.101562 -28.933594 36.351562 -29.265625 C 36.601562 -29.515625 37.4375 -30.515625 38.105469 -31.433594 C 38.855469 -32.351562 39.605469 -33.269531 39.9375 -33.519531 C 40.1875 -33.933594 41.523438 -35.6875 42.773438 -37.605469 C 44.523438 -40.273438 45.691406 -42.023438 46.609375 -43.355469 C 46.527344 -43.523438 46.441406 -43.691406 46.441406 -43.859375 Z M 15.757812 -39.105469 C 15.089844 -38.4375 15.089844 -38.4375 15.425781 -39.019531 C 15.675781 -39.523438 16.507812 -40.1875 16.507812 -39.9375 C 16.507812 -39.855469 16.175781 -39.523438 15.757812 -39.105469 Z M 17.09375 -40.4375 C 16.925781 -40.355469 16.757812 -40.355469 16.757812 -40.523438 C 16.757812 -40.6875 16.925781 -40.855469 17.09375 -40.855469 C 17.257812 -40.855469 17.34375 -40.773438 17.34375 -40.6875 C 17.34375 -40.605469 17.257812 -40.523438 17.09375 -40.4375 Z M 17.925781 -41.691406 C 17.59375 -41.691406 17.59375 -41.941406 17.925781 -42.105469 C 18.175781 -42.191406 18.175781 -42.191406 18.175781 -42.023438 C 18.175781 -41.855469 18.175781 -41.691406 17.925781 -41.691406 Z M 19.34375 -43.691406 C 19.011719 -43.691406 19.011719 -43.941406 19.34375 -44.109375 C 19.59375 -44.191406 19.675781 -44.191406 19.675781 -44.023438 C 19.675781 -43.859375 19.59375 -43.691406 19.34375 -43.691406 Z M 21.761719 -47.027344 C 21.59375 -46.527344 21.34375 -46.441406 21.34375 -46.859375 C 21.34375 -47.027344 21.511719 -47.191406 21.679688 -47.277344 C 21.84375 -47.359375 21.84375 -47.277344 21.761719 -47.027344 Z M 9.753906 -43.691406 C 10.089844 -44.109375 10.171875 -44.691406 10.171875 -44.859375 C 10.171875 -45.023438 10.757812 -46.441406 11.421875 -47.859375 C 12.007812 -49.277344 12.671875 -50.777344 12.921875 -51.277344 C 13.089844 -51.777344 13.589844 -52.777344 13.757812 -53.53125 C 14.339844 -55.113281 14.839844 -55.949219 16.675781 -58.199219 C 17.34375 -59.03125 18.011719 -59.949219 18.09375 -60.28125 C 18.175781 -60.535156 18.425781 -60.867188 18.59375 -60.867188 C 18.675781 -60.867188 19.261719 -61.367188 19.84375 -61.949219 C 20.429688 -62.535156 21.34375 -63.203125 21.84375 -63.535156 C 22.429688 -63.953125 23.429688 -64.953125 24.097656 -65.871094 C 24.929688 -66.703125 25.597656 -67.453125 25.679688 -67.453125 C 26.265625 -67.453125 26.847656 -65.371094 26.597656 -64.117188 C 26.347656 -62.117188 25.179688 -58.367188 24.679688 -57.699219 C 24.429688 -57.449219 24.511719 -57.363281 24.679688 -57.53125 C 25.515625 -58.03125 25.097656 -56.863281 23.679688 -54.78125 C 20.011719 -49.277344 18.761719 -47.527344 18.175781 -47.027344 C 17.925781 -46.609375 17.59375 -46.191406 17.59375 -46.023438 C 17.59375 -45.691406 17.34375 -45.273438 15.757812 -43.523438 C 15.175781 -43.023438 14.757812 -42.441406 14.757812 -42.355469 C 14.757812 -42.023438 13.089844 -40.273438 12.757812 -40.273438 C 12.671875 -40.273438 12.589844 -40.023438 12.671875 -39.855469 C 12.671875 -39.523438 12.671875 -39.355469 12.339844 -39.1875 C 12.171875 -39.105469 11.921875 -38.9375 11.921875 -38.769531 C 11.921875 -38.269531 10.003906 -36.769531 9.503906 -36.769531 C 9.171875 -36.769531 9.089844 -36.519531 9.171875 -36.019531 C 9.253906 -35.6875 9.253906 -35.4375 9.089844 -35.4375 C 8.671875 -35.4375 8.753906 -35.269531 8.671875 -36.9375 C 8.503906 -38.519531 9.171875 -42.523438 9.753906 -43.691406 Z M 42.523438 -46.859375 C 42.441406 -46.859375 42.273438 -46.859375 42.191406 -46.859375 C 42.023438 -46.609375 41.855469 -46.441406 41.691406 -46.191406 C 41.023438 -45.191406 40.273438 -44.109375 40.105469 -43.773438 C 39.855469 -43.273438 39.855469 -43.191406 40.355469 -43.191406 C 40.773438 -43.191406 40.9375 -43.441406 40.9375 -43.941406 C 40.9375 -44.273438 41.105469 -44.523438 41.1875 -44.523438 C 41.4375 -44.523438 41.523438 -44.773438 41.523438 -44.941406 C 41.523438 -45.273438 41.773438 -45.523438 42.105469 -45.609375 C 42.441406 -45.691406 42.605469 -45.941406 42.605469 -46.191406 C 42.441406 -46.441406 42.441406 -46.691406 42.523438 -46.859375 Z M 43.105469 -47.441406 C 43.355469 -47.441406 43.523438 -47.691406 43.523438 -47.941406 C 43.523438 -48.027344 43.523438 -48.027344 43.523438 -48.027344 C 43.355469 -47.777344 43.273438 -47.609375 43.105469 -47.441406 Z M 43.105469 -47.441406 "/></g></g></g><g fill="#ffffff" fill-opacity="1"><g transform="translate(106.142774, 297.608634)"><g><path d="M 1.492188 0 L 7.070312 0 L 7.070312 -0.75 L 2.296875 -0.75 L 2.296875 -4.339844 L 6.582031 -4.339844 L 6.582031 -5.078125 L 2.296875 -5.078125 L 2.296875 -8.480469 L 6.925781 -8.480469 L 6.925781 -9.234375 L 1.492188 -9.234375 Z M 1.492188 0 "/></g></g></g><g fill="#ffffff" fill-opacity="1"><g transform="translate(118.609684, 297.608634)"><g><path d="M 0.582031 0 L 1.542969 0 L 3.773438 -3.085938 L 4.5 -4.101562 L 5.210938 -3.085938 L 7.453125 0 L 8.402344 0 L 4.988281 -4.722656 L 8.246094 -9.234375 L 7.308594 -9.234375 L 5.238281 -6.371094 L 4.5 -5.316406 L 3.746094 -6.371094 L 1.675781 -9.234375 L 0.726562 -9.234375 L 3.984375 -4.722656 Z M 0.582031 0 "/></g></g></g><g fill="#ffffff" fill-opacity="1"><g transform="translate(132.026116, 297.608634)"><g><path d="M 1.492188 0 L 2.296875 0 L 2.296875 -3.164062 L 4.417969 -3.164062 C 6.554688 -3.164062 7.824219 -4.289062 7.824219 -6.199219 C 7.824219 -8.113281 6.554688 -9.234375 4.417969 -9.234375 L 1.492188 -9.234375 Z M 2.296875 -3.90625 L 2.296875 -8.46875 L 4.40625 -8.46875 C 6.132812 -8.46875 7.019531 -7.691406 7.019531 -6.1875 C 7.019531 -4.683594 6.132812 -3.90625 4.40625 -3.90625 Z M 2.296875 -3.90625 "/></g></g></g><g fill="#ffffff" fill-opacity="1"><g transform="translate(144.90185, 297.608634)"><g><path d="M 1.492188 0 L 6.976562 0 L 6.976562 -0.765625 L 2.296875 -0.765625 L 2.296875 -9.234375 L 1.492188 -9.234375 Z M 1.492188 0 "/></g></g></g><g fill="#ffffff" fill-opacity="1"><g transform="translate(156.762125, 297.608634)"><g><path d="M 5.605469 0.171875 C 8.429688 0.171875 10.367188 -1.792969 10.367188 -4.617188 C 10.367188 -7.441406 8.429688 -9.40625 5.605469 -9.40625 C 2.796875 -9.40625 0.84375 -7.441406 0.84375 -4.617188 C 0.84375 -1.792969 2.796875 0.171875 5.605469 0.171875 Z M 1.664062 -4.617188 C 1.664062 -6.992188 3.273438 -8.601562 5.605469 -8.601562 C 7.953125 -8.601562 9.5625 -6.992188 9.5625 -4.617188 C 9.5625 -2.253906 7.953125 -0.632812 5.605469 -0.632812 C 3.273438 -0.632812 1.664062 -2.253906 1.664062 -4.617188 Z M 1.664062 -4.617188 "/></g></g></g><g fill="#ffffff" fill-opacity="1"><g transform="translate(172.407285, 297.608634)"><g><path d="M 1.492188 0 L 2.296875 0 L 2.296875 -3.46875 L 4.683594 -3.46875 L 7.164062 0 L 8.125 0 L 5.621094 -3.535156 C 7.070312 -3.785156 7.980469 -4.828125 7.980469 -6.359375 C 7.980469 -8.113281 6.765625 -9.234375 4.90625 -9.234375 L 1.492188 -9.234375 Z M 2.296875 -4.234375 L 2.296875 -8.46875 L 4.828125 -8.46875 C 6.292969 -8.46875 7.164062 -7.664062 7.164062 -6.359375 C 7.164062 -5.039062 6.292969 -4.234375 4.828125 -4.234375 Z M 2.296875 -4.234375 "/></g></g></g><g fill="#ffffff" fill-opacity="1"><g transform="translate(185.863275, 297.608634)"><g><path d="M 1.492188 0 L 7.070312 0 L 7.070312 -0.75 L 2.296875 -0.75 L 2.296875 -4.339844 L 6.582031 -4.339844 L 6.582031 -5.078125 L 2.296875 -5.078125 L 2.296875 -8.480469 L 6.925781 -8.480469 L 6.925781 -9.234375 L 1.492188 -9.234375 Z M 1.492188 0 "/></g></g></g><g fill="#ffffff" fill-opacity="1"><g transform="translate(198.330185, 297.608634)"><g><path d="M 0.765625 0 L 7.203125 0 L 7.203125 -0.765625 L 1.820312 -0.765625 L 7.082031 -8.628906 L 7.082031 -9.234375 L 0.882812 -9.234375 L 0.882812 -8.46875 L 6.027344 -8.46875 L 0.765625 -0.59375 Z M 0.765625 0 "/></g></g></g><g fill="#ffffff" fill-opacity="1"><g transform="translate(210.704793, 297.608634)"><g/></g></g><g fill="#ffffff" fill-opacity="1"><g transform="translate(218.674688, 297.608634)"><g><path d="M 1.492188 0 L 6.976562 0 L 6.976562 -0.765625 L 2.296875 -0.765625 L 2.296875 -9.234375 L 1.492188 -9.234375 Z M 1.492188 0 "/></g></g></g><g fill="#ffffff" fill-opacity="1"><g transform="translate(230.534963, 297.608634)"><g><path d="M 1.109375 -6.027344 L 1.78125 -6.027344 L 1.808594 -9.234375 L 1.082031 -9.234375 Z M 1.109375 -6.027344 "/></g></g></g><g fill="#ffffff" fill-opacity="1"><g transform="translate(237.871842, 297.608634)"><g><path d="M 1.492188 0 L 2.296875 0 L 2.296875 -9.234375 L 1.492188 -9.234375 Z M 1.492188 0 "/></g></g></g><g fill="#ffffff" fill-opacity="1"><g transform="translate(246.0923, 297.608634)"><g><path d="M 1.492188 0 L 2.28125 0 L 2.28125 -7.863281 L 7.902344 0 L 8.652344 0 L 8.652344 -9.234375 L 7.863281 -9.234375 L 7.863281 -1.386719 L 2.242188 -9.234375 L 1.492188 -9.234375 Z M 1.492188 0 "/></g></g></g><g fill="#ffffff" fill-opacity="1"><g transform="translate(260.669249, 297.608634)"><g><path d="M 5.527344 0.171875 C 7.703125 0.171875 9.484375 -1.109375 10.050781 -3.101562 L 9.207031 -3.101562 C 8.691406 -1.570312 7.269531 -0.632812 5.539062 -0.632812 C 3.285156 -0.632812 1.664062 -2.253906 1.664062 -4.617188 C 1.664062 -6.976562 3.285156 -8.601562 5.539062 -8.601562 C 7.230469 -8.601562 8.601562 -7.703125 9.128906 -6.238281 L 9.972656 -6.238281 C 9.367188 -8.179688 7.636719 -9.40625 5.527344 -9.40625 C 2.808594 -9.40625 0.84375 -7.425781 0.84375 -4.617188 C 0.84375 -1.808594 2.808594 0.171875 5.527344 0.171875 Z M 5.527344 0.171875 "/></g></g></g><g fill="#ffffff" fill-opacity="1"><g transform="translate(275.945152, 297.608634)"><g><path d="M 5.605469 0.171875 C 8.429688 0.171875 10.367188 -1.792969 10.367188 -4.617188 C 10.367188 -7.441406 8.429688 -9.40625 5.605469 -9.40625 C 2.796875 -9.40625 0.84375 -7.441406 0.84375 -4.617188 C 0.84375 -1.792969 2.796875 0.171875 5.605469 0.171875 Z M 1.664062 -4.617188 C 1.664062 -6.992188 3.273438 -8.601562 5.605469 -8.601562 C 7.953125 -8.601562 9.5625 -6.992188 9.5625 -4.617188 C 9.5625 -2.253906 7.953125 -0.632812 5.605469 -0.632812 C 3.273438 -0.632812 1.664062 -2.253906 1.664062 -4.617188 Z M 1.664062 -4.617188 "/></g></g></g><g fill="#ffffff" fill-opacity="1"><g transform="translate(291.590308, 297.608634)"><g><path d="M 1.492188 0 L 2.28125 0 L 2.28125 -7.863281 L 7.902344 0 L 8.652344 0 L 8.652344 -9.234375 L 7.863281 -9.234375 L 7.863281 -1.386719 L 2.242188 -9.234375 L 1.492188 -9.234375 Z M 1.492188 0 "/></g></g></g><g fill="#ffffff" fill-opacity="1"><g transform="translate(306.167257, 297.608634)"><g><path d="M 1.492188 0 L 2.28125 0 L 2.28125 -7.863281 L 7.902344 0 L 8.652344 0 L 8.652344 -9.234375 L 7.863281 -9.234375 L 7.863281 -1.386719 L 2.242188 -9.234375 L 1.492188 -9.234375 Z M 1.492188 0 "/></g></g></g><g fill="#ffffff" fill-opacity="1"><g transform="translate(320.744207, 297.608634)"><g><path d="M 4.855469 0.160156 C 7.019531 0.160156 8.335938 -1.265625 8.335938 -3.640625 L 8.335938 -9.234375 L 7.546875 -9.234375 L 7.546875 -3.679688 C 7.546875 -1.714844 6.570312 -0.621094 4.855469 -0.621094 C 3.140625 -0.621094 2.164062 -1.714844 2.164062 -3.679688 L 2.164062 -9.234375 L 1.371094 -9.234375 L 1.371094 -3.640625 C 1.371094 -1.265625 2.691406 0.160156 4.855469 0.160156 Z M 4.855469 0.160156 "/></g></g></g></svg>