<svg xmlns="http://www.w3.org/2000/svg" xmlns:xlink="http://www.w3.org/1999/xlink" width="500" zoomAndPan="magnify" viewBox="0 0 375 374.999991" height="500" preserveAspectRatio="xMidYMid meet" version="1.0"><defs><g/><clipPath id="6f59ff41e4"><path d="M 192 109 L 212.667969 109 L 212.667969 112 L 192 112 Z M 192 109 " clip-rule="nonzero"/></clipPath><clipPath id="5dcfb6479f"><path d="M 33 96 L 105 96 L 105 332.925781 L 33 332.925781 Z M 33 96 " clip-rule="nonzero"/></clipPath></defs><g clip-path="url(#6f59ff41e4)"><path fill="#ffffff" d="M 192.578125 109.226562 L 212.960938 111.09375 L 192.578125 110.949219 Z M 192.578125 109.226562 " fill-opacity="1" fill-rule="nonzero"/></g><path fill="#ffffff" d="M 182.148438 108.363281 L 182.148438 110.972656 L 115.769531 110.566406 L 115.816406 102.28125 Z M 182.148438 108.363281 " fill-opacity="1" fill-rule="nonzero"/><path fill="#ffffff" d="M 108.089844 123.234375 C 108.113281 113.320312 108.234375 79.964844 108.089844 76.300781 C 107.996094 73.90625 109.40625 63.109375 117.945312 54.226562 C 125.3125 46.5625 135.648438 42.683594 148.660156 42.683594 C 187.675781 42.683594 189.539062 78.480469 189.539062 78.910156 L 189.539062 123.207031 C 190.710938 123.976562 191.503906 125.316406 191.503906 126.824219 C 191.503906 129.21875 189.566406 131.15625 187.171875 131.15625 C 184.78125 131.15625 182.84375 129.21875 182.84375 126.824219 C 182.84375 125.078125 183.871094 123.589844 185.378906 122.898438 L 185.378906 78.984375 C 185.332031 77.667969 183.703125 46.824219 148.636719 46.824219 C 136.796875 46.824219 127.464844 50.273438 120.910156 57.097656 C 114 64.28125 112.132812 73.570312 112.226562 76.132812 C 112.371094 79.871094 112.277344 112.53125 112.253906 122.898438 C 113.734375 123.589844 114.789062 125.078125 114.789062 126.824219 C 114.789062 129.21875 112.851562 131.15625 110.457031 131.15625 C 108.066406 131.15625 106.128906 129.21875 106.128906 126.824219 C 106.128906 125.316406 106.917969 124 108.089844 123.234375 Z M 108.089844 123.234375 " fill-opacity="1" fill-rule="nonzero"/><g clip-path="url(#5dcfb6479f)"><path fill="#ffffff" d="M 51.804688 102.375 L 54.601562 96.773438 L 55.75 96.871094 L 79.359375 99.023438 L 104.667969 101.347656 L 104.597656 110.492188 L 72.015625 110.300781 C 15.492188 205.410156 78.261719 329.511719 79.625 332.195312 C 13.460938 238.742188 32.308594 134.34375 51.804688 102.375 Z M 51.804688 102.375 " fill-opacity="1" fill-rule="nonzero"/></g><g fill="#ffffff" fill-opacity="1"><g transform="translate(71.863257, 280.649178)"><g><path d="M 119.828125 -113.128906 C 120.011719 -113.496094 120.011719 -113.679688 119.734375 -113.679688 C 119.644531 -113.679688 119.460938 -114.136719 119.367188 -114.597656 C 119.09375 -115.882812 118.359375 -117.898438 117.808594 -118.910156 C 114.964844 -123.496094 109.640625 -129 107.898438 -129.183594 C 107.625 -129.277344 106.890625 -129.644531 106.15625 -130.011719 C 104.503906 -130.929688 98.632812 -133.3125 97.074219 -133.773438 C 92.117188 -134.875 83.035156 -135.792969 78.355469 -135.515625 C 69.457031 -135.058594 56.703125 -132.671875 48.351562 -129.917969 C 46.792969 -129.367188 44.5 -128.632812 43.121094 -128.175781 C 41.839844 -127.808594 40.371094 -127.351562 39.820312 -127.167969 C 39.359375 -126.984375 38.078125 -126.523438 37.066406 -126.15625 C 32.847656 -124.6875 19.449219 -119 15.597656 -116.980469 C 14.128906 -116.25 12.753906 -115.789062 12.570312 -115.882812 C 12.386719 -115.972656 12.019531 -115.699219 11.835938 -115.515625 C 11.652344 -115.238281 10.644531 -114.414062 9.542969 -113.863281 C 5.78125 -111.84375 2.753906 -109.367188 1.191406 -107.164062 C 0.367188 -106.0625 -0.273438 -104.871094 -0.367188 -104.503906 C -0.457031 -104.046875 -0.734375 -103.585938 -0.917969 -103.21875 C -1.375 -102.484375 -1.101562 -100.285156 -0.273438 -98.722656 C 0.367188 -97.4375 2.476562 -94.59375 3.578125 -93.402344 C 4.035156 -92.945312 4.585938 -92.394531 4.679688 -92.210938 C 4.953125 -91.75 7.707031 -89.914062 9.542969 -88.90625 C 10.917969 -88.082031 14.039062 -86.796875 14.957031 -86.613281 C 15.230469 -86.613281 16.148438 -86.246094 17.066406 -85.96875 C 17.890625 -85.785156 19.359375 -85.238281 20.367188 -84.871094 C 21.378906 -84.503906 23.304688 -83.675781 24.863281 -83.035156 C 26.332031 -82.484375 28.167969 -81.65625 28.902344 -81.292969 C 30.644531 -80.558594 31.929688 -79.640625 33.214844 -77.894531 C 33.855469 -77.253906 34.589844 -76.429688 34.867188 -76.246094 C 35.324219 -76.0625 35.597656 -75.785156 35.507812 -75.511719 C 35.414062 -75.328125 35.875 -74.777344 36.332031 -74.410156 C 37.160156 -73.769531 38.902344 -70.554688 39.726562 -68.261719 C 40.1875 -66.976562 40.1875 -66.976562 38.902344 -63.214844 C 38.8125 -62.664062 38.351562 -61.105469 37.894531 -59.636719 C 37.527344 -58.171875 37.160156 -56.792969 36.976562 -56.519531 C 36.792969 -56.058594 36.882812 -55.96875 37.25 -55.875 C 37.710938 -55.875 37.710938 -55.785156 37.160156 -55.417969 C 36.609375 -55.050781 36.148438 -53.949219 35.324219 -50.554688 C 35.140625 -49.636719 34.773438 -48.8125 34.773438 -48.8125 C 34.683594 -48.902344 34.5 -47.800781 34.222656 -46.519531 C 34.039062 -45.234375 33.671875 -43.855469 33.582031 -43.671875 C 32.664062 -42.207031 31.835938 -39.636719 32.296875 -39.269531 C 32.480469 -38.992188 32.480469 -38.902344 32.203125 -38.71875 C 31.746094 -38.445312 31.101562 -35.78125 30.460938 -31.5625 C 30.1875 -30.09375 29.820312 -28.71875 29.636719 -28.535156 C 29.453125 -28.257812 29.359375 -27.984375 29.453125 -27.890625 C 29.820312 -27.617188 29.726562 -26.515625 29.359375 -26.699219 C 28.992188 -27.066406 28.625 -24.957031 28.992188 -24.496094 C 29.175781 -24.128906 29.175781 -24.039062 28.902344 -24.128906 C 28.71875 -24.128906 28.535156 -23.855469 28.441406 -23.488281 C 28.351562 -23.214844 28.441406 -22.847656 28.625 -22.847656 C 28.71875 -22.847656 28.808594 -22.570312 28.71875 -22.386719 C 28.71875 -22.113281 28.535156 -21.929688 28.351562 -21.929688 C 27.800781 -22.019531 26.699219 -13.671875 27.25 -13.121094 C 27.339844 -12.9375 27.339844 -12.753906 26.976562 -12.386719 C 26.609375 -12.019531 26.609375 -12.019531 26.976562 -11.835938 C 27.25 -11.652344 27.25 -11.378906 26.976562 -10.828125 C 26.609375 -10.183594 26.425781 -7.617188 26.792969 -7.25 C 26.792969 -7.15625 26.976562 -6.605469 26.976562 -6.054688 C 27.066406 -5.597656 27.25 -4.769531 27.523438 -4.3125 C 27.890625 -3.394531 29.453125 -1.925781 29.820312 -2.109375 C 30.003906 -2.203125 30.460938 -1.925781 30.738281 -1.375 C 31.195312 -0.917969 31.652344 -0.550781 31.835938 -0.550781 C 32.019531 -0.457031 32.296875 -0.273438 32.480469 -0.183594 C 32.480469 0.0898438 33.03125 0.457031 33.582031 0.734375 C 34.867188 1.375 34.683594 1.375 35.78125 1.101562 C 36.332031 0.917969 36.792969 0.550781 36.882812 0.273438 C 36.882812 0.0898438 37.25 -0.550781 37.800781 -1.007812 C 38.261719 -1.46875 38.71875 -2.109375 38.8125 -2.292969 C 38.8125 -2.570312 39.269531 -3.304688 39.636719 -3.855469 C 40.554688 -5.136719 43.671875 -11.011719 44.867188 -13.488281 C 46.609375 -17.25 47.894531 -21.195312 48.71875 -25.230469 C 50.921875 -35.78125 50.828125 -47.25 48.535156 -55.234375 C 47.984375 -57.253906 47.710938 -59.914062 48.078125 -60.003906 C 48.261719 -60.003906 48.445312 -60.28125 48.445312 -60.464844 C 48.535156 -60.832031 48.8125 -61.289062 49.085938 -61.65625 C 49.453125 -62.023438 49.453125 -62.207031 49.179688 -62.390625 C 48.996094 -62.480469 49.269531 -63.03125 50.097656 -64.132812 C 50.921875 -65.328125 51.195312 -65.785156 50.921875 -66.0625 C 50.738281 -66.335938 50.828125 -66.425781 51.195312 -66.425781 C 51.472656 -66.425781 51.5625 -66.519531 51.5625 -66.886719 C 51.378906 -67.710938 51.929688 -69.640625 52.207031 -70.003906 C 52.390625 -70.28125 52.757812 -70.554688 53.03125 -70.832031 C 53.675781 -71.382812 53.582031 -71.566406 53.03125 -71.382812 C 52.664062 -71.289062 52.574219 -71.933594 53.03125 -72.390625 C 53.214844 -72.484375 53.398438 -73.125 53.582031 -73.859375 C 53.675781 -74.5 54.042969 -75.144531 54.226562 -75.328125 C 54.410156 -75.328125 54.773438 -76.0625 54.957031 -76.703125 C 55.140625 -77.347656 55.324219 -78.078125 55.507812 -78.171875 C 55.785156 -78.539062 57.894531 -83.675781 58.351562 -85.144531 C 58.535156 -85.785156 58.996094 -86.613281 59.269531 -86.980469 C 59.636719 -87.347656 60.1875 -88.632812 60.554688 -89.730469 C 61.75 -93.308594 69.640625 -108.082031 71.75 -110.46875 C 72.574219 -111.386719 73.769531 -113.585938 73.949219 -114.414062 C 74.132812 -115.238281 72.757812 -117.898438 72.300781 -117.714844 C 72.023438 -117.714844 71.289062 -117.992188 70.648438 -118.359375 C 70.003906 -118.816406 68.539062 -119.277344 67.4375 -119.460938 C 65.601562 -119.828125 65.234375 -119.734375 64.777344 -119.277344 C 64.410156 -119 63.859375 -118.726562 63.398438 -118.449219 C 62.664062 -118.175781 62.207031 -117.441406 59.730469 -113.496094 C 58.902344 -112.121094 57.070312 -108.632812 55.691406 -105.605469 C 55.050781 -104.136719 54.042969 -102.210938 53.675781 -101.382812 C 53.308594 -100.558594 52.296875 -98.171875 51.472656 -96.15625 C 50.738281 -94.226562 49.914062 -92.210938 49.820312 -91.75 C 49.546875 -91.382812 49.269531 -90.464844 49.085938 -89.730469 C 48.71875 -88.632812 47.710938 -85.878906 45.601562 -80.925781 C 45.234375 -79.914062 44.222656 -77.53125 43.488281 -75.511719 C 42.757812 -73.492188 42.023438 -71.933594 41.929688 -71.933594 C 41.929688 -71.933594 41.105469 -72.941406 40.371094 -74.132812 C 37.800781 -78.078125 34.132812 -81.75 31.011719 -83.492188 C 30.1875 -83.953125 28.71875 -84.777344 27.800781 -85.328125 C 26.976562 -85.785156 23.855469 -87.164062 20.917969 -88.355469 C 6.972656 -93.953125 4.21875 -95.695312 4.769531 -98.632812 C 5.320312 -101.292969 8.53125 -103.863281 16.789062 -108.359375 C 17.984375 -109.089844 19.359375 -109.824219 19.816406 -110.101562 C 20.277344 -110.375 20.917969 -110.652344 21.101562 -110.742188 C 21.378906 -110.835938 21.835938 -111.019531 22.019531 -111.109375 C 22.296875 -111.292969 23.304688 -111.753906 24.128906 -112.027344 C 25.046875 -112.394531 26.058594 -112.851562 26.332031 -112.945312 C 28.257812 -114.136719 32.296875 -115.605469 33.214844 -115.515625 C 33.488281 -115.515625 33.949219 -115.789062 34.316406 -116.066406 C 35.230469 -116.980469 36.515625 -117.441406 36.792969 -117.074219 C 36.976562 -116.796875 37.066406 -116.796875 37.160156 -117.074219 C 37.25 -117.625 39.175781 -118.542969 40.003906 -118.449219 C 40.460938 -118.449219 41.105469 -118.632812 41.472656 -118.816406 C 41.839844 -119.09375 42.296875 -119.183594 42.480469 -119 C 42.757812 -118.816406 44.589844 -119.550781 44.957031 -120.101562 C 45.140625 -120.285156 45.785156 -120.46875 46.335938 -120.652344 C 46.882812 -120.652344 47.710938 -120.925781 48.167969 -121.292969 C 48.71875 -121.84375 49.363281 -121.9375 50.828125 -121.84375 C 52.941406 -121.753906 53.398438 -121.9375 53.308594 -122.578125 C 53.214844 -123.039062 54.132812 -123.589844 54.867188 -123.40625 C 55.234375 -123.40625 55.691406 -123.496094 55.96875 -123.589844 C 56.335938 -123.679688 56.425781 -123.589844 56.335938 -123.40625 C 56.242188 -123.128906 56.335938 -122.945312 56.425781 -122.945312 C 56.792969 -122.855469 59.085938 -123.863281 59.363281 -124.140625 C 59.730469 -124.503906 61.382812 -124.871094 62.390625 -124.78125 C 62.847656 -124.78125 63.398438 -124.871094 63.582031 -125.054688 C 63.859375 -125.332031 64.042969 -125.238281 64.5 -124.964844 C 64.683594 -124.78125 65.144531 -124.6875 65.234375 -124.6875 C 65.695312 -124.964844 70.003906 -125.699219 70.097656 -125.605469 C 70.1875 -125.605469 70.554688 -125.515625 71.105469 -125.699219 C 71.566406 -125.882812 72.117188 -125.972656 72.300781 -125.972656 C 72.484375 -125.972656 72.941406 -126.15625 73.402344 -126.339844 C 73.859375 -126.523438 74.410156 -126.617188 74.59375 -126.617188 C 74.777344 -126.617188 75.050781 -126.707031 75.328125 -126.984375 C 75.785156 -127.257812 76.613281 -127.257812 80.375 -126.800781 C 81.476562 -126.617188 82.757812 -126.617188 83.308594 -126.800781 C 83.769531 -127.074219 85.601562 -127.167969 87.253906 -126.984375 C 88.90625 -126.890625 90.464844 -126.890625 90.648438 -126.984375 C 90.832031 -127.074219 91.199219 -126.984375 91.476562 -126.707031 C 91.84375 -126.433594 93.21875 -126.15625 95.511719 -125.972656 C 98.449219 -125.699219 99 -125.605469 99.183594 -125.148438 C 99.457031 -124.597656 103.035156 -123.496094 103.585938 -123.773438 C 104.046875 -123.957031 105.144531 -123.40625 104.964844 -123.039062 C 104.78125 -122.945312 105.054688 -122.945312 105.511719 -122.945312 C 106.0625 -123.039062 106.15625 -122.945312 106.0625 -122.488281 C 105.972656 -122.210938 106.0625 -122.121094 106.246094 -122.304688 C 106.613281 -122.945312 106.980469 -122.761719 106.796875 -122.027344 C 106.707031 -121.386719 106.890625 -121.292969 107.808594 -121.292969 C 108.082031 -121.292969 108.542969 -120.925781 108.726562 -120.46875 C 109.089844 -120.011719 109.457031 -119.644531 109.640625 -119.644531 C 109.734375 -119.550781 110.46875 -119.183594 111.109375 -118.542969 C 111.753906 -117.898438 112.488281 -117.53125 112.761719 -117.625 C 113.3125 -117.808594 113.863281 -117.347656 113.585938 -116.890625 C 113.496094 -116.707031 113.496094 -116.433594 113.679688 -116.433594 C 113.863281 -116.433594 113.953125 -116.523438 114.046875 -116.796875 C 114.136719 -117.441406 114.964844 -115.882812 114.964844 -115.054688 C 114.871094 -114.503906 115.054688 -114.136719 115.148438 -114.136719 C 115.238281 -114.046875 115.332031 -113.863281 115.332031 -113.496094 C 115.238281 -113.21875 115.332031 -112.304688 115.421875 -111.570312 C 116.15625 -107.714844 114.414062 -101.292969 111.753906 -98.449219 C 110.835938 -97.4375 110.652344 -96.890625 111.109375 -96.796875 C 111.292969 -96.796875 111.660156 -96.707031 111.84375 -96.523438 C 112.121094 -96.339844 112.488281 -96.707031 113.128906 -97.714844 C 113.679688 -98.449219 114.136719 -99 114.136719 -98.90625 C 114.230469 -98.816406 114.046875 -98.449219 113.769531 -97.988281 C 113.402344 -97.4375 113.3125 -96.980469 113.3125 -96.613281 C 113.496094 -95.972656 113.585938 -95.972656 114.230469 -96.339844 C 114.597656 -96.523438 115.332031 -97.621094 115.882812 -98.539062 C 116.890625 -100.46875 117.441406 -100.46875 116.796875 -98.722656 C 116.617188 -98.265625 116.617188 -97.898438 116.707031 -97.898438 C 117.164062 -97.804688 117.625 -98.816406 117.53125 -99.457031 C 117.53125 -99.734375 117.808594 -100.191406 118.359375 -100.558594 C 119.09375 -101.199219 119.183594 -101.566406 119.734375 -104.136719 C 120.285156 -106.613281 120.285156 -107.347656 120.101562 -108.726562 C 119.644531 -110.558594 119.644531 -112.304688 119.828125 -113.128906 Z M 59.820312 -104.78125 C 59.820312 -104.964844 60.003906 -105.144531 60.097656 -105.144531 C 60.28125 -105.054688 60.371094 -104.964844 60.371094 -104.964844 C 60.371094 -104.871094 60.1875 -104.6875 60.003906 -104.597656 C 59.914062 -104.597656 59.730469 -104.597656 59.820312 -104.78125 Z M 59.546875 -96.613281 C 59.636719 -97.4375 60.1875 -98.449219 60.464844 -98.449219 C 60.554688 -98.449219 60.464844 -97.988281 60.1875 -97.4375 C 59.730469 -96.429688 59.363281 -96.0625 59.546875 -96.613281 Z M 58.996094 -95.605469 C 59.363281 -96.0625 59.269531 -96.0625 59.179688 -95.144531 C 59.085938 -94.59375 58.8125 -94.136719 58.71875 -94.136719 C 58.351562 -94.226562 58.445312 -94.777344 58.996094 -95.605469 Z M 38.078125 -58.351562 C 38.078125 -58.535156 38.261719 -58.628906 38.445312 -58.628906 C 38.535156 -58.628906 38.628906 -58.445312 38.628906 -58.351562 C 38.628906 -58.171875 38.445312 -57.988281 38.261719 -57.988281 C 38.167969 -58.078125 38.078125 -58.171875 38.078125 -58.351562 Z M 35.691406 -49.820312 C 35.875 -49.914062 35.875 -49.453125 35.691406 -48.902344 C 35.507812 -48.351562 35.230469 -47.894531 35.230469 -47.894531 C 35.046875 -47.894531 35.507812 -49.730469 35.691406 -49.820312 Z M 38.71875 -17.15625 C 38.167969 -16.148438 37.710938 -15.230469 37.710938 -15.230469 C 37.710938 -15.140625 37.710938 -16.054688 37.800781 -17.066406 C 37.894531 -18.074219 37.894531 -18.992188 37.800781 -19.085938 C 37.617188 -19.175781 37.710938 -19.542969 37.984375 -19.910156 C 38.351562 -20.277344 38.445312 -20.550781 38.261719 -20.917969 C 37.894531 -21.285156 38.078125 -22.386719 38.445312 -22.386719 C 38.902344 -22.296875 39.175781 -23.394531 38.8125 -24.3125 C 38.71875 -24.957031 38.71875 -25.230469 38.992188 -25.414062 C 39.269531 -25.507812 39.359375 -26.058594 39.453125 -27.160156 C 39.359375 -28.074219 39.726562 -29.542969 40.003906 -30.554688 C 40.460938 -32.203125 40.460938 -32.386719 39.910156 -32.296875 C 39.453125 -32.113281 39.359375 -32.296875 39.542969 -32.9375 C 39.542969 -33.304688 39.726562 -33.488281 39.910156 -33.398438 C 40.277344 -33.03125 41.011719 -33.855469 41.105469 -34.867188 C 41.378906 -36.058594 40.921875 -36.242188 40.371094 -35.230469 L 39.910156 -34.40625 L 40.003906 -35.597656 C 40.277344 -36.515625 40.371094 -36.609375 40.644531 -36.425781 C 40.921875 -36.332031 41.105469 -36.515625 41.378906 -36.882812 C 41.472656 -37.25 41.746094 -37.433594 41.839844 -37.34375 C 42.207031 -37.066406 42.207031 -38.078125 41.929688 -38.445312 C 41.65625 -38.8125 41.65625 -38.992188 42.113281 -39.269531 C 42.480469 -39.542969 42.664062 -39.636719 42.390625 -40.09375 C 42.113281 -40.644531 42.296875 -41.195312 42.9375 -41.746094 C 43.121094 -42.023438 43.488281 -42.757812 43.765625 -43.488281 L 44.222656 -44.773438 L 44.316406 -43.765625 C 44.40625 -40.09375 43.398438 -30.003906 42.480469 -26.425781 C 41.746094 -23.578125 40.371094 -20.09375 38.71875 -17.15625 Z M 42.296875 -43.949219 C 42.390625 -44.222656 42.574219 -44.40625 42.664062 -44.40625 C 42.847656 -44.40625 42.9375 -44.222656 42.9375 -44.039062 C 42.847656 -43.949219 42.664062 -43.671875 42.574219 -43.671875 C 42.390625 -43.582031 42.296875 -43.671875 42.296875 -43.949219 Z M 43.765625 -47.984375 C 43.304688 -46.699219 42.757812 -46.242188 43.03125 -47.34375 C 43.214844 -48.261719 43.671875 -49.085938 43.949219 -48.996094 C 44.039062 -48.996094 44.039062 -48.535156 43.765625 -47.984375 Z M 44.316406 -45.417969 C 44.222656 -45.140625 43.949219 -44.957031 43.765625 -44.957031 C 43.582031 -44.957031 43.398438 -45.234375 43.488281 -45.417969 C 43.488281 -45.691406 43.765625 -45.875 43.949219 -45.875 C 44.132812 -45.875 44.316406 -45.601562 44.316406 -45.417969 Z M 41.105469 -16.515625 C 40.554688 -15.507812 40.277344 -15.230469 40.460938 -15.964844 C 40.460938 -16.238281 40.828125 -16.605469 41.105469 -16.972656 C 41.5625 -17.433594 41.5625 -17.433594 41.105469 -16.515625 Z M 42.574219 -19.359375 C 42.390625 -19.175781 42.113281 -18.808594 42.113281 -18.535156 C 42.023438 -18.257812 41.839844 -17.890625 41.65625 -17.800781 C 41.289062 -17.617188 41.472656 -18.441406 42.023438 -19.449219 C 42.296875 -19.910156 42.757812 -20.917969 42.9375 -21.652344 C 43.121094 -22.386719 43.398438 -23.121094 43.582031 -23.394531 C 43.949219 -23.761719 43.949219 -23.671875 45.140625 -29.175781 C 45.875 -32.753906 46.242188 -33.855469 46.242188 -33.214844 C 46.425781 -31.011719 43.488281 -20.183594 42.574219 -19.359375 Z M 44.5 -57.160156 C 44.5 -57.34375 44.589844 -57.527344 44.683594 -57.527344 C 44.773438 -57.527344 44.867188 -57.34375 44.867188 -57.160156 C 44.957031 -56.976562 44.867188 -56.886719 44.683594 -56.886719 C 44.589844 -56.886719 44.5 -57.070312 44.5 -57.160156 Z M 46.335938 -47.617188 C 46.152344 -47.25 46.058594 -47.527344 46.058594 -48.261719 C 45.875 -49.453125 46.058594 -49.914062 46.335938 -48.8125 C 46.425781 -48.445312 46.425781 -47.984375 46.335938 -47.617188 Z M 46.519531 -45.050781 C 46.519531 -43.671875 46.242188 -43.582031 46.058594 -44.773438 C 45.96875 -46.058594 45.96875 -46.058594 46.335938 -45.96875 C 46.519531 -45.96875 46.609375 -45.507812 46.519531 -45.050781 Z M 46.058594 -50.1875 C 45.875 -50.097656 45.691406 -51.011719 45.785156 -51.472656 C 45.875 -51.746094 45.96875 -51.5625 45.96875 -51.105469 C 46.058594 -50.644531 46.058594 -50.28125 46.058594 -50.1875 Z M 46.699219 -38.351562 C 46.609375 -36.058594 46.425781 -34.773438 46.242188 -34.589844 C 45.96875 -34.316406 45.875 -36.515625 46.152344 -37.527344 C 46.242188 -37.710938 46.335938 -38.992188 46.425781 -40.1875 C 46.425781 -41.472656 46.519531 -42.757812 46.519531 -42.9375 C 46.792969 -43.765625 46.792969 -41.65625 46.699219 -38.351562 Z M 57.894531 -92.210938 C 57.710938 -91.476562 57.253906 -90.375 56.792969 -89.640625 C 56.425781 -88.816406 55.875 -87.621094 55.601562 -86.886719 C 55.234375 -86.152344 54.773438 -84.960938 54.5 -84.320312 C 54.132812 -83.402344 54.042969 -82.941406 54.226562 -82.667969 C 54.316406 -82.300781 54.226562 -82.207031 53.949219 -82.300781 C 53.492188 -82.300781 53.308594 -81.75 53.675781 -81.566406 C 53.949219 -81.382812 53.765625 -81.015625 53.125 -80.097656 C 52.390625 -79.089844 52.207031 -78.8125 52.574219 -78.628906 C 52.757812 -78.355469 52.757812 -78.261719 52.480469 -78.261719 C 52.296875 -78.355469 52.113281 -77.988281 52.023438 -77.621094 C 51.746094 -76.429688 51.5625 -75.878906 51.378906 -76.0625 C 51.289062 -76.152344 51.011719 -75.328125 50.828125 -74.316406 C 50.644531 -73.21875 50.28125 -72.207031 50.097656 -72.117188 C 49.820312 -71.933594 49.636719 -71.289062 49.453125 -70.738281 C 49.363281 -70.1875 48.996094 -69.179688 48.628906 -68.628906 C 48.261719 -67.988281 47.800781 -66.425781 47.34375 -64.960938 C 46.882812 -62.664062 46.792969 -62.390625 46.335938 -62.390625 C 46.058594 -62.390625 45.875 -62.480469 45.875 -62.574219 C 46.058594 -63.398438 48.261719 -69.730469 48.8125 -71.015625 C 49.269531 -71.933594 49.820312 -73.675781 50.1875 -74.960938 C 50.554688 -76.246094 51.105469 -77.804688 51.472656 -78.355469 C 51.839844 -78.996094 52.296875 -80.007812 52.480469 -80.464844 C 52.574219 -81.109375 52.847656 -81.839844 52.941406 -82.023438 C 53.125 -82.300781 53.582031 -83.308594 54.042969 -84.320312 C 54.5 -85.328125 55.140625 -86.980469 55.691406 -88.082031 C 56.152344 -89.089844 56.519531 -90.007812 56.425781 -90.191406 C 56.425781 -90.375 56.792969 -91.109375 57.253906 -91.933594 L 58.261719 -93.402344 Z M 53.214844 -94.503906 C 53.398438 -94.59375 53.675781 -95.421875 53.949219 -96.0625 C 54.042969 -96.796875 54.316406 -97.347656 54.5 -97.347656 C 54.5 -97.347656 54.773438 -97.804688 55.050781 -98.355469 C 55.324219 -99.089844 55.417969 -99.183594 55.417969 -98.816406 C 55.417969 -98.355469 55.050781 -97.4375 54.589844 -96.523438 C 53.492188 -93.953125 53.214844 -93.585938 53.03125 -93.859375 C 52.941406 -94.042969 53.03125 -94.226562 53.214844 -94.503906 Z M 50.828125 -89 C 51.011719 -89.546875 51.289062 -90.191406 51.472656 -90.558594 C 52.023438 -91.75 52.757812 -93.128906 52.941406 -93.128906 C 53.03125 -93.035156 52.574219 -91.660156 51.929688 -90.007812 C 51.289062 -88.355469 50.644531 -86.980469 50.554688 -86.980469 C 50.28125 -86.980469 50.28125 -87.988281 50.828125 -89 Z M 43.855469 -70.921875 C 44.589844 -73.402344 44.773438 -73.675781 44.957031 -74.226562 C 45.140625 -74.410156 45.507812 -75.144531 45.691406 -75.878906 C 46.242188 -77.4375 48.8125 -83.769531 49.453125 -85.238281 C 50.003906 -86.429688 50.554688 -86.703125 50.371094 -85.785156 C 50.28125 -85.511719 50.003906 -84.960938 49.730469 -84.503906 C 49.453125 -84.042969 49.179688 -83.308594 49.179688 -82.667969 L 49.179688 -81.566406 L 49.636719 -82.757812 C 50.371094 -84.320312 51.929688 -88.082031 52.296875 -89.089844 C 52.390625 -89.546875 52.574219 -90.007812 52.757812 -90.28125 C 52.941406 -90.464844 53.492188 -91.75 54.042969 -93.128906 C 55.691406 -97.074219 57.253906 -100.285156 57.527344 -100.285156 C 57.804688 -100.285156 57.621094 -99.183594 57.160156 -98.816406 C 56.976562 -98.632812 56.703125 -98.265625 56.609375 -97.988281 C 56.425781 -97.621094 56.335938 -97.347656 56.335938 -97.347656 C 56.335938 -97.347656 56.242188 -97.164062 56.058594 -96.890625 C 55.96875 -96.707031 55.691406 -95.878906 55.324219 -95.054688 C 55.050781 -94.320312 54.5 -93.128906 54.226562 -92.394531 C 53.949219 -91.660156 53.582031 -91.015625 53.492188 -90.832031 C 53.398438 -90.742188 52.941406 -89.730469 52.574219 -88.722656 C 52.207031 -87.621094 51.5625 -86.0625 51.289062 -85.144531 C 50.921875 -84.320312 50.644531 -83.308594 50.464844 -82.851562 C 50.28125 -82.484375 49.730469 -81.109375 49.269531 -80.007812 C 47.25 -74.777344 45.324219 -69.824219 44.957031 -68.539062 C 44.40625 -66.703125 44.316406 -66.703125 44.132812 -67.894531 C 44.039062 -68.445312 43.855469 -68.90625 43.671875 -68.90625 C 43.304688 -68.996094 43.398438 -69.363281 43.855469 -70.921875 Z M 43.398438 -54.773438 C 43.582031 -54.773438 43.671875 -54.410156 43.582031 -54.132812 C 43.488281 -53.765625 43.304688 -53.492188 43.121094 -53.492188 C 42.847656 -53.582031 42.847656 -53.492188 43.03125 -53.308594 C 43.488281 -52.847656 43.03125 -50.371094 42.480469 -49.546875 C 42.207031 -49.269531 41.65625 -47.527344 41.289062 -45.785156 C 40.921875 -44.039062 40.460938 -42.390625 40.277344 -42.207031 C 40.1875 -42.113281 40.003906 -41.65625 39.910156 -41.195312 C 39.820312 -40.738281 39.453125 -39.820312 39.269531 -39.175781 C 38.902344 -38.261719 38.992188 -38.078125 39.269531 -38.351562 C 39.542969 -38.71875 39.542969 -38.628906 39.453125 -37.984375 C 39.359375 -37.527344 39.085938 -37.066406 38.992188 -36.976562 C 38.8125 -36.882812 38.535156 -35.875 38.351562 -34.5 C 38.167969 -33.304688 37.800781 -32.203125 37.710938 -32.203125 C 37.527344 -32.203125 37.433594 -31.746094 37.25 -31.101562 C 37.160156 -30.460938 37.25 -30.003906 37.433594 -30.003906 C 37.710938 -30.003906 37.710938 -29.726562 37.527344 -29.269531 C 37.34375 -28.902344 37.066406 -28.535156 36.976562 -28.441406 C 36.699219 -28.257812 34.867188 -19.085938 34.957031 -18.625 C 35.046875 -18.441406 34.867188 -17.25 34.5 -15.964844 C 34.222656 -14.773438 33.765625 -12.570312 33.671875 -11.101562 C 33.488281 -9.542969 33.304688 -8.347656 33.121094 -8.164062 C 32.386719 -7.617188 33.398438 -15.597656 34.773438 -22.480469 C 36.609375 -30.921875 39.085938 -41.472656 39.359375 -42.207031 C 39.453125 -42.664062 39.910156 -44.039062 40.277344 -45.417969 C 42.296875 -52.847656 42.847656 -54.773438 43.398438 -54.773438 Z M 41.378906 -63.582031 C 41.746094 -63.859375 41.746094 -63.398438 41.472656 -62.574219 C 41.378906 -62.296875 41.472656 -62.207031 41.746094 -62.117188 C 42.207031 -62.117188 42.480469 -60.003906 42.023438 -59.546875 C 41.746094 -59.269531 39.636719 -52.480469 39.269531 -50.644531 C 39.085938 -50.28125 38.628906 -48.445312 38.078125 -46.699219 C 37.617188 -44.867188 36.425781 -39.910156 35.507812 -35.597656 C 34.40625 -30.09375 33.765625 -27.707031 33.398438 -27.433594 C 33.121094 -27.160156 33.121094 -26.882812 33.214844 -26.699219 C 33.582031 -26.515625 32.203125 -19.726562 31.652344 -19.175781 C 31.378906 -18.992188 31.285156 -18.71875 31.46875 -18.441406 C 31.835938 -17.800781 31.195312 -13.304688 30.738281 -12.660156 C 30.371094 -12.203125 30.277344 -12.292969 30.460938 -13.210938 C 30.554688 -15.507812 31.195312 -19.449219 32.203125 -24.128906 C 32.9375 -27.800781 33.03125 -28.808594 32.664062 -28.441406 C 31.929688 -27.433594 29.820312 -15.324219 29.453125 -10.367188 C 29.453125 -9.816406 29.359375 -9.265625 29.359375 -9.265625 C 29.085938 -9.265625 28.992188 -9.632812 29.175781 -10 C 29.359375 -10.277344 29.269531 -10.460938 29.085938 -10.644531 C 28.992188 -10.734375 28.992188 -11.195312 29.269531 -11.652344 C 29.453125 -12.109375 29.453125 -12.570312 29.359375 -12.660156 C 29.175781 -12.84375 29.175781 -13.945312 29.269531 -15.046875 C 29.453125 -17.800781 32.203125 -31.378906 32.664062 -32.386719 C 32.9375 -32.753906 33.03125 -33.582031 33.121094 -34.132812 C 33.214844 -34.773438 33.671875 -37.066406 34.132812 -39.085938 C 34.683594 -41.289062 35.597656 -44.957031 36.242188 -47.34375 C 36.792969 -49.730469 37.710938 -52.664062 38.167969 -53.949219 C 38.628906 -55.140625 38.992188 -56.335938 38.902344 -56.425781 C 38.8125 -56.792969 41.011719 -63.214844 41.378906 -63.582031 Z M 59.363281 -132.121094 C 59.636719 -132.394531 65.328125 -133.40625 65.878906 -133.3125 C 66.152344 -133.3125 64.867188 -132.945312 63.125 -132.578125 C 59.914062 -131.9375 58.996094 -131.847656 59.363281 -132.121094 Z M 7.066406 -110.46875 C 6.789062 -110.46875 7.339844 -111.203125 7.890625 -111.476562 C 8.164062 -111.660156 8.625 -111.9375 8.898438 -112.121094 C 9.542969 -112.671875 13.121094 -114.6875 14.128906 -115.238281 C 14.679688 -115.515625 16.605469 -116.433594 18.441406 -117.441406 C 24.773438 -120.558594 36.058594 -125.148438 44.132812 -127.902344 C 50.097656 -129.917969 56.609375 -131.753906 57.988281 -131.847656 C 59.453125 -132.03125 58.628906 -131.753906 55.324219 -130.929688 C 53.859375 -130.5625 52.296875 -130.101562 51.746094 -129.917969 C 51.289062 -129.734375 49.269531 -129 47.160156 -128.449219 C 45.234375 -127.808594 41.289062 -126.433594 38.445312 -125.421875 C 31.5625 -122.945312 16.789062 -116.433594 14.773438 -115.054688 C 14.3125 -114.78125 13.394531 -114.230469 12.660156 -113.769531 C 11.925781 -113.496094 10.367188 -112.488281 9.265625 -111.753906 C 8.074219 -111.109375 7.15625 -110.46875 7.066406 -110.46875 Z M 44.039062 -126.523438 C 43.488281 -126.15625 41.65625 -125.605469 42.023438 -125.972656 C 42.207031 -126.15625 42.847656 -126.433594 43.398438 -126.523438 C 44.316406 -126.890625 44.40625 -126.890625 44.039062 -126.523438 Z M 41.472656 -125.605469 C 41.378906 -125.421875 40.738281 -125.148438 40.1875 -125.054688 C 39.636719 -124.871094 38.992188 -124.6875 38.8125 -124.503906 C 38.351562 -124.230469 35.507812 -123.496094 35.78125 -123.773438 C 36.332031 -124.230469 41.746094 -125.972656 41.472656 -125.605469 Z M 33.949219 -122.761719 C 33.214844 -122.488281 32.570312 -122.210938 32.386719 -122.210938 C 32.113281 -122.304688 34.039062 -123.3125 34.773438 -123.496094 C 35.875 -123.679688 35.414062 -123.3125 33.949219 -122.761719 Z M 31.46875 -121.9375 C 30.921875 -121.476562 28.71875 -120.558594 28.71875 -120.835938 C 28.71875 -120.925781 29.453125 -121.203125 30.371094 -121.660156 C 31.285156 -122.027344 31.746094 -122.121094 31.46875 -121.9375 Z M 27.890625 -120.285156 C 27.617188 -120.011719 27.25 -119.828125 26.976562 -119.828125 C 26.882812 -119.828125 27.066406 -120.101562 27.339844 -120.285156 C 27.707031 -120.46875 28.074219 -120.742188 28.257812 -120.652344 C 28.441406 -120.652344 28.351562 -120.46875 27.890625 -120.285156 Z M 25.046875 -119.183594 C 25.046875 -119.183594 24.773438 -118.910156 24.40625 -118.816406 C 24.128906 -118.632812 23.855469 -118.632812 23.855469 -118.726562 C 23.855469 -118.726562 24.222656 -119 24.496094 -119.09375 C 24.773438 -119.277344 25.140625 -119.277344 25.046875 -119.183594 Z M 18.625 -116.25 C 18.625 -116.25 18.441406 -116.066406 18.351562 -115.972656 C 18.167969 -115.972656 18.074219 -115.972656 18.074219 -116.15625 C 18.167969 -116.339844 18.257812 -116.433594 18.441406 -116.433594 C 18.535156 -116.433594 18.71875 -116.339844 18.625 -116.25 Z M 42.847656 -123.3125 C 41.105469 -122.578125 39.085938 -121.660156 38.535156 -121.203125 C 37.710938 -120.652344 36.882812 -120.285156 36.058594 -120.195312 C 35.324219 -120.101562 34.683594 -120.011719 34.589844 -119.828125 C 34.589844 -119.734375 33.765625 -119.183594 32.664062 -118.726562 C 31.652344 -118.359375 30.460938 -117.714844 30.003906 -117.53125 C 29.636719 -117.347656 28.167969 -116.796875 26.792969 -116.25 C 24.40625 -115.332031 24.128906 -115.238281 20.917969 -113.679688 C 20 -113.21875 18.441406 -112.488281 17.433594 -112.121094 C 16.515625 -111.660156 15.140625 -111.019531 14.496094 -110.652344 C 13.394531 -110.007812 12.386719 -109.824219 12.386719 -110.191406 C 12.476562 -110.375 21.285156 -115.605469 21.746094 -115.515625 C 21.746094 -115.515625 22.847656 -116.066406 24.128906 -116.707031 C 25.324219 -117.347656 26.792969 -118.082031 27.339844 -118.265625 C 27.984375 -118.449219 30.09375 -119.367188 32.203125 -120.285156 C 34.316406 -121.203125 36.148438 -121.9375 36.332031 -121.9375 C 36.609375 -121.9375 36.699219 -122.027344 36.792969 -122.210938 C 36.792969 -122.304688 37.25 -122.578125 37.894531 -122.761719 C 38.445312 -122.945312 39.085938 -123.222656 39.269531 -123.496094 C 39.453125 -123.773438 39.636719 -123.863281 39.542969 -123.589844 C 39.542969 -123.40625 39.820312 -123.40625 40.644531 -123.679688 C 41.378906 -123.863281 41.929688 -123.863281 42.113281 -123.773438 C 42.296875 -123.589844 42.664062 -123.863281 43.03125 -124.230469 C 43.765625 -124.871094 44.773438 -125.148438 45.601562 -124.871094 C 45.785156 -124.78125 44.773438 -124.230469 42.847656 -123.3125 Z M 46.152344 -127.535156 C 46.425781 -127.808594 46.882812 -127.992188 47.160156 -127.992188 C 47.433594 -127.902344 48.628906 -128.269531 49.636719 -128.542969 C 53.214844 -129.734375 54.589844 -130.101562 55.417969 -130.285156 C 56.703125 -130.378906 55.691406 -130.011719 53.308594 -129.367188 C 52.207031 -129 50.921875 -128.632812 50.371094 -128.449219 C 49.820312 -128.269531 48.71875 -127.902344 47.800781 -127.625 C 45.96875 -126.984375 45.601562 -126.984375 46.152344 -127.535156 Z M 57.710938 -126.890625 C 57.34375 -126.800781 57.34375 -126.890625 57.621094 -127.167969 C 57.894531 -127.257812 58.078125 -127.351562 58.171875 -127.257812 C 58.261719 -127.167969 58.078125 -127.074219 57.710938 -126.890625 Z M 62.207031 -127.992188 C 62.117188 -127.808594 61.75 -127.71875 61.566406 -127.71875 C 61.015625 -127.71875 61.199219 -127.992188 61.839844 -128.085938 C 62.117188 -128.175781 62.296875 -128.085938 62.207031 -127.992188 Z M 62.390625 -129.367188 C 61.472656 -129 60.554688 -128.726562 60.28125 -128.726562 C 59.636719 -128.816406 57.710938 -128.269531 55.691406 -127.441406 C 54.867188 -127.074219 53.859375 -126.707031 53.398438 -126.523438 C 52.757812 -126.25 52.757812 -126.25 53.582031 -126.339844 C 54.132812 -126.339844 54.410156 -126.25 54.316406 -126.066406 C 54.226562 -125.972656 53.859375 -125.789062 53.675781 -125.882812 C 53.398438 -125.882812 52.390625 -125.515625 51.5625 -125.238281 C 49.730469 -124.414062 48.535156 -124.324219 49.914062 -125.148438 C 50.371094 -125.421875 50.738281 -125.699219 50.828125 -125.882812 C 50.921875 -126.25 50.097656 -126.15625 48.351562 -125.515625 C 45.601562 -124.414062 45.875 -124.871094 48.8125 -126.066406 C 50.28125 -126.707031 51.5625 -127.257812 51.746094 -127.257812 C 51.839844 -127.257812 52.574219 -127.535156 53.308594 -127.71875 C 54.042969 -127.992188 56.058594 -128.632812 57.894531 -128.910156 C 59.730469 -129.367188 61.75 -129.828125 62.480469 -130.011719 C 63.675781 -130.378906 65.511719 -130.378906 64.410156 -130.101562 C 64.226562 -130.011719 63.308594 -129.644531 62.390625 -129.367188 Z M 65.601562 -128.449219 C 65.328125 -128.269531 64.867188 -128.085938 64.59375 -128.085938 C 64.042969 -128.085938 64.316406 -128.359375 65.328125 -128.632812 C 66.152344 -128.910156 66.152344 -128.816406 65.601562 -128.449219 Z M 69.273438 -129.183594 C 68.8125 -128.910156 67.4375 -128.816406 67.710938 -129.09375 C 67.804688 -129.277344 68.261719 -129.367188 68.628906 -129.367188 C 68.996094 -129.277344 69.273438 -129.183594 69.273438 -129.183594 Z M 70.003906 -129.550781 C 70.097656 -129.644531 70.464844 -129.828125 70.832031 -129.734375 C 71.289062 -129.734375 71.289062 -129.644531 70.921875 -129.460938 C 70.28125 -129.09375 69.730469 -129.183594 70.003906 -129.550781 Z M 73.769531 -129.828125 C 73.585938 -129.734375 72.941406 -129.550781 72.484375 -129.644531 C 71.472656 -129.734375 71.75 -129.828125 73.125 -130.011719 C 73.949219 -130.101562 74.132812 -130.011719 73.769531 -129.828125 Z M 73.308594 -134.140625 C 72.300781 -133.957031 70.738281 -133.773438 69.824219 -133.679688 C 67.4375 -133.3125 67.253906 -133.496094 69.640625 -133.957031 C 70.832031 -134.230469 72.574219 -134.414062 73.492188 -134.414062 L 75.144531 -134.414062 Z M 75.878906 -130.101562 C 75.417969 -130.101562 75.234375 -130.195312 75.511719 -130.285156 C 75.695312 -130.285156 76.0625 -130.285156 76.246094 -130.195312 C 76.519531 -130.101562 76.429688 -130.011719 75.878906 -130.101562 Z M 56.058594 -58.628906 C 56.058594 -58.261719 56.058594 -58.171875 56.242188 -58.351562 C 56.335938 -58.628906 56.425781 -58.902344 56.335938 -58.996094 C 56.242188 -59.085938 56.152344 -58.902344 56.058594 -58.628906 Z M 52.023438 -65.601562 C 51.929688 -65.144531 51.929688 -65.144531 52.113281 -65.328125 C 52.296875 -65.511719 52.296875 -65.878906 52.207031 -65.96875 C 52.113281 -66.0625 52.023438 -65.878906 52.023438 -65.601562 Z M 52.023438 -65.601562 "/></g></g></g><g fill="#ffffff" fill-opacity="1"><g transform="translate(137.455416, 280.649178)"><g><path d="M 0.917969 -17.433594 C 1.558594 -17.339844 2.109375 -17.339844 2.292969 -17.339844 C 2.386719 -17.339844 2.292969 -17.523438 2.109375 -17.890625 C 1.925781 -18.257812 2.019531 -18.625 2.109375 -18.71875 C 2.292969 -18.902344 2.476562 -19.449219 2.386719 -20.09375 C 2.292969 -21.195312 5.046875 -28.902344 7.15625 -33.304688 C 7.980469 -35.046875 9.175781 -37.617188 9.910156 -39.085938 C 12.292969 -44.316406 20.828125 -57.894531 24.679688 -62.664062 C 25.414062 -63.582031 26.976562 -65.511719 27.984375 -66.886719 C 30.738281 -70.554688 32.9375 -72.484375 33.304688 -71.933594 C 33.488281 -71.472656 33.582031 -71.566406 33.488281 -72.023438 C 33.582031 -72.484375 33.765625 -72.851562 34.132812 -72.851562 C 34.5 -72.941406 34.957031 -72.300781 35.324219 -70.371094 C 36.425781 -65.144531 37.34375 -62.664062 38.902344 -60.371094 C 40.277344 -57.988281 42.847656 -55.875 43.949219 -55.96875 C 44.316406 -56.058594 44.40625 -55.875 44.316406 -55.691406 C 44.222656 -55.601562 44.957031 -55.417969 45.691406 -55.417969 C 47.066406 -55.507812 47.25 -55.507812 47.34375 -57.070312 C 47.433594 -58.445312 47.25 -58.902344 46.519531 -59.363281 C 44.957031 -60.554688 44.40625 -61.839844 44.132812 -65.050781 C 43.582031 -69.179688 41.746094 -73.675781 39.542969 -75.511719 C 36.976562 -77.714844 32.753906 -78.539062 30.003906 -77.4375 C 27.800781 -76.613281 25.230469 -74.226562 25.597656 -73.585938 C 25.78125 -73.308594 25.691406 -73.035156 25.507812 -73.125 C 25.046875 -73.402344 19.816406 -67.710938 19.816406 -66.886719 C 19.910156 -66.703125 20.550781 -67.34375 21.46875 -68.261719 C 23.761719 -71.199219 23.394531 -70.1875 20.828125 -66.886719 C 19.175781 -64.777344 18.625 -64.316406 18.902344 -65.144531 C 18.992188 -66.242188 18.992188 -66.242188 18.441406 -65.511719 C 17.984375 -65.144531 17.800781 -64.410156 17.800781 -63.859375 C 17.707031 -63.214844 17.617188 -62.757812 17.339844 -62.757812 C 17.066406 -62.757812 16.148438 -61.839844 15.324219 -60.832031 C 13.210938 -57.894531 13.210938 -57.34375 15.230469 -60.097656 C 16.238281 -61.289062 17.15625 -62.207031 17.25 -61.839844 C 17.25 -61.105469 23.855469 -69.730469 23.761719 -70.554688 C 23.671875 -70.921875 23.855469 -71.199219 24.128906 -71.199219 C 24.496094 -71.105469 25.507812 -72.023438 26.425781 -73.035156 C 28.441406 -75.144531 30.09375 -76.519531 30.644531 -76.519531 C 31.285156 -76.613281 30.921875 -75.785156 30.1875 -75.417969 C 29.636719 -75.234375 29.359375 -74.777344 29.359375 -74.410156 C 29.453125 -74.042969 29.175781 -73.859375 28.992188 -73.949219 C 28.535156 -74.226562 24.039062 -69.363281 24.128906 -68.628906 C 24.128906 -68.445312 23.121094 -66.886719 21.929688 -65.234375 C 18.257812 -60.648438 14.957031 -55.785156 14.128906 -54.316406 C 13.761719 -53.582031 13.210938 -53.03125 12.84375 -52.941406 C 12.476562 -52.941406 12.292969 -52.847656 12.570312 -52.480469 C 12.660156 -52.296875 12.386719 -51.472656 11.925781 -50.738281 C 11.378906 -50.003906 10.367188 -48.351562 9.726562 -47.066406 C 9.082031 -45.785156 8.53125 -45.234375 8.53125 -45.507812 C 8.53125 -45.96875 8.53125 -46.425781 8.808594 -46.609375 C 8.992188 -46.699219 9.359375 -47.710938 9.542969 -48.902344 C 9.632812 -50.003906 10.183594 -51.289062 10.644531 -51.746094 C 11.011719 -52.207031 11.285156 -52.757812 11.101562 -52.941406 C 10.917969 -53.125 12.570312 -57.988281 14.773438 -63.765625 C 17.066406 -69.640625 18.902344 -75.144531 19.175781 -76.335938 C 19.542969 -78.261719 19.542969 -78.261719 18.074219 -79.457031 C 17.25 -80.007812 15.964844 -80.558594 15.414062 -80.558594 C 12.9375 -80.558594 11.195312 -80.007812 10.734375 -79.179688 C 9.910156 -77.894531 3.578125 -60.921875 3.121094 -58.261719 C 2.84375 -57.4375 2.386719 -55.96875 1.835938 -54.132812 C 1.375 -53.125 0.640625 -50.554688 0.0898438 -48.71875 C -0.457031 -46.792969 -1.101562 -44.957031 -1.285156 -44.589844 C -1.835938 -43.214844 -4.585938 -32.9375 -4.679688 -31.5625 C -4.769531 -30.738281 -4.953125 -30.003906 -5.136719 -29.636719 C -5.414062 -29.359375 -5.503906 -28.71875 -5.503906 -28.257812 C -5.597656 -27.800781 -5.6875 -27.160156 -5.871094 -26.699219 C -6.054688 -26.332031 -6.148438 -24.957031 -6.054688 -23.761719 C -5.78125 -21.746094 -5.597656 -21.378906 -3.761719 -19.816406 C -2.570312 -18.808594 -1.558594 -18.351562 -1.101562 -18.535156 C -0.734375 -18.71875 -0.457031 -18.625 -0.367188 -18.167969 C -0.367188 -17.800781 0.0898438 -17.433594 0.917969 -17.433594 Z M -0.273438 -35.78125 C -1.007812 -32.570312 -2.660156 -27.984375 -2.753906 -28.535156 C -2.9375 -29.359375 -2.109375 -32.664062 -0.734375 -37.894531 C 1.191406 -44.5 1.191406 -44.589844 2.019531 -47.160156 C 2.476562 -48.261719 2.84375 -49.914062 2.9375 -50.828125 C 3.027344 -51.5625 3.304688 -52.574219 3.578125 -52.941406 C 3.761719 -53.398438 4.21875 -54.5 4.496094 -55.324219 C 5.230469 -58.078125 9.082031 -67.894531 9.265625 -67.710938 C 9.449219 -67.621094 8.53125 -64.867188 7.433594 -61.472656 C 6.332031 -58.171875 5.320312 -54.773438 5.136719 -54.132812 C 5.136719 -53.492188 4.769531 -52.574219 4.496094 -51.929688 C 4.21875 -51.472656 3.488281 -49.085938 2.84375 -46.699219 C 2.203125 -44.40625 1.375 -41.472656 1.007812 -40.460938 C 0.640625 -39.453125 0 -37.34375 -0.273438 -35.78125 Z M 3.027344 -35.046875 C 2.660156 -34.132812 2.292969 -33.214844 2.019531 -33.214844 C 1.742188 -33.214844 1.652344 -33.488281 1.742188 -33.765625 C 1.835938 -34.132812 2.570312 -36.425781 3.210938 -38.71875 C 3.855469 -41.105469 4.953125 -44.5 5.597656 -46.242188 C 6.332031 -48.078125 6.789062 -49.730469 6.789062 -49.914062 C 6.699219 -50.644531 8.808594 -56.242188 9.082031 -56.058594 C 9.175781 -56.058594 8.347656 -53.125 7.15625 -49.546875 C 5.136719 -43.214844 4.3125 -40.644531 3.945312 -38.167969 C 3.761719 -37.527344 3.304688 -36.148438 3.027344 -35.046875 Z M 6.421875 -35.046875 C 6.148438 -34.867188 5.597656 -34.589844 5.414062 -34.5 C 5.136719 -34.5 5.136719 -34.589844 5.503906 -34.773438 C 5.6875 -34.867188 5.964844 -35.507812 5.871094 -36.148438 C 5.871094 -36.699219 5.964844 -37.25 6.238281 -37.433594 C 6.421875 -37.617188 6.972656 -38.902344 7.523438 -40.277344 C 7.890625 -41.65625 8.714844 -43.03125 9.082031 -43.121094 C 10.367188 -43.855469 11.011719 -44.40625 10.277344 -44.867188 C 9.542969 -45.234375 11.285156 -48.078125 12.203125 -47.800781 C 12.660156 -47.617188 12.753906 -47.710938 12.476562 -48.351562 C 12.386719 -48.902344 12.476562 -49.730469 13.210938 -50.554688 C 13.671875 -51.378906 14.039062 -51.746094 14.222656 -51.472656 C 14.222656 -51.105469 14.40625 -51.011719 14.679688 -51.195312 C 14.863281 -51.378906 14.863281 -51.746094 14.679688 -52.023438 C 14.3125 -52.757812 15.871094 -55.507812 16.699219 -55.601562 C 16.972656 -55.601562 17.339844 -56.242188 17.433594 -56.609375 C 17.617188 -57.988281 24.773438 -67.710938 28.535156 -71.75 C 30.003906 -73.492188 31.652344 -74.867188 32.113281 -74.867188 C 32.664062 -74.960938 32.9375 -74.867188 32.664062 -74.59375 C 32.386719 -74.410156 32.296875 -74.226562 31.101562 -74.042969 C 30.828125 -73.949219 30.738281 -73.769531 31.011719 -73.492188 C 31.195312 -73.21875 31.011719 -72.851562 30.554688 -72.757812 C 28.992188 -71.933594 26.425781 -68.996094 26.058594 -67.4375 C 25.78125 -66.609375 25.414062 -65.785156 25.046875 -65.785156 C 24.863281 -65.695312 24.128906 -65.144531 23.671875 -64.316406 C 23.121094 -63.308594 22.113281 -61.933594 21.46875 -60.921875 C 20 -59.179688 16.515625 -53.308594 14.496094 -49.730469 C 13.761719 -48.535156 12.203125 -45.785156 11.101562 -43.765625 C 9.910156 -41.65625 8.53125 -39.085938 8.074219 -37.894531 C 7.523438 -36.792969 6.882812 -35.507812 6.421875 -35.046875 Z M 12.84375 -49.179688 C 12.753906 -48.535156 12.84375 -48.535156 13.304688 -48.996094 C 14.039062 -49.730469 14.039062 -50.003906 13.488281 -49.914062 C 13.210938 -49.914062 12.9375 -49.636719 12.84375 -49.179688 Z M 11.378906 -53.308594 C 11.46875 -52.664062 11.742188 -52.847656 12.203125 -53.949219 C 12.660156 -54.957031 12.570312 -54.957031 11.925781 -54.316406 C 11.652344 -53.949219 11.378906 -53.492188 11.378906 -53.308594 Z M 11.378906 -53.308594 "/></g></g></g><g fill="#ffffff" fill-opacity="1"><g transform="translate(192.406051, 280.649178)"><g><path d="M 61.289062 -46.792969 C 60.003906 -45.507812 58.628906 -44.222656 57.710938 -43.398438 C 54.589844 -40.277344 50.828125 -36.882812 50.644531 -36.976562 C 50.464844 -37.25 52.296875 -39.269531 52.847656 -39.453125 C 53.308594 -39.636719 54.957031 -41.5625 54.683594 -41.5625 C 54.589844 -41.5625 53.398438 -40.554688 52.023438 -39.269531 C 50.738281 -38.078125 49.269531 -36.699219 48.71875 -36.332031 C 48.167969 -35.964844 47.617188 -35.414062 47.34375 -35.230469 C 46.425781 -34.222656 42.574219 -31.929688 42.113281 -31.929688 C 41.378906 -32.113281 41.195312 -33.765625 41.289062 -41.65625 C 41.472656 -56.976562 41.472656 -58.261719 41.011719 -59.085938 C 40.828125 -59.546875 40.460938 -60.1875 40.371094 -60.648438 C 39.726562 -61.933594 38.902344 -62.574219 37.710938 -62.574219 C 36.792969 -62.574219 36.515625 -62.664062 36.515625 -62.941406 C 36.515625 -63.398438 36.425781 -63.398438 35.691406 -63.214844 C 34.957031 -63.125 34.867188 -63.125 35.140625 -63.492188 C 35.507812 -63.859375 35.597656 -63.859375 36.425781 -63.492188 C 37.34375 -63.125 39.359375 -62.941406 39.636719 -63.214844 C 40.003906 -63.582031 39.269531 -67.804688 38.535156 -69.824219 C 37.800781 -71.566406 37.433594 -72.207031 35.78125 -73.859375 C 34.683594 -74.867188 33.671875 -75.785156 33.488281 -75.785156 C 33.398438 -75.785156 32.664062 -76.152344 32.019531 -76.703125 C 31.285156 -77.070312 30.09375 -77.714844 29.453125 -77.894531 C 27.707031 -78.445312 24.679688 -78.445312 23.671875 -77.894531 C 23.214844 -77.714844 22.296875 -77.253906 21.46875 -76.886719 C 19.449219 -75.96875 16.332031 -72.851562 14.128906 -69.457031 C 13.121094 -67.988281 12.203125 -66.519531 12.019531 -66.152344 C 11.835938 -65.878906 11.378906 -65.601562 11.101562 -65.601562 C 10.09375 -65.601562 9.632812 -65.050781 8.625 -62.847656 C 8.164062 -61.75 7.617188 -60.921875 7.523438 -60.921875 C 7.339844 -60.921875 6.972656 -60.1875 6.605469 -59.269531 C 6.148438 -58.351562 5.597656 -57.4375 5.320312 -57.160156 C 4.585938 -56.335938 2.019531 -51.378906 2.019531 -50.738281 C 2.019531 -50.371094 1.925781 -50.097656 1.835938 -50.003906 C 1.558594 -50.003906 -1.007812 -44.5 -1.007812 -43.949219 C -1.007812 -43.765625 -1.101562 -43.488281 -1.191406 -43.398438 C -1.925781 -42.480469 -5.6875 -30.003906 -5.6875 -28.351562 C -5.6875 -27.800781 -4.769531 -26.242188 -4.21875 -25.78125 C -4.128906 -25.78125 -3.855469 -25.230469 -3.578125 -24.679688 C -3.394531 -24.039062 -2.9375 -23.488281 -2.660156 -23.394531 C -2.292969 -23.304688 -2.109375 -23.121094 -2.109375 -23.03125 C -2.109375 -22.753906 0.0898438 -21.652344 0.550781 -21.652344 C 0.640625 -21.652344 1.101562 -21.378906 1.375 -21.101562 C 2.109375 -20.550781 2.84375 -20.550781 4.953125 -21.011719 C 5.6875 -21.101562 8.808594 -24.039062 8.625 -24.40625 C 8.441406 -24.496094 8.625 -24.957031 8.898438 -25.324219 C 9.265625 -25.691406 10.183594 -26.882812 10.917969 -27.890625 C 12.84375 -30.460938 14.128906 -31.929688 14.496094 -31.929688 C 14.589844 -31.929688 14.773438 -31.929688 14.773438 -32.113281 C 14.773438 -32.203125 15.324219 -32.9375 16.054688 -33.671875 C 18.902344 -36.699219 19.726562 -37.710938 19.726562 -37.800781 C 19.726562 -38.078125 22.113281 -41.011719 23.671875 -42.757812 C 24.40625 -43.488281 24.957031 -44.222656 24.957031 -44.40625 C 24.957031 -44.589844 25.507812 -45.324219 26.058594 -45.96875 C 26.699219 -46.699219 27.160156 -47.34375 27.160156 -47.527344 C 27.160156 -47.710938 27.433594 -47.984375 27.707031 -48.167969 C 27.984375 -48.351562 28.351562 -48.8125 28.535156 -49.269531 C 28.71875 -49.730469 28.992188 -50.097656 29.175781 -50.1875 C 29.453125 -50.28125 30.003906 -51.011719 30.460938 -51.929688 C 30.921875 -52.757812 31.746094 -53.949219 32.296875 -54.410156 L 33.214844 -55.417969 L 33.214844 -46.335938 C 33.214844 -40.921875 33.304688 -36.976562 33.488281 -36.609375 C 33.671875 -36.148438 33.949219 -35.324219 34.132812 -34.683594 C 34.316406 -34.039062 34.867188 -33.121094 35.414062 -32.664062 C 35.964844 -32.113281 36.976562 -31.101562 37.710938 -30.277344 C 38.445312 -29.453125 39.542969 -28.441406 40.1875 -28.074219 C 42.296875 -26.882812 44.5 -25.78125 44.957031 -25.78125 C 45.601562 -25.78125 48.8125 -26.976562 49.546875 -27.433594 C 50.554688 -28.074219 51.929688 -29.542969 52.113281 -30.1875 C 52.207031 -30.460938 52.574219 -30.828125 53.03125 -31.101562 C 53.949219 -31.46875 57.621094 -34.867188 58.078125 -35.691406 C 58.628906 -36.699219 58.171875 -36.699219 57.070312 -35.78125 C 54.867188 -33.855469 53.949219 -33.121094 53.125 -32.9375 C 52.757812 -32.753906 52.390625 -32.847656 52.296875 -33.03125 C 52.207031 -33.488281 51.746094 -33.304688 51.746094 -32.753906 C 51.746094 -32.386719 51.746094 -32.386719 51.472656 -32.753906 C 51.195312 -33.03125 50.921875 -33.03125 49.453125 -32.203125 C 48.445312 -31.746094 47.617188 -31.46875 47.617188 -31.652344 C 47.617188 -31.652344 47.984375 -31.929688 48.445312 -32.203125 C 49.730469 -32.664062 52.847656 -35.046875 53.398438 -35.78125 C 53.675781 -36.332031 53.675781 -36.332031 53.125 -36.148438 C 52.847656 -35.875 52.480469 -35.597656 52.207031 -35.230469 C 51.929688 -34.957031 51.5625 -34.683594 51.472656 -34.683594 C 51.289062 -34.683594 50.644531 -34.316406 50.003906 -33.855469 C 49.363281 -33.398438 48.8125 -33.03125 48.71875 -33.121094 C 48.71875 -33.214844 49.820312 -34.40625 51.472656 -35.964844 C 52.941406 -37.433594 55.417969 -39.820312 56.792969 -41.195312 C 58.261719 -42.574219 59.546875 -43.765625 59.730469 -43.765625 C 59.914062 -43.765625 60.097656 -43.949219 60.1875 -44.222656 C 60.371094 -44.773438 61.289062 -45.691406 62.023438 -46.152344 C 61.75 -46.335938 61.566406 -46.609375 61.289062 -46.792969 Z M 5.136719 -53.214844 C 8.347656 -58.996094 9.632812 -61.015625 11.5625 -62.941406 C 12.570312 -63.949219 13.394531 -64.683594 13.304688 -64.5 C 13.027344 -64.132812 12.476562 -63.125 9.175781 -58.078125 C 8.625 -57.253906 8.074219 -56.242188 7.980469 -55.875 C 7.890625 -55.417969 7.707031 -55.050781 7.523438 -55.050781 C 7.433594 -55.050781 7.25 -54.867188 7.25 -54.683594 C 7.25 -54.316406 7.15625 -54.226562 6.882812 -54.410156 C 6.515625 -54.5 6.421875 -54.410156 6.605469 -54.042969 C 6.789062 -53.398438 5.136719 -50.464844 4.769531 -50.921875 C 4.679688 -51.105469 4.496094 -51.195312 4.496094 -51.105469 C 4.496094 -50.921875 4.3125 -50.464844 3.945312 -50.097656 C 2.9375 -48.8125 3.488281 -50.1875 5.136719 -53.214844 Z M 4.21875 -48.996094 C 4.21875 -48.902344 4.128906 -48.71875 3.945312 -48.71875 C 3.578125 -48.71875 3.578125 -48.902344 3.945312 -49.179688 C 4.128906 -49.179688 4.21875 -49.179688 4.21875 -48.996094 Z M -2.753906 -32.480469 L -3.210938 -31.746094 L -3.027344 -32.570312 C -2.9375 -33.03125 -2.753906 -33.582031 -2.570312 -33.855469 C -2.476562 -34.132812 -2.386719 -34.132812 -2.386719 -33.671875 C -2.386719 -33.398438 -2.570312 -32.753906 -2.753906 -32.480469 Z M -1.375 -28.167969 C -1.652344 -27.707031 -1.835938 -27.617188 -1.835938 -28.074219 C -1.835938 -28.167969 -1.652344 -28.351562 -1.558594 -28.441406 C -1.375 -28.535156 -1.375 -28.441406 -1.375 -28.167969 Z M -0.550781 -38.445312 C -0.457031 -39.175781 -0.457031 -39.085938 -0.824219 -38.351562 C -1.285156 -37.25 -1.375 -36.425781 -1.007812 -36.699219 C -0.824219 -36.792969 -0.917969 -36.425781 -1.101562 -35.875 C -1.285156 -35.230469 -1.375 -35.046875 -1.46875 -35.414062 C -1.558594 -35.78125 -1.652344 -35.691406 -1.925781 -35.046875 C -2.660156 -33.398438 -2.292969 -34.957031 -1.191406 -38.351562 C 0.824219 -44.40625 3.027344 -49.546875 3.304688 -49.179688 C 3.488281 -49.085938 3.304688 -48.628906 3.027344 -48.078125 C 2.476562 -46.792969 1.46875 -44.589844 1.46875 -44.222656 C 1.46875 -44.132812 1.652344 -44.132812 1.742188 -44.222656 C 2.203125 -44.5 2.109375 -43.949219 1.46875 -42.480469 C 1.101562 -41.839844 0.734375 -41.195312 0.550781 -41.105469 C 0.273438 -41.011719 0.0898438 -40.828125 0.0898438 -40.644531 C 0.0898438 -40.554688 0.273438 -40.554688 0.367188 -40.554688 C 0.550781 -40.644531 0.550781 -40.460938 0.367188 -40.003906 C -0.183594 -37.894531 -0.824219 -36.882812 -0.550781 -38.445312 Z M 2.84375 -46.242188 C 2.84375 -46.058594 2.660156 -45.507812 2.476562 -45.140625 L 2.019531 -44.5 L 2.203125 -45.140625 C 2.292969 -45.507812 2.476562 -46.058594 2.660156 -46.242188 C 2.84375 -46.609375 2.84375 -46.609375 2.84375 -46.242188 Z M 2.84375 -40.828125 C 2.753906 -40.1875 2.476562 -39.175781 2.203125 -38.902344 C 2.019531 -38.445312 1.46875 -36.976562 1.007812 -35.507812 C -0.0898438 -32.203125 -0.457031 -31.652344 -0.367188 -33.03125 C -0.273438 -33.582031 -0.273438 -34.132812 -0.0898438 -34.132812 C 0.0898438 -34.132812 0.457031 -35.140625 0.550781 -36.332031 C 0.640625 -36.882812 0.824219 -37.34375 0.917969 -37.34375 C 1.101562 -37.433594 1.191406 -37.710938 1.191406 -38.078125 C 1.191406 -38.8125 2.019531 -41.011719 2.386719 -41.011719 C 2.476562 -41.011719 2.476562 -41.105469 2.476562 -41.378906 C 2.292969 -41.746094 3.855469 -45.234375 4.128906 -44.957031 C 4.128906 -44.867188 4.128906 -45.050781 4.128906 -45.324219 C 4.035156 -45.601562 4.3125 -46.242188 4.769531 -46.976562 C 5.320312 -47.527344 5.597656 -48.078125 5.6875 -48.167969 C 5.78125 -48.996094 5.964844 -49.730469 6.332031 -50.1875 C 6.605469 -50.554688 6.699219 -50.644531 6.699219 -50.554688 C 6.699219 -50.371094 6.882812 -50.464844 6.972656 -50.644531 C 7.15625 -50.828125 7.25 -51.378906 7.15625 -51.65625 C 6.972656 -51.929688 7.066406 -52.113281 7.25 -52.023438 C 7.433594 -51.746094 8.164062 -53.214844 8.257812 -53.949219 C 8.257812 -54.226562 8.441406 -54.410156 8.625 -54.316406 C 8.808594 -54.226562 8.898438 -54.5 8.808594 -54.773438 C 8.625 -55.050781 8.714844 -55.050781 8.898438 -54.957031 C 9.082031 -54.867188 9.175781 -54.957031 9.175781 -55.050781 C 9.175781 -55.324219 9.449219 -55.691406 9.726562 -56.152344 C 10.09375 -56.425781 10.277344 -56.976562 10.277344 -57.34375 C 10.277344 -57.621094 10.550781 -57.804688 10.734375 -57.804688 C 11.101562 -57.804688 11.5625 -58.628906 11.285156 -58.902344 C 11.195312 -59.085938 11.378906 -59.179688 11.652344 -59.179688 C 11.835938 -59.179688 11.925781 -59.363281 11.925781 -59.546875 C 11.835938 -59.730469 11.925781 -60.003906 12.203125 -60.003906 C 12.660156 -60.003906 12.570312 -59.820312 12.019531 -58.902344 C 10.183594 -55.96875 5.597656 -47.160156 4.953125 -45.324219 C 4.769531 -44.773438 4.21875 -43.949219 3.855469 -43.304688 C 3.488281 -42.664062 3.027344 -41.5625 2.84375 -40.828125 Z M 7.339844 -32.113281 C 7.15625 -31.835938 6.882812 -31.652344 6.699219 -31.652344 C 6.332031 -31.652344 6.421875 -31.929688 7.066406 -32.203125 C 7.617188 -32.480469 7.707031 -32.480469 7.339844 -32.113281 Z M 8.53125 -33.582031 C 8.257812 -33.949219 8.625 -34.222656 8.992188 -33.855469 C 9.175781 -33.671875 9.175781 -33.582031 8.992188 -33.398438 C 8.898438 -33.304688 8.625 -33.398438 8.53125 -33.582031 Z M 32.203125 -57.070312 C 31.746094 -56.703125 31.011719 -55.601562 30.460938 -54.773438 C 30.003906 -53.859375 29.359375 -52.847656 29.085938 -52.664062 C 28.902344 -52.390625 28.351562 -51.746094 28.074219 -51.195312 C 27.523438 -50.28125 26.515625 -49.085938 25.597656 -48.078125 C 24.773438 -47.160156 21.835938 -43.304688 21.101562 -41.929688 C 20.367188 -40.738281 15.964844 -35.875 12.386719 -32.386719 C 8.074219 -28.074219 7.339844 -28.074219 11.5625 -32.480469 C 13.121094 -34.039062 15.324219 -36.425781 16.515625 -37.800781 C 18.535156 -40.1875 24.589844 -47.984375 25.507812 -49.453125 C 26.699219 -51.105469 32.570312 -58.902344 32.753906 -58.902344 C 33.304688 -58.902344 32.9375 -57.804688 32.203125 -57.070312 Z M 33.214844 -65.050781 C 32.9375 -64.5 32.570312 -64.226562 32.386719 -64.226562 C 32.296875 -64.226562 32.113281 -63.859375 32.113281 -63.492188 C 32.113281 -63.125 31.746094 -62.390625 31.195312 -61.839844 C 30.644531 -61.289062 30.1875 -60.648438 30.1875 -60.464844 C 30.1875 -60.371094 30.003906 -59.820312 29.726562 -59.546875 C 29.453125 -59.179688 28.902344 -58.628906 28.625 -58.261719 C 28.351562 -57.894531 28.074219 -57.621094 27.890625 -57.804688 C 27.800781 -57.804688 27.707031 -57.804688 27.800781 -57.527344 C 27.984375 -56.976562 27.25 -55.601562 26.882812 -55.785156 C 26.699219 -55.875 26.425781 -55.417969 26.148438 -54.773438 C 25.875 -54.226562 25.507812 -53.675781 25.230469 -53.582031 C 24.957031 -53.492188 24.679688 -53.125 24.679688 -52.941406 C 24.679688 -52.664062 24.496094 -52.296875 24.128906 -52.113281 C 23.855469 -51.929688 23.578125 -51.65625 23.578125 -51.472656 C 23.578125 -51.289062 23.304688 -50.921875 22.847656 -50.554688 C 22.570312 -50.28125 22.296875 -50.003906 22.386719 -49.730469 C 22.480469 -49.636719 22.296875 -49.269531 22.019531 -48.996094 C 21.652344 -48.71875 21.378906 -48.351562 21.378906 -48.078125 C 21.378906 -47.894531 21.195312 -47.617188 20.917969 -47.527344 C 20.734375 -47.433594 20.550781 -47.160156 20.550781 -46.976562 C 20.550781 -46.699219 20.367188 -46.519531 20.09375 -46.519531 C 19.910156 -46.519531 19.726562 -46.242188 19.726562 -45.875 C 19.726562 -45.050781 19.726562 -45.050781 20.828125 -46.152344 C 21.46875 -46.792969 21.929688 -47.34375 21.929688 -47.527344 C 21.929688 -47.527344 22.296875 -48.078125 22.664062 -48.71875 C 23.03125 -49.269531 23.304688 -49.914062 23.121094 -50.097656 C 23.121094 -50.28125 23.214844 -50.371094 23.578125 -50.371094 C 23.855469 -50.371094 24.3125 -50.738281 24.496094 -51.105469 C 25.230469 -52.207031 28.902344 -57.070312 29.269531 -57.527344 C 29.453125 -57.710938 29.636719 -57.988281 29.636719 -58.078125 C 29.636719 -58.351562 30.1875 -58.996094 30.921875 -59.730469 C 31.5625 -60.371094 32.113281 -61.199219 32.113281 -61.382812 C 32.113281 -61.566406 32.296875 -61.75 32.386719 -61.75 C 32.753906 -61.75 33.03125 -60.921875 32.847656 -60.554688 C 32.570312 -60.097656 29.175781 -55.601562 28.167969 -54.410156 C 27.800781 -53.949219 26.976562 -52.847656 26.425781 -51.929688 C 23.945312 -48.445312 23.304688 -47.527344 22.480469 -46.699219 C 22.019531 -46.242188 21.652344 -45.785156 21.652344 -45.691406 C 21.652344 -45.601562 21.011719 -44.773438 20.277344 -43.671875 C 19.449219 -42.757812 18.71875 -41.65625 18.441406 -41.378906 C 17.339844 -40.003906 12.476562 -34.683594 10.734375 -32.9375 C 9.359375 -31.652344 8.808594 -31.195312 8.714844 -31.5625 C 8.625 -31.746094 8.808594 -32.113281 9.082031 -32.203125 C 9.265625 -32.386719 9.449219 -32.664062 9.449219 -32.847656 C 9.449219 -33.03125 9.816406 -33.488281 10.277344 -33.765625 C 10.644531 -34.039062 11.101562 -34.40625 11.285156 -34.683594 C 11.378906 -34.867188 11.742188 -35.324219 12.109375 -35.597656 C 13.304688 -36.792969 15.046875 -39.085938 15.046875 -39.359375 C 15.046875 -39.453125 15.414062 -39.910156 15.871094 -40.277344 C 16.332031 -40.554688 16.699219 -41.011719 16.699219 -41.105469 C 16.699219 -41.378906 16.882812 -41.5625 17.066406 -41.65625 C 17.339844 -41.746094 17.523438 -42.023438 17.523438 -42.296875 C 17.523438 -42.664062 17.800781 -42.9375 18.074219 -43.03125 C 18.625 -43.121094 18.902344 -44.039062 18.257812 -44.039062 C 17.800781 -44.039062 16.148438 -42.113281 16.332031 -41.746094 C 16.421875 -41.5625 16.148438 -41.289062 15.78125 -41.105469 C 15.414062 -41.011719 15.230469 -40.644531 15.230469 -40.371094 C 15.230469 -40.003906 15.140625 -39.910156 14.863281 -40.003906 C 14.679688 -40.09375 14.496094 -40.003906 14.496094 -40.003906 C 14.496094 -39.820312 14.128906 -39.359375 13.671875 -38.902344 C 13.027344 -38.167969 12.570312 -38.078125 12.109375 -38.078125 C 11.652344 -38.261719 11.378906 -38.167969 11.285156 -37.710938 C 11.195312 -37.433594 10.550781 -36.515625 9.726562 -35.875 C 8.898438 -35.046875 7.617188 -33.855469 6.699219 -33.03125 C 5.871094 -32.203125 4.953125 -31.285156 4.679688 -31.101562 C 4.21875 -30.644531 4.128906 -30.738281 4.402344 -31.378906 C 4.496094 -31.652344 4.769531 -32.480469 5.046875 -32.9375 C 5.230469 -33.488281 5.320312 -34.132812 5.320312 -34.316406 C 5.320312 -34.589844 5.78125 -35.597656 6.148438 -36.425781 C 6.699219 -37.25 6.972656 -38.261719 6.972656 -38.445312 C 6.972656 -38.902344 7.890625 -40.828125 11.46875 -48.167969 C 14.128906 -53.398438 17.523438 -59.085938 20 -62.296875 C 20.828125 -63.308594 22.296875 -65.050781 23.121094 -66.242188 C 24.039062 -67.4375 25.597656 -68.996094 26.425781 -69.824219 C 28.351562 -71.472656 30.738281 -73.125 30.921875 -72.941406 C 31.285156 -72.574219 33.214844 -68.261719 33.488281 -67.160156 C 33.765625 -65.878906 33.765625 -65.695312 33.214844 -65.050781 Z M 10.277344 -35.875 C 10.550781 -36.148438 10.734375 -36.332031 10.828125 -36.332031 C 10.828125 -36.332031 10.828125 -36.148438 10.734375 -35.875 C 10.644531 -35.691406 10.460938 -35.507812 10.277344 -35.507812 C 10.09375 -35.507812 10.09375 -35.691406 10.277344 -35.875 Z M 11.652344 -37.25 C 11.652344 -37.527344 11.835938 -37.617188 11.925781 -37.527344 C 12.203125 -37.527344 12.203125 -37.25 12.203125 -37.160156 C 12.203125 -36.976562 12.203125 -36.882812 11.925781 -36.882812 C 11.835938 -36.882812 11.652344 -37.066406 11.652344 -37.25 Z M 35.875 -35.597656 C 35.507812 -35.230469 35.140625 -44.5 35.414062 -47.25 C 35.597656 -48.351562 35.691406 -46.519531 35.875 -42.207031 C 35.875 -38.628906 35.964844 -35.597656 35.875 -35.597656 Z M 63.03125 -45.417969 C 61.289062 -43.582031 59.636719 -41.929688 59.269531 -41.5625 C 57.988281 -40.003906 60.097656 -41.839844 63.582031 -45.050781 C 63.398438 -45.140625 63.214844 -45.324219 63.03125 -45.417969 Z M 63.03125 -45.417969 "/></g></g></g><g fill="#ffffff" fill-opacity="1"><g transform="translate(250.017062, 280.649178)"><g><path d="M 8.898438 -18.351562 C 11.101562 -17.25 13.945312 -17.523438 17.433594 -19.175781 C 20.828125 -20.734375 23.945312 -23.855469 26.425781 -28.074219 C 26.882812 -28.808594 27.523438 -29.910156 27.890625 -30.460938 C 29.175781 -32.570312 30.371094 -34.683594 30.554688 -35.507812 C 30.828125 -36.332031 32.753906 -40.460938 33.671875 -42.390625 C 33.949219 -43.03125 34.5 -44.039062 34.773438 -44.867188 C 35.140625 -45.601562 35.597656 -46.519531 35.78125 -46.976562 C 35.964844 -47.433594 36.425781 -48.261719 36.699219 -48.996094 C 36.976562 -49.546875 37.25 -50.1875 37.25 -50.371094 C 37.25 -50.464844 37.617188 -51.378906 38.078125 -52.296875 C 39.269531 -55.050781 41.746094 -62.847656 41.839844 -64.226562 C 41.929688 -64.960938 42.023438 -65.695312 42.113281 -65.96875 C 42.207031 -66.242188 42.664062 -67.621094 43.121094 -69.089844 C 43.488281 -70.648438 44.039062 -72.484375 44.316406 -73.21875 C 44.5 -74.042969 44.773438 -74.867188 44.773438 -75.234375 C 44.773438 -75.511719 45.050781 -76.703125 45.324219 -77.804688 C 46.152344 -80.925781 46.152344 -84.960938 45.140625 -86.980469 C 44.867188 -87.621094 42.574219 -88.816406 40.460938 -89.457031 C 37.710938 -90.28125 36.148438 -90.191406 34.316406 -89.273438 C 33.488281 -88.816406 32.847656 -88.355469 32.9375 -88.265625 C 33.03125 -88.265625 33.398438 -88.265625 33.671875 -88.449219 C 34.132812 -88.632812 34.40625 -88.722656 34.589844 -88.449219 C 34.773438 -88.355469 35.140625 -88.265625 35.414062 -88.265625 C 35.691406 -88.265625 36.148438 -88.082031 36.515625 -87.898438 C 36.882812 -87.804688 37.34375 -87.621094 37.527344 -87.4375 C 38.535156 -86.980469 38.992188 -82.941406 38.351562 -79.730469 C 37.710938 -76.152344 36.882812 -72.757812 36.425781 -71.199219 C 36.148438 -70.371094 35.78125 -69.363281 35.78125 -69.089844 C 35.324219 -67.253906 33.949219 -62.847656 33.671875 -62.757812 C 33.582031 -62.664062 33.398438 -62.117188 33.304688 -61.472656 C 33.121094 -60.921875 32.9375 -60.1875 32.753906 -59.820312 C 32.570312 -59.546875 32.296875 -59.085938 32.296875 -58.8125 C 32.296875 -58.535156 32.203125 -58.261719 32.113281 -58.171875 C 32.019531 -58.078125 31.746094 -57.527344 31.46875 -56.792969 C 31.101562 -55.785156 30.644531 -54.589844 28.625 -50.554688 C 28.351562 -50.003906 28.074219 -49.363281 28.074219 -49.179688 C 28.167969 -48.996094 28.074219 -48.902344 27.890625 -48.902344 C 27.800781 -48.902344 27.617188 -48.71875 27.617188 -48.535156 C 27.617188 -48.261719 26.976562 -46.699219 25.507812 -43.765625 C 25.230469 -43.214844 24.863281 -42.757812 24.679688 -42.757812 C 24.496094 -42.757812 24.40625 -42.664062 24.496094 -42.480469 C 24.679688 -41.929688 23.671875 -40.09375 23.304688 -40.1875 C 23.121094 -40.277344 22.9375 -40.1875 22.9375 -40.003906 C 22.9375 -39.910156 23.121094 -39.726562 23.214844 -39.726562 C 23.671875 -39.726562 23.121094 -38.902344 22.480469 -38.71875 C 21.929688 -38.535156 21.835938 -38.351562 21.929688 -37.984375 C 22.113281 -37.160156 21.378906 -35.78125 20.644531 -35.597656 C 20.183594 -35.507812 20.09375 -35.414062 20.367188 -35.230469 C 20.828125 -34.957031 20.460938 -34.222656 18.992188 -32.480469 C 18.535156 -31.929688 17.707031 -30.738281 17.15625 -30.003906 C 15.964844 -28.167969 15.507812 -27.707031 15.230469 -28.074219 C 15.046875 -28.257812 14.773438 -28.074219 14.40625 -27.523438 C 13.671875 -26.332031 10.09375 -23.761719 9.359375 -23.761719 C 8.808594 -23.761719 8.074219 -34.316406 8.625 -35.597656 C 8.714844 -35.964844 8.714844 -36.425781 8.625 -36.792969 C 8.441406 -37.160156 8.441406 -37.527344 8.625 -37.617188 C 8.625 -37.617188 8.898438 -38.71875 8.898438 -39.820312 C 9.082031 -40.921875 9.175781 -42.207031 9.265625 -42.664062 C 9.359375 -43.121094 9.449219 -44.222656 9.542969 -45.234375 C 9.632812 -46.152344 10 -48.167969 10.367188 -49.546875 C 10.828125 -51.011719 11.011719 -52.296875 10.917969 -52.480469 C 10.828125 -52.574219 10.917969 -52.757812 11.101562 -52.847656 C 11.195312 -52.847656 11.285156 -53.308594 11.195312 -53.582031 C 11.101562 -53.859375 11.285156 -55.140625 11.5625 -56.242188 C 11.925781 -57.4375 12.203125 -58.996094 12.292969 -59.636719 C 12.386719 -60.371094 12.753906 -61.75 13.027344 -62.757812 C 13.304688 -63.675781 13.578125 -65.234375 13.855469 -66.152344 C 13.945312 -67.070312 14.222656 -68.355469 14.40625 -69.089844 C 14.679688 -70.371094 15.871094 -73.21875 16.972656 -75.328125 C 18.074219 -77.164062 17.890625 -77.53125 16.332031 -78.996094 C 15.507812 -79.640625 14.773438 -80.097656 14.496094 -80.097656 C 14.3125 -80.097656 13.578125 -80.375 13.027344 -80.648438 C 11.835938 -81.292969 9.726562 -81.199219 8.347656 -80.375 C 7.796875 -80.097656 7.15625 -79.824219 6.972656 -79.824219 C 6.699219 -79.824219 6.421875 -79.457031 6.238281 -78.8125 C 6.054688 -78.171875 5.871094 -77.53125 5.78125 -77.347656 C 5.78125 -77.164062 5.78125 -76.980469 6.054688 -76.980469 C 6.238281 -77.070312 6.421875 -76.980469 6.421875 -76.796875 C 6.421875 -76.703125 6.148438 -76.519531 5.78125 -76.519531 C 5.503906 -76.519531 5.230469 -76.335938 5.230469 -76.0625 C 5.230469 -75.695312 5.414062 -75.601562 5.6875 -75.695312 C 5.964844 -75.785156 6.148438 -75.695312 6.148438 -75.234375 C 6.148438 -74.867188 5.964844 -74.5 5.78125 -74.410156 C 5.6875 -74.316406 5.503906 -74.042969 5.597656 -73.949219 C 5.597656 -73.769531 5.503906 -73.125 5.230469 -72.484375 C 5.046875 -71.839844 4.953125 -71.199219 4.863281 -70.921875 C 4.769531 -70.648438 4.679688 -70.1875 4.496094 -69.914062 C 4.402344 -69.546875 4.3125 -69.089844 4.21875 -68.90625 C 3.945312 -67.710938 3.578125 -65.417969 3.488281 -65.050781 C 3.488281 -64.777344 3.304688 -64.226562 3.304688 -63.765625 C 3.121094 -63.308594 3.027344 -62.664062 2.9375 -62.207031 C 2.660156 -60.738281 1.925781 -57.621094 1.652344 -56.152344 C 1.46875 -55.324219 1.375 -54.316406 1.285156 -54.132812 C 1.285156 -53.859375 1.101562 -52.941406 0.917969 -52.207031 C 0.824219 -51.472656 0.550781 -49.914062 0.273438 -48.71875 C 0.183594 -47.617188 -0.0898438 -45.96875 -0.273438 -45.050781 C -0.367188 -44.222656 -0.550781 -42.757812 -0.640625 -41.929688 C -0.734375 -41.105469 -0.824219 -39.726562 -1.007812 -38.992188 C -1.101562 -38.261719 -1.101562 -35.140625 -1.191406 -32.113281 C -1.375 -26.515625 -1.101562 -24.496094 -0.0898438 -23.488281 C 0.0898438 -23.304688 0.273438 -22.847656 0.457031 -22.570312 C 0.640625 -21.929688 2.203125 -20.734375 3.210938 -20.550781 C 3.671875 -20.460938 4.402344 -20.183594 4.863281 -19.816406 C 5.320312 -19.542969 6.148438 -19.175781 6.699219 -19.085938 C 7.25 -18.992188 8.164062 -18.625 8.898438 -18.351562 Z M 7.25 -23.394531 C 7.339844 -23.121094 7.25 -22.847656 6.972656 -22.847656 C 6.789062 -22.753906 6.699219 -22.9375 6.699219 -23.488281 C 6.699219 -23.855469 6.605469 -24.773438 6.421875 -25.507812 C 6.054688 -27.160156 6.054688 -30.1875 6.238281 -35.046875 C 6.421875 -36.882812 6.421875 -38.8125 6.421875 -39.359375 C 6.421875 -39.910156 6.605469 -40.921875 6.789062 -41.746094 C 6.972656 -42.390625 7.25 -43.121094 7.15625 -43.214844 C 7.066406 -43.582031 7.523438 -45.601562 7.796875 -45.691406 C 8.074219 -45.875 7.796875 -43.398438 7.523438 -42.207031 C 7.25 -41.472656 6.972656 -38.167969 6.789062 -33.582031 C 6.699219 -32.296875 7.066406 -25.324219 7.25 -23.394531 Z M 2.753906 -28.351562 C 3.027344 -28.257812 3.027344 -27.890625 3.027344 -27.523438 C 2.9375 -26.882812 2.476562 -27.160156 2.476562 -27.984375 C 2.476562 -28.535156 2.570312 -28.625 2.753906 -28.351562 Z M 2.660156 -31.46875 C 2.753906 -30.738281 2.753906 -30.003906 2.753906 -30.003906 C 2.660156 -29.910156 2.476562 -30.460938 2.386719 -31.285156 C 2.292969 -32.113281 2.203125 -32.753906 2.292969 -32.847656 C 2.386719 -32.9375 2.570312 -32.296875 2.660156 -31.46875 Z M 25.140625 -34.316406 C 24.863281 -33.765625 24.3125 -32.9375 23.945312 -32.480469 C 23.394531 -32.113281 23.304688 -31.929688 23.394531 -32.296875 C 23.578125 -32.480469 23.761719 -33.121094 23.855469 -33.671875 C 23.945312 -34.132812 24.773438 -35.78125 25.597656 -37.34375 C 27.25 -40.554688 32.386719 -51.011719 32.753906 -51.929688 C 32.847656 -52.296875 33.304688 -53.214844 33.671875 -53.949219 C 35.324219 -57.4375 38.261719 -65.511719 39.636719 -70.554688 C 41.105469 -76.0625 41.746094 -79.640625 42.113281 -84.59375 C 42.113281 -85.238281 42.296875 -85.785156 42.390625 -85.785156 C 42.574219 -85.785156 42.847656 -85.144531 43.03125 -84.410156 C 43.488281 -82.667969 43.304688 -80.191406 42.296875 -75.785156 C 42.113281 -75.144531 41.929688 -74.226562 41.839844 -73.675781 C 41.472656 -71.382812 41.378906 -70.554688 41.195312 -70.371094 C 40.828125 -69.914062 40.003906 -66.242188 40.09375 -65.785156 C 40.277344 -65.601562 40.09375 -65.417969 39.910156 -65.234375 C 39.726562 -65.234375 39.453125 -64.960938 39.453125 -64.59375 C 39.453125 -64.410156 39.359375 -64.042969 39.175781 -63.949219 C 39.175781 -63.949219 38.902344 -63.398438 38.8125 -62.757812 C 38.71875 -62.117188 38.445312 -61.472656 38.261719 -61.289062 C 38.078125 -61.105469 37.800781 -60.738281 37.800781 -60.371094 C 37.800781 -60.097656 37.710938 -59.636719 37.617188 -59.363281 C 36.699219 -57.621094 35.875 -55.96875 35.875 -55.507812 C 35.875 -55.324219 35.597656 -54.5 35.324219 -53.859375 C 33.765625 -50.921875 33.398438 -50.1875 33.398438 -49.914062 C 33.398438 -49.730469 33.214844 -49.269531 32.9375 -48.996094 C 32.664062 -48.535156 32.296875 -47.710938 32.019531 -47.066406 C 31.746094 -46.058594 29.820312 -42.207031 29.269531 -41.289062 C 29.175781 -41.105469 28.351562 -39.726562 27.617188 -38.261719 C 26.882812 -36.882812 26.148438 -35.597656 25.964844 -35.597656 C 25.875 -35.507812 25.507812 -34.957031 25.140625 -34.316406 Z M 1.46875 -35.140625 C 1.558594 -35.140625 1.46875 -34.589844 1.375 -34.132812 L 1.285156 -33.121094 L 0.917969 -33.855469 C 0.640625 -34.40625 0.640625 -34.589844 1.007812 -34.957031 C 1.191406 -35.140625 1.375 -35.230469 1.46875 -35.140625 Z M 2.753906 -34.316406 C 2.660156 -34.132812 2.476562 -33.765625 2.476562 -33.582031 C 1.925781 -32.019531 2.753906 -42.390625 3.304688 -46.058594 C 3.578125 -47.066406 3.671875 -48.351562 3.761719 -48.71875 C 3.855469 -50.1875 4.21875 -51.65625 4.402344 -51.839844 C 4.585938 -51.839844 4.585938 -52.296875 4.496094 -52.664062 C 4.402344 -53.125 4.402344 -53.308594 4.679688 -52.941406 C 4.953125 -52.574219 4.953125 -51.839844 4.402344 -48.351562 C 4.21875 -47.34375 4.128906 -46.152344 4.128906 -45.875 C 4.128906 -45.507812 3.945312 -45.050781 3.855469 -44.867188 C 3.671875 -44.773438 3.671875 -44.589844 3.855469 -44.40625 C 4.035156 -44.40625 4.128906 -44.222656 4.035156 -44.039062 C 3.855469 -43.855469 3.121094 -37.527344 3.027344 -35.78125 C 3.027344 -35.140625 2.84375 -34.40625 2.753906 -34.316406 Z M 22.113281 -34.039062 C 22.113281 -33.582031 21.929688 -33.582031 21.652344 -33.949219 C 21.652344 -34.039062 21.652344 -34.222656 21.835938 -34.316406 C 21.929688 -34.316406 22.113281 -34.316406 22.113281 -34.039062 Z M 23.214844 -35.691406 C 23.214844 -35.597656 23.121094 -35.414062 22.9375 -35.414062 C 22.847656 -35.414062 22.664062 -35.597656 22.664062 -35.691406 C 22.664062 -35.78125 22.847656 -35.964844 22.9375 -35.964844 C 23.121094 -35.964844 23.214844 -35.78125 23.214844 -35.691406 Z M 1.558594 -36.882812 C 1.652344 -36.792969 1.652344 -36.609375 1.652344 -36.425781 C 1.46875 -36.242188 1.46875 -36.242188 1.375 -36.609375 C 1.375 -36.792969 1.46875 -36.976562 1.558594 -36.882812 Z M 23.761719 -37.160156 C 23.761719 -36.976562 23.578125 -36.609375 23.394531 -36.425781 C 22.847656 -36.058594 22.847656 -36.425781 23.394531 -37.066406 C 23.671875 -37.527344 23.761719 -37.527344 23.761719 -37.160156 Z M 25.597656 -39.542969 C 25.046875 -38.535156 24.40625 -37.710938 24.222656 -37.710938 C 23.671875 -37.710938 23.671875 -38.351562 24.039062 -38.628906 C 24.222656 -38.71875 24.3125 -39.085938 24.496094 -39.359375 C 24.496094 -39.726562 25.046875 -40.921875 25.597656 -41.839844 C 26.058594 -42.847656 26.792969 -44.40625 27.25 -45.324219 C 27.617188 -46.242188 28.625 -48.351562 29.453125 -50.003906 C 30.277344 -51.65625 31.285156 -54.132812 31.746094 -55.324219 C 32.296875 -56.609375 32.753906 -57.804688 32.847656 -58.078125 C 33.03125 -58.351562 33.121094 -58.8125 33.121094 -59.085938 C 33.121094 -59.453125 33.398438 -59.820312 33.582031 -60.097656 C 33.765625 -60.1875 33.949219 -60.648438 34.132812 -61.015625 C 34.222656 -61.382812 34.683594 -62.847656 35.046875 -64.226562 C 35.597656 -65.601562 36.148438 -67.621094 36.425781 -68.539062 C 36.792969 -69.546875 37.160156 -70.738281 37.25 -71.199219 C 37.527344 -71.566406 37.800781 -72.851562 37.984375 -73.949219 C 38.167969 -75.050781 38.535156 -76.703125 38.8125 -77.714844 C 38.992188 -78.628906 39.269531 -80.648438 39.453125 -82.117188 C 39.542969 -84.136719 39.726562 -84.871094 40.09375 -85.144531 C 40.371094 -85.421875 40.371094 -85.421875 40.003906 -85.785156 C 39.453125 -86.152344 39.359375 -86.429688 39.820312 -86.429688 C 40.371094 -86.429688 40.921875 -84.871094 40.921875 -82.667969 C 40.921875 -80.097656 40.738281 -78.445312 40.460938 -78.078125 C 40.371094 -77.988281 40.277344 -77.164062 40.09375 -76.335938 C 40.09375 -75.511719 39.820312 -74.59375 39.636719 -74.132812 C 39.453125 -73.675781 39.175781 -72.851562 39.085938 -72.207031 C 38.902344 -70.738281 37.800781 -67.34375 37.527344 -67.070312 C 37.433594 -66.886719 37.25 -66.519531 37.25 -66.242188 C 37.25 -65.878906 37.160156 -65.417969 36.976562 -65.234375 C 36.882812 -64.960938 36.609375 -64.042969 36.332031 -63.214844 C 36.058594 -62.390625 35.507812 -60.832031 35.046875 -59.820312 C 34.589844 -58.71875 34.222656 -57.804688 34.222656 -57.621094 C 34.222656 -57.4375 33.671875 -55.96875 32.847656 -54.5 C 32.113281 -52.847656 31.46875 -51.5625 31.46875 -51.378906 C 31.46875 -51.195312 30.828125 -49.820312 30.003906 -48.167969 C 29.085938 -46.519531 27.984375 -44.316406 27.523438 -43.304688 C 26.976562 -42.207031 26.148438 -40.554688 25.597656 -39.542969 Z M 1.925781 -40.277344 C 1.925781 -40.09375 1.835938 -40.003906 1.652344 -40.003906 C 1.558594 -40.003906 1.375 -40.09375 1.375 -40.277344 C 1.375 -40.371094 1.558594 -40.554688 1.652344 -40.554688 C 1.835938 -40.554688 1.925781 -40.371094 1.925781 -40.277344 Z M 2.203125 -41.65625 C 2.203125 -41.5625 2.109375 -41.472656 1.925781 -41.378906 C 1.835938 -41.378906 1.652344 -41.378906 1.652344 -41.5625 C 1.652344 -41.65625 1.835938 -41.746094 1.925781 -41.746094 C 2.109375 -41.746094 2.203125 -41.746094 2.203125 -41.65625 Z M 2.476562 -44.957031 C 2.476562 -43.582031 2.203125 -41.929688 1.925781 -42.207031 C 1.742188 -42.296875 1.742188 -42.757812 1.925781 -43.398438 C 2.019531 -44.132812 1.925781 -44.316406 1.742188 -44.222656 C 1.46875 -44.039062 1.375 -44.316406 1.375 -44.957031 C 1.375 -45.691406 1.46875 -45.875 1.835938 -45.601562 C 2.109375 -45.417969 2.203125 -45.417969 2.292969 -45.691406 C 2.386719 -45.875 2.476562 -45.507812 2.476562 -44.957031 Z M 1.835938 -47.066406 C 1.925781 -46.976562 1.925781 -46.699219 1.925781 -46.519531 C 1.742188 -46.335938 1.742188 -46.425781 1.652344 -46.699219 C 1.652344 -46.976562 1.742188 -47.066406 1.835938 -47.066406 Z M 3.027344 -47.800781 C 3.027344 -47.160156 2.660156 -46.242188 2.476562 -46.519531 C 2.203125 -46.699219 2.476562 -48.167969 2.753906 -48.167969 C 2.9375 -48.167969 3.027344 -47.984375 3.027344 -47.800781 Z M 2.476562 -50.1875 C 2.476562 -49.820312 2.386719 -49.269531 2.203125 -48.996094 L 2.019531 -48.535156 L 2.019531 -48.996094 C 2.019531 -49.269531 2.109375 -49.820312 2.203125 -50.1875 L 2.476562 -50.828125 Z M 3.210938 -48.902344 C 3.304688 -48.71875 3.304688 -48.628906 3.027344 -48.628906 C 2.9375 -48.628906 2.753906 -48.71875 2.753906 -48.902344 C 2.753906 -48.996094 2.84375 -49.179688 2.9375 -49.179688 C 3.027344 -49.179688 3.121094 -48.996094 3.210938 -48.902344 Z M 5.414062 -55.507812 C 5.230469 -54.5 4.769531 -53.308594 4.679688 -53.675781 C 4.679688 -54.5 5.414062 -57.988281 5.597656 -57.988281 C 5.78125 -57.988281 5.78125 -57.621094 5.6875 -57.070312 C 5.503906 -56.609375 5.414062 -55.785156 5.414062 -55.507812 Z M 6.238281 -59.546875 C 5.964844 -58.8125 5.503906 -58.261719 5.503906 -58.8125 C 5.503906 -59.085938 5.78125 -59.453125 5.964844 -59.636719 C 6.421875 -60.1875 6.421875 -60.1875 6.238281 -59.546875 Z M 6.421875 -61.289062 C 6.238281 -60.28125 6.148438 -60.003906 6.148438 -60.832031 C 6.148438 -61.199219 6.238281 -61.65625 6.421875 -61.839844 C 6.605469 -62.117188 6.605469 -61.933594 6.421875 -61.289062 Z M 6.789062 -77.804688 C 6.882812 -77.714844 6.789062 -77.53125 6.699219 -77.4375 C 6.515625 -77.347656 6.421875 -77.4375 6.421875 -77.714844 C 6.421875 -78.171875 6.515625 -78.171875 6.789062 -77.804688 Z M 6.789062 -77.804688 "/></g></g></g><g fill="#ffffff" fill-opacity="1"><g transform="translate(293.867479, 280.649178)"><g><path d="M 51.105469 -48.261719 C 51.289062 -49.085938 51.289062 -50.003906 51.195312 -50.921875 C 51.011719 -50.644531 50.828125 -50.371094 50.644531 -50.003906 C 50.097656 -49.179688 49.453125 -48.167969 49.085938 -47.617188 C 48.902344 -47.066406 47.710938 -45.140625 46.425781 -43.398438 C 45.234375 -41.5625 44.132812 -39.726562 43.949219 -39.453125 C 43.765625 -39.085938 43.304688 -38.628906 42.9375 -38.445312 C 42.480469 -38.351562 42.207031 -37.984375 42.207031 -37.894531 C 42.207031 -37.617188 41.929688 -37.160156 41.378906 -36.792969 L 40.644531 -35.964844 L 40.921875 -36.792969 C 41.195312 -37.34375 41.195312 -37.710938 40.828125 -37.800781 C 40.738281 -37.894531 41.195312 -38.71875 42.113281 -39.726562 C 44.132812 -42.113281 47.34375 -46.882812 50.828125 -52.757812 C 50.644531 -53.03125 50.554688 -53.214844 50.464844 -53.492188 C 50.371094 -53.582031 50.371094 -53.582031 50.28125 -53.675781 C 50.003906 -53.214844 49.730469 -52.757812 49.730469 -52.574219 C 49.730469 -52.296875 49.636719 -52.207031 49.453125 -52.207031 C 49.269531 -52.207031 49.085938 -52.023438 49.085938 -51.746094 C 49.085938 -51.5625 48.996094 -51.105469 48.628906 -50.738281 C 47.800781 -49.453125 46.609375 -47.800781 46.609375 -47.433594 C 46.609375 -47.25 46.242188 -46.699219 45.691406 -46.152344 C 45.234375 -45.507812 44.683594 -44.867188 44.683594 -44.683594 C 44.683594 -44.5 44.5 -44.132812 44.132812 -43.855469 C 43.671875 -43.398438 42.9375 -42.390625 42.296875 -41.472656 C 41.65625 -40.554688 40.738281 -39.269531 40.1875 -38.628906 C 39.636719 -37.984375 38.445312 -36.699219 37.617188 -35.691406 C 36.792969 -34.589844 36.882812 -36.332031 36.882812 -36.515625 C 36.882812 -36.609375 37.25 -37.160156 37.710938 -37.617188 C 38.628906 -38.535156 40.644531 -41.65625 40.644531 -42.113281 C 40.644531 -42.207031 40.921875 -42.390625 41.289062 -42.480469 C 41.746094 -42.664062 41.929688 -42.9375 41.929688 -43.488281 C 41.929688 -43.949219 42.023438 -44.316406 42.207031 -44.316406 C 42.480469 -44.316406 43.765625 -46.335938 43.765625 -46.882812 C 43.765625 -47.34375 42.207031 -45.507812 42.207031 -45.050781 C 42.207031 -44.773438 42.113281 -44.589844 41.929688 -44.589844 C 41.839844 -44.589844 41.011719 -43.671875 40.277344 -42.574219 C 39.542969 -41.472656 38.8125 -40.554688 38.71875 -40.554688 C 38.628906 -40.554688 38.261719 -40.09375 37.984375 -39.542969 C 36.976562 -37.527344 20.734375 -26.425781 22.570312 -27.707031 C 23.761719 -28.625 24.863281 -29.726562 24.863281 -30.003906 C 24.863281 -30.09375 24.128906 -29.636719 23.214844 -28.992188 C 18.902344 -25.78125 16.148438 -26.425781 13.578125 -26.425781 C 11.742188 -26.425781 11.195312 -26.609375 10.917969 -27.523438 C 10.644531 -28.351562 9.632812 -32.753906 9.632812 -33.398438 C 9.632812 -33.488281 10.367188 -34.039062 11.195312 -34.5 C 12.019531 -34.957031 12.753906 -35.414062 12.84375 -35.507812 C 13.210938 -35.875 14.40625 -36.425781 14.957031 -36.425781 C 15.324219 -36.425781 22.203125 -42.9375 22.203125 -43.398438 C 22.203125 -43.488281 22.9375 -44.316406 23.855469 -45.140625 C 24.679688 -46.058594 25.507812 -47.25 25.691406 -47.800781 C 25.964844 -48.351562 26.242188 -48.71875 26.425781 -48.71875 C 26.515625 -48.71875 26.609375 -48.902344 26.609375 -49.085938 C 26.609375 -49.363281 27.25 -50.1875 28.074219 -51.105469 C 28.808594 -51.929688 29.453125 -52.847656 29.542969 -52.941406 C 29.542969 -53.125 30.277344 -54.226562 31.011719 -55.324219 C 34.222656 -59.636719 36.332031 -64.226562 36.425781 -67.527344 C 36.425781 -69.546875 36.332031 -70.003906 35.414062 -71.566406 C 34.222656 -73.769531 32.019531 -75.601562 29.453125 -76.796875 C 28.351562 -77.347656 26.976562 -78.171875 26.332031 -78.722656 C 24.957031 -79.824219 22.753906 -80.097656 20.917969 -79.546875 C 19.449219 -79.179688 14.496094 -75.511719 14.128906 -74.59375 C 14.039062 -74.316406 13.394531 -73.949219 12.84375 -73.675781 C 11.742188 -73.21875 8.992188 -70.28125 8.992188 -69.457031 C 8.992188 -69.363281 8.992188 -69.179688 8.808594 -69.089844 C 8.441406 -68.996094 6.605469 -66.0625 5.136719 -63.308594 C 3.671875 -60.832031 1.835938 -55.601562 0.734375 -51.195312 C -0.734375 -45.691406 -0.457031 -36.792969 1.285156 -31.835938 C 2.386719 -28.992188 3.488281 -27.523438 7.339844 -24.222656 C 9.082031 -22.570312 12.292969 -20.734375 13.394531 -20.550781 C 14.128906 -20.367188 16.515625 -19.632812 16.699219 -19.359375 C 17.15625 -19.085938 19.632812 -19.175781 20.277344 -19.359375 C 31.378906 -22.847656 39.359375 -31.195312 39.359375 -31.285156 C 39.359375 -31.46875 39.726562 -31.835938 40.003906 -32.203125 C 40.277344 -32.480469 41.195312 -33.582031 41.929688 -34.589844 C 42.757812 -35.597656 43.582031 -36.609375 43.949219 -36.882812 C 44.222656 -37.34375 45.691406 -39.269531 47.066406 -41.378906 C 48.996094 -44.316406 50.28125 -46.242188 51.289062 -47.710938 C 51.195312 -47.894531 51.105469 -48.078125 51.105469 -48.261719 Z M 17.339844 -43.03125 C 16.605469 -42.296875 16.605469 -42.296875 16.972656 -42.9375 C 17.25 -43.488281 18.167969 -44.222656 18.167969 -43.949219 C 18.167969 -43.855469 17.800781 -43.488281 17.339844 -43.03125 Z M 18.808594 -44.5 C 18.625 -44.40625 18.441406 -44.40625 18.441406 -44.589844 C 18.441406 -44.773438 18.625 -44.957031 18.808594 -44.957031 C 18.992188 -44.957031 19.085938 -44.867188 19.085938 -44.773438 C 19.085938 -44.683594 18.992188 -44.589844 18.808594 -44.5 Z M 19.726562 -45.875 C 19.359375 -45.875 19.359375 -46.152344 19.726562 -46.335938 C 20 -46.425781 20 -46.425781 20 -46.242188 C 20 -46.058594 20 -45.875 19.726562 -45.875 Z M 21.285156 -48.078125 C 20.917969 -48.078125 20.917969 -48.351562 21.285156 -48.535156 C 21.5625 -48.628906 21.652344 -48.628906 21.652344 -48.445312 C 21.652344 -48.261719 21.5625 -48.078125 21.285156 -48.078125 Z M 23.945312 -51.746094 C 23.761719 -51.195312 23.488281 -51.105469 23.488281 -51.5625 C 23.488281 -51.746094 23.671875 -51.929688 23.855469 -52.023438 C 24.039062 -52.113281 24.039062 -52.023438 23.945312 -51.746094 Z M 10.734375 -48.078125 C 11.101562 -48.535156 11.195312 -49.179688 11.195312 -49.363281 C 11.195312 -49.546875 11.835938 -51.105469 12.570312 -52.664062 C 13.210938 -54.226562 13.945312 -55.875 14.222656 -56.425781 C 14.40625 -56.976562 14.957031 -58.078125 15.140625 -58.902344 C 15.78125 -60.648438 16.332031 -61.566406 18.351562 -64.042969 C 19.085938 -64.960938 19.816406 -65.96875 19.910156 -66.335938 C 20 -66.609375 20.277344 -66.976562 20.460938 -66.976562 C 20.550781 -66.976562 21.195312 -67.527344 21.835938 -68.171875 C 22.480469 -68.8125 23.488281 -69.546875 24.039062 -69.914062 C 24.679688 -70.371094 25.78125 -71.472656 26.515625 -72.484375 C 27.433594 -73.402344 28.167969 -74.226562 28.257812 -74.226562 C 28.902344 -74.226562 29.542969 -71.933594 29.269531 -70.554688 C 28.992188 -68.355469 27.707031 -64.226562 27.160156 -63.492188 C 26.882812 -63.214844 26.976562 -63.125 27.160156 -63.308594 C 28.074219 -63.859375 27.617188 -62.574219 26.058594 -60.28125 C 22.019531 -54.226562 20.644531 -52.296875 20 -51.746094 C 19.726562 -51.289062 19.359375 -50.828125 19.359375 -50.644531 C 19.359375 -50.28125 19.085938 -49.820312 17.339844 -47.894531 C 16.699219 -47.34375 16.238281 -46.699219 16.238281 -46.609375 C 16.238281 -46.242188 14.40625 -44.316406 14.039062 -44.316406 C 13.945312 -44.316406 13.855469 -44.039062 13.945312 -43.855469 C 13.945312 -43.488281 13.945312 -43.304688 13.578125 -43.121094 C 13.394531 -43.03125 13.121094 -42.847656 13.121094 -42.664062 C 13.121094 -42.113281 11.011719 -40.460938 10.460938 -40.460938 C 10.09375 -40.460938 10 -40.1875 10.09375 -39.636719 C 10.183594 -39.269531 10.183594 -38.992188 10 -38.992188 C 9.542969 -38.992188 9.632812 -38.8125 9.542969 -40.644531 C 9.359375 -42.390625 10.09375 -46.792969 10.734375 -48.078125 Z M 46.792969 -51.5625 C 46.699219 -51.5625 46.519531 -51.5625 46.425781 -51.5625 C 46.242188 -51.289062 46.058594 -51.105469 45.875 -50.828125 C 45.140625 -49.730469 44.316406 -48.535156 44.132812 -48.167969 C 43.855469 -47.617188 43.855469 -47.527344 44.40625 -47.527344 C 44.867188 -47.527344 45.050781 -47.800781 45.050781 -48.351562 C 45.050781 -48.71875 45.234375 -48.996094 45.324219 -48.996094 C 45.601562 -48.996094 45.691406 -49.269531 45.691406 -49.453125 C 45.691406 -49.820312 45.96875 -50.097656 46.335938 -50.1875 C 46.699219 -50.28125 46.882812 -50.554688 46.882812 -50.828125 C 46.699219 -51.105469 46.699219 -51.378906 46.792969 -51.5625 Z M 47.433594 -52.207031 C 47.710938 -52.207031 47.894531 -52.480469 47.894531 -52.757812 C 47.894531 -52.847656 47.894531 -52.847656 47.894531 -52.847656 C 47.710938 -52.574219 47.617188 -52.390625 47.433594 -52.207031 Z M 47.433594 -52.207031 "/></g></g></g><g fill="#ffffff" fill-opacity="1"><g transform="translate(83.981301, 308.663929)"><g><path d="M 1.640625 0 L 7.78125 0 L 7.78125 -0.828125 L 2.527344 -0.828125 L 2.527344 -4.777344 L 7.242188 -4.777344 L 7.242188 -5.589844 L 2.527344 -5.589844 L 2.527344 -9.332031 L 7.621094 -9.332031 L 7.621094 -10.160156 L 1.640625 -10.160156 Z M 1.640625 0 "/></g></g></g><g fill="#ffffff" fill-opacity="1"><g transform="translate(97.699938, 308.663929)"><g><path d="M 0.640625 0 L 1.699219 0 L 4.152344 -3.398438 L 4.949219 -4.515625 L 5.734375 -3.398438 L 8.203125 0 L 9.246094 0 L 5.488281 -5.195312 L 9.074219 -10.160156 L 8.042969 -10.160156 L 5.761719 -7.011719 L 4.949219 -5.851562 L 4.121094 -7.011719 L 1.84375 -10.160156 L 0.796875 -10.160156 L 4.382812 -5.195312 Z M 0.640625 0 "/></g></g></g><g fill="#ffffff" fill-opacity="1"><g transform="translate(112.463434, 308.663929)"><g><path d="M 1.640625 0 L 2.527344 0 L 2.527344 -3.484375 L 4.863281 -3.484375 C 7.214844 -3.484375 8.609375 -4.71875 8.609375 -6.824219 C 8.609375 -8.925781 7.214844 -10.160156 4.863281 -10.160156 L 1.640625 -10.160156 Z M 2.527344 -4.296875 L 2.527344 -9.320312 L 4.847656 -9.320312 C 6.75 -9.320312 7.722656 -8.460938 7.722656 -6.808594 C 7.722656 -5.152344 6.75 -4.296875 4.847656 -4.296875 Z M 2.527344 -4.296875 "/></g></g></g><g fill="#ffffff" fill-opacity="1"><g transform="translate(126.631943, 308.663929)"><g><path d="M 1.640625 0 L 7.679688 0 L 7.679688 -0.84375 L 2.527344 -0.84375 L 2.527344 -10.160156 L 1.640625 -10.160156 Z M 1.640625 0 "/></g></g></g><g fill="#ffffff" fill-opacity="1"><g transform="translate(139.683037, 308.663929)"><g><path d="M 6.167969 0.1875 C 9.277344 0.1875 11.410156 -1.972656 11.410156 -5.082031 C 11.410156 -8.1875 9.277344 -10.351562 6.167969 -10.351562 C 3.078125 -10.351562 0.929688 -8.1875 0.929688 -5.082031 C 0.929688 -1.972656 3.078125 0.1875 6.167969 0.1875 Z M 1.828125 -5.082031 C 1.828125 -7.695312 3.601562 -9.464844 6.167969 -9.464844 C 8.753906 -9.464844 10.523438 -7.695312 10.523438 -5.082031 C 10.523438 -2.480469 8.753906 -0.695312 6.167969 -0.695312 C 3.601562 -0.695312 1.828125 -2.480469 1.828125 -5.082031 Z M 1.828125 -5.082031 "/></g></g></g><g fill="#ffffff" fill-opacity="1"><g transform="translate(156.899034, 308.663929)"><g><path d="M 1.640625 0 L 2.527344 0 L 2.527344 -3.816406 L 5.152344 -3.816406 L 7.882812 0 L 8.941406 0 L 6.183594 -3.890625 C 7.78125 -4.167969 8.78125 -5.3125 8.78125 -6.996094 C 8.78125 -8.925781 7.445312 -10.160156 5.398438 -10.160156 L 1.640625 -10.160156 Z M 2.527344 -4.660156 L 2.527344 -9.320312 L 5.3125 -9.320312 C 6.925781 -9.320312 7.882812 -8.433594 7.882812 -6.996094 C 7.882812 -5.546875 6.925781 -4.660156 5.3125 -4.660156 Z M 2.527344 -4.660156 "/></g></g></g><g fill="#ffffff" fill-opacity="1"><g transform="translate(171.706059, 308.663929)"><g><path d="M 1.640625 0 L 7.78125 0 L 7.78125 -0.828125 L 2.527344 -0.828125 L 2.527344 -4.777344 L 7.242188 -4.777344 L 7.242188 -5.589844 L 2.527344 -5.589844 L 2.527344 -9.332031 L 7.621094 -9.332031 L 7.621094 -10.160156 L 1.640625 -10.160156 Z M 1.640625 0 "/></g></g></g><g fill="#ffffff" fill-opacity="1"><g transform="translate(185.424697, 308.663929)"><g><path d="M 0.84375 0 L 7.925781 0 L 7.925781 -0.84375 L 2.003906 -0.84375 L 7.796875 -9.492188 L 7.796875 -10.160156 L 0.972656 -10.160156 L 0.972656 -9.320312 L 6.632812 -9.320312 L 0.84375 -0.652344 Z M 0.84375 0 "/></g></g></g><g fill="#ffffff" fill-opacity="1"><g transform="translate(199.041766, 308.663929)"><g/></g></g><g fill="#ffffff" fill-opacity="1"><g transform="translate(207.81187, 308.663929)"><g><path d="M 1.640625 0 L 7.679688 0 L 7.679688 -0.84375 L 2.527344 -0.84375 L 2.527344 -10.160156 L 1.640625 -10.160156 Z M 1.640625 0 "/></g></g></g><g fill="#ffffff" fill-opacity="1"><g transform="translate(220.862964, 308.663929)"><g><path d="M 1.21875 -6.632812 L 1.960938 -6.632812 L 1.988281 -10.160156 L 1.191406 -10.160156 Z M 1.21875 -6.632812 "/></g></g></g><g fill="#ffffff" fill-opacity="1"><g transform="translate(228.936495, 308.663929)"><g><path d="M 1.640625 0 L 2.527344 0 L 2.527344 -10.160156 L 1.640625 -10.160156 Z M 1.640625 0 "/></g></g></g><g fill="#ffffff" fill-opacity="1"><g transform="translate(237.98232, 308.663929)"><g><path d="M 1.640625 0 L 2.511719 0 L 2.511719 -8.652344 L 8.695312 0 L 9.523438 0 L 9.523438 -10.160156 L 8.652344 -10.160156 L 8.652344 -1.523438 L 2.46875 -10.160156 L 1.640625 -10.160156 Z M 1.640625 0 "/></g></g></g><g fill="#ffffff" fill-opacity="1"><g transform="translate(254.022854, 308.663929)"><g><path d="M 6.082031 0.1875 C 8.476562 0.1875 10.4375 -1.21875 11.0625 -3.410156 L 10.132812 -3.410156 C 9.566406 -1.726562 8 -0.695312 6.097656 -0.695312 C 3.613281 -0.695312 1.828125 -2.480469 1.828125 -5.082031 C 1.828125 -7.679688 3.613281 -9.464844 6.097656 -9.464844 C 7.953125 -9.464844 9.464844 -8.476562 10.046875 -6.867188 L 10.972656 -6.867188 C 10.304688 -9 8.40625 -10.351562 6.082031 -10.351562 C 3.09375 -10.351562 0.929688 -8.171875 0.929688 -5.082031 C 0.929688 -1.988281 3.09375 0.1875 6.082031 0.1875 Z M 6.082031 0.1875 "/></g></g></g><g fill="#ffffff" fill-opacity="1"><g transform="translate(270.832518, 308.663929)"><g><path d="M 6.167969 0.1875 C 9.277344 0.1875 11.410156 -1.972656 11.410156 -5.082031 C 11.410156 -8.1875 9.277344 -10.351562 6.167969 -10.351562 C 3.078125 -10.351562 0.929688 -8.1875 0.929688 -5.082031 C 0.929688 -1.972656 3.078125 0.1875 6.167969 0.1875 Z M 1.828125 -5.082031 C 1.828125 -7.695312 3.601562 -9.464844 6.167969 -9.464844 C 8.753906 -9.464844 10.523438 -7.695312 10.523438 -5.082031 C 10.523438 -2.480469 8.753906 -0.695312 6.167969 -0.695312 C 3.601562 -0.695312 1.828125 -2.480469 1.828125 -5.082031 Z M 1.828125 -5.082031 "/></g></g></g><g fill="#ffffff" fill-opacity="1"><g transform="translate(288.048511, 308.663929)"><g><path d="M 1.640625 0 L 2.511719 0 L 2.511719 -8.652344 L 8.695312 0 L 9.523438 0 L 9.523438 -10.160156 L 8.652344 -10.160156 L 8.652344 -1.523438 L 2.46875 -10.160156 L 1.640625 -10.160156 Z M 1.640625 0 "/></g></g></g><g fill="#ffffff" fill-opacity="1"><g transform="translate(304.089044, 308.663929)"><g><path d="M 1.640625 0 L 2.511719 0 L 2.511719 -8.652344 L 8.695312 0 L 9.523438 0 L 9.523438 -10.160156 L 8.652344 -10.160156 L 8.652344 -1.523438 L 2.46875 -10.160156 L 1.640625 -10.160156 Z M 1.640625 0 "/></g></g></g><g fill="#ffffff" fill-opacity="1"><g transform="translate(320.129578, 308.663929)"><g><path d="M 5.34375 0.175781 C 7.722656 0.175781 9.175781 -1.394531 9.175781 -4.007812 L 9.175781 -10.160156 L 8.304688 -10.160156 L 8.304688 -4.050781 C 8.304688 -1.886719 7.230469 -0.683594 5.34375 -0.683594 C 3.453125 -0.683594 2.378906 -1.886719 2.378906 -4.050781 L 2.378906 -10.160156 L 1.507812 -10.160156 L 1.507812 -4.007812 C 1.507812 -1.394531 2.960938 0.175781 5.34375 0.175781 Z M 5.34375 0.175781 "/></g></g></g></svg>